<?xml version="1.0" standalone="no"?>
<!DOCTYPE svg PUBLIC "-//W3C//DTD SVG 1.1//EN" "http://www.w3.org/Graphics/SVG/1.1/DTD/svg11.dtd" >
<svg xmlns="http://www.w3.org/2000/svg" xmlns:xlink="http://www.w3.org/1999/xlink" version="1.1">
<metadata></metadata>
<defs>
<font id="svn-poppinsregular" horiz-adv-x="640" >
<font-face units-per-em="1000" ascent="800" descent="-200" />
<missing-glyph horiz-adv-x="267" />
<glyph horiz-adv-x="0" />
<glyph horiz-adv-x="0" />
<glyph unicode="&#xd;" horiz-adv-x="267" />
<glyph unicode=" "  horiz-adv-x="267" />
<glyph unicode="&#x09;" horiz-adv-x="267" />
<glyph unicode="&#xa0;" horiz-adv-x="267" />
<glyph unicode="!" horiz-adv-x="298" d="M108 197l-11 500h98l-11 -500h-76zM210 56q0 -26 -17.5 -44t-42.5 -18q-26 0 -44 18t-18 44t18 44t44 18q25 0 42.5 -18t17.5 -44z" />
<glyph unicode="&#x22;" horiz-adv-x="292" d="M47 597l-12 199h86l-11 -199h-63zM182 597l-12 199h86l-11 -199h-63z" />
<glyph unicode="#" horiz-adv-x="840" d="M504 280l38 180h-210l-38 -180h210zM444 0l43 200h-210l-43 -200h-87l43 200h-157v80h174l38 180h-155v80h172l43 200h87l-43 -200h210l43 200h87l-43 -200h139v-80h-156l-38 -180h138v-80h-155l-43 -200h-87z" />
<glyph unicode="$" horiz-adv-x="622" d="M267 -87v81q-91 8 -148 58.5t-58 128.5h97q4 -42 31.5 -73t77.5 -39v250q-50 13 -76.5 22.5t-62 31t-52 56t-16.5 83.5q0 81 56.5 134t150.5 59v83h54v-83q85 -7 137 -54.5t60 -123.5h-97q-5 35 -31 63.5t-69 37.5v-244q39 -10 60.5 -16.5t53.5 -22t49 -34t30 -49.5 t13 -71q0 -75 -54.5 -133t-151.5 -64v-81h-54zM436 186q0 49 -30 75.5t-85 42.5v-236q54 6 84.5 39t30.5 79zM153 517q0 -49 29 -75t85 -43v231q-52 -5 -83 -33.5t-31 -79.5z" />
<glyph unicode="%" horiz-adv-x="759" d="M42 560q0 68 41 108.5t105 40.5t105 -40.5t41 -108.5q0 -69 -41 -109.5t-105 -40.5t-105 40.5t-41 109.5zM188 653q-34 0 -53.5 -23.5t-19.5 -69.5t19.5 -70t53.5 -24t54 24.5t20 69.5q0 46 -20 69.5t-54 23.5zM131 0l405 698h90l-405 -698h-90zM425 138q0 69 41 109.5 t105 40.5t104.5 -40.5t40.5 -109.5q0 -68 -41 -109t-104 -41q-64 0 -105 40.5t-41 109.5zM570 231q-34 0 -54 -23.5t-20 -69.5q0 -45 20 -68.5t54 -23.5t54 23.5t20 68.5q0 46 -20 69.5t-54 23.5z" />
<glyph unicode="&#x26;" horiz-adv-x="739" d="M497 548h-91q1 41 -23 64.5t-62 23.5q-40 0 -64.5 -22.5t-24.5 -57.5q0 -30 16.5 -58t55.5 -69l208 -209q12 18 18 28l68 114h98l-82 -142q-17 -30 -40 -63l157 -157h-119l-91 92q-100 -104 -240 -104q-109 0 -176.5 58t-67.5 154q0 151 164 216q-60 70 -60 140 q0 68 50.5 111.5t133.5 43.5q81 0 128.5 -46t43.5 -117zM281 66q103 0 180 86l-205 206q-128 -49 -128 -155q0 -59 42.5 -98t110.5 -39z" />
<glyph unicode="'" horiz-adv-x="159" d="M48 597l-13 199h88l-12 -199h-63z" />
<glyph unicode="(" horiz-adv-x="454" d="M406 -186h-95q-96 94 -149.5 239t-53.5 313q0 172 56.5 321.5t161.5 246.5h95v-9q-112 -105 -168.5 -252.5t-56.5 -306.5q0 -155 53.5 -296t156.5 -247v-9z" />
<glyph unicode=")" horiz-adv-x="454" d="M143 -186h-95v9q103 106 156.5 247t53.5 296q0 159 -56.5 306.5t-168.5 252.5v9h95q105 -97 161.5 -246.5t56.5 -321.5q0 -168 -53.5 -313t-149.5 -239z" />
<glyph unicode="*" horiz-adv-x="486" d="M282 734l-17 -152l122 88l36 -65l-139 -58l140 -57l-38 -67l-121 88l16 -151h-75l15 151l-121 -89l-39 68l139 58l-139 56l37 67l124 -89l-16 152h76z" />
<glyph unicode="+" horiz-adv-x="683" d="M299 621h85v-217h213v-77h-213v-216h-85v216h-212v77h212v217z" />
<glyph unicode="," horiz-adv-x="198" d="M-2 -143l73 269h100l-112 -269h-61z" />
<glyph unicode="-" horiz-adv-x="551" d="M58 328v77h399v-77h-399z" />
<glyph unicode="." horiz-adv-x="210" d="M166 56q0 -26 -17.5 -44t-42.5 -18q-26 0 -44 18t-18 44t18 44t44 18q25 0 42.5 -18t17.5 -44z" />
<glyph unicode="/" horiz-adv-x="476" d="M53 -170l273 1112h91l-274 -1112h-90z" />
<glyph unicode="0" horiz-adv-x="628" d="M62 369q0 83 11.5 145.5t39 114t78 78.5t123.5 27q72 0 122.5 -27t78 -78.5t39 -114t11.5 -145.5q0 -84 -11.5 -147t-39 -115t-78 -79.5t-122.5 -27.5q-73 0 -123.5 27.5t-78 79.5t-39 115t-11.5 147zM475 369q0 50 -3 87.5t-13 76t-27 63t-47 40t-71 15.5 q-42 0 -72 -15.5t-47 -40t-27 -63t-13 -76t-3 -87.5q0 -52 3 -90t13 -77.5t27 -63.5t47 -39.5t72 -15.5q51 0 84.5 21.5t49.5 64.5t21.5 88.5t5.5 111.5z" />
<glyph unicode="1" horiz-adv-x="320" d="M134 0v640h-96v83h188v-723h-92z" />
<glyph unicode="2" horiz-adv-x="575" d="M51 8v65q55 45 81.5 66t74 62t71 65.5t56.5 61.5t48.5 65t27 61t11.5 64q0 140 -133 140q-68 0 -105.5 -42.5t-40.5 -113.5h-88q4 112 68 173t165 61q103 0 163.5 -57t60.5 -157q0 -50 -21.5 -103t-50 -93t-77 -88.5t-81 -76t-83.5 -69.5q-7 -5 -10 -8h344v-76h-481z" />
<glyph unicode="3" horiz-adv-x="589" d="M60 541q7 92 71 144t166 52t160 -52.5t58 -133.5q0 -62 -35.5 -107t-92.5 -58v-5q65 -16 103 -63t38 -123q0 -88 -60 -144t-169 -56q-106 0 -174 55.5t-76 157.5h88q7 -60 49 -98t112 -38t106.5 36.5t36.5 94.5q0 75 -50 108t-151 33h-23v76h24q186 2 186 122 q0 53 -34.5 85t-98.5 32q-62 0 -100 -32t-45 -86h-89z" />
<glyph unicode="4" horiz-adv-x="629" d="M410 0v161h-370v69l351 486h109v-476h100v-79h-100v-161h-90zM145 240h269v381z" />
<glyph unicode="5" horiz-adv-x="628" d="M88 724h435v-80h-351v-228q23 32 68 52.5t97 20.5q63 0 110 -21t72.5 -57t37.5 -76t12 -85q0 -111 -63 -181.5t-184 -70.5q-105 0 -170 54t-79 144h89q13 -57 55 -89t106 -32q79 0 119 47.5t40 125.5t-40 120.5t-118 42.5q-54 0 -93 -25.5t-57 -69.5h-86v408z" />
<glyph unicode="6" horiz-adv-x="635" d="M549 551h-84q-22 111 -137 111q-89 0 -133 -68.5t-43 -225.5q23 52 76.5 81.5t119.5 29.5q103 0 164.5 -64t61.5 -177q0 -104 -61 -172t-175 -68q-63 0 -109.5 18t-76 49.5t-47.5 80t-25 102.5t-7 123q0 367 256 367q98 0 154 -53t66 -134zM329 402q-68 0 -117 -40.5 t-49 -116.5t44 -123.5t126 -47.5q70 0 111.5 43.5t41.5 117.5q0 78 -40 122.5t-117 44.5z" />
<glyph unicode="7" horiz-adv-x="546" d="M33 721h474v-69l-278 -652h-92l282 643h-386v78z" />
<glyph unicode="8" horiz-adv-x="631" d="M194 376q-116 45 -116 166q0 83 62 137.5t175 54.5t175.5 -54.5t62.5 -137.5q0 -58 -31 -101.5t-85 -64.5q62 -19 98.5 -66.5t36.5 -114.5q0 -98 -71 -156.5t-186 -58.5t-185 58.5t-70 156.5q0 67 36 115t98 66zM315 406q67 0 108.5 34.5t41.5 90.5q0 61 -40 94t-110 33 q-69 0 -109 -33t-40 -95q0 -56 41.5 -90t107.5 -34zM315 336q-74 0 -121 -34.5t-47 -103.5q0 -64 45.5 -103t122.5 -39t122 39t45 103q0 67 -46 102.5t-121 35.5z" />
<glyph unicode="9" horiz-adv-x="630" d="M95 194h84q21 -119 145 -119q83 0 122.5 65t37.5 219q-21 -45 -70 -70.5t-109 -25.5q-103 0 -167.5 62t-64.5 174q0 107 62 172.5t176 65.5q140 0 196.5 -91t56.5 -271q0 -191 -54.5 -283.5t-190.5 -92.5q-102 0 -159 55t-65 140zM320 340q67 0 110 41.5t43 112.5 q0 75 -42 121t-118 46q-70 0 -111.5 -44t-41.5 -116q0 -73 41 -117t119 -44z" />
<glyph unicode=":" horiz-adv-x="213" d="M166 56q0 -26 -17.5 -44t-42.5 -18q-26 0 -44 18t-18 44t18 44t44 18q25 0 42.5 -18t17.5 -44zM166 484q0 -26 -17.5 -44t-42.5 -18q-26 0 -44 18t-18 44t18 44t44 18q25 0 42.5 -18t17.5 -44z" />
<glyph unicode=";" horiz-adv-x="264" d="M190 485q0 -26 -17.5 -44t-42.5 -18q-26 0 -44 18t-18 44t18 44t44 18q25 0 42.5 -18t17.5 -44zM23 -143l73 269h100l-112 -269h-61z" />
<glyph unicode="&#x3c;" horiz-adv-x="555" d="M198 366l242 -230h-115l-241 230l241 229h115z" />
<glyph unicode="=" horiz-adv-x="723" d="M101 220v77h520v-77h-520zM101 435v77h520v-77h-520z" />
<glyph unicode="&#x3e;" horiz-adv-x="539" d="M94 136l242 230l-242 229h115l242 -229l-242 -230h-115z" />
<glyph unicode="?" horiz-adv-x="524" d="M37 505q-1 91 59.5 146t158.5 55q99 0 160 -56t61 -150q0 -105 -65 -155.5t-176 -50.5l-3 -95h-79l-4 158h29q99 0 155 30t56 113q0 60 -36 95t-97 35q-62 0 -97.5 -33.5t-35.5 -91.5h-86zM252 56q0 -26 -17.5 -44t-42.5 -18q-26 0 -44 18t-18 44t18 44t44 18 q25 0 42.5 -18t17.5 -44z" />
<glyph unicode="@" horiz-adv-x="1013" d="M723 -7q-50 0 -77 25t-31 68q-31 -43 -78.5 -68t-100.5 -25q-76 0 -119.5 46.5t-43.5 125.5q0 115 69.5 199.5t176.5 84.5q95 0 128 -72l11 62h79l-50 -289q-7 -46 3.5 -70.5t46.5 -24.5q40 0 71 40.5t44.5 95.5t13.5 111q0 131 -78.5 203t-221.5 72q-180 0 -299 -125.5 t-119 -310.5q-1 -132 79 -203.5t222 -71.5q94 0 166 34l12 -62q-89 -37 -196 -37q-163 0 -261 90t-98 242q0 141 64.5 257t180.5 183.5t260 67.5q168 0 265.5 -92t97.5 -242q0 -79 -24.5 -149.5t-75.5 -117.5t-117 -47zM627 247q5 57 -23.5 94.5t-84.5 37.5 q-72 0 -116.5 -60.5t-44.5 -139.5q0 -53 27 -84t78 -31q66 0 112.5 52.5t51.5 130.5z" />
<glyph unicode="A" horiz-adv-x="674" d="M545 0l-56 155h-304l-56 -155h-96l252 693h105l251 -693h-96zM463 229l-126 352l-126 -352h252z" />
<glyph unicode="B" horiz-adv-x="613" d="M473 196q0 58 -40 91.5t-107 33.5h-158v-246h161q68 0 106 32t38 89zM455 509q0 53 -35 83t-101 30h-151v-226h153q64 0 99 30t35 83zM564 187q0 -81 -61 -134t-166 -53h-260v697h250q106 0 163.5 -50t57.5 -127q0 -62 -33.5 -102.5t-88.5 -58.5q58 -10 98 -59t40 -113z " />
<glyph unicode="C" horiz-adv-x="772" d="M43 349q0 155 100 256t248 101q114 0 199 -55t124 -156h-109q-59 131 -214 131q-112 0 -183.5 -75.5t-71.5 -201.5q0 -125 72 -200.5t183 -75.5q154 0 214 130h109q-39 -100 -124 -154.5t-199 -54.5q-148 0 -248 100t-100 255z" />
<glyph unicode="D" horiz-adv-x="707" d="M294 697q172 0 271 -94t99 -256t-99 -254.5t-271 -92.5h-217v697h217zM168 75h126q135 0 206 71.5t71 200.5q0 130 -71.5 203t-205.5 73h-126v-548z" />
<glyph unicode="E" horiz-adv-x="513" d="M452 698v-75h-284v-233h254v-75h-254v-240h284v-75h-375v698h375z" />
<glyph unicode="F" horiz-adv-x="504" d="M77 0v697h394v-74h-303v-235h246v-74h-246v-314h-91z" />
<glyph unicode="G" horiz-adv-x="778" d="M393 705q111 0 196.5 -55t124.5 -155h-109q-29 61 -84 94.5t-128 33.5q-112 0 -184.5 -75t-72.5 -199q0 -123 72.5 -198t184.5 -75q102 0 168 61t77 165h-278v74h375v-70q-12 -132 -107.5 -222t-234.5 -90q-149 0 -249.5 100t-100.5 255t100.5 255.5t249.5 100.5z" />
<glyph unicode="H" horiz-adv-x="691" d="M523 0v316h-355v-316h-91v697h91v-306h355v306h91v-697h-91z" />
<glyph unicode="I" horiz-adv-x="246" d="M77 0v697h91v-697h-91z" />
<glyph unicode="J" horiz-adv-x="530" d="M336 182v515h92v-515q0 -86 -53 -137.5t-140 -51.5q-88 0 -141 52.5t-53 143.5h91q1 -51 26.5 -83t76.5 -32t76 30.5t25 77.5z" />
<glyph unicode="K" horiz-adv-x="599" d="M455 0l-287 318v-318h-91v697h91v-323l288 323h115l-316 -349l319 -348h-119z" />
<glyph unicode="L" horiz-adv-x="432" d="M77 697h91v-623h244v-74h-335v697z" />
<glyph unicode="M" horiz-adv-x="861" d="M77 0v692h98l256 -572l256 572h97v-692h-91v516l-230 -516h-64l-231 517v-517h-91z" />
<glyph unicode="N" horiz-adv-x="703" d="M534 698h91v-698h-91l-366 555v-555h-91v698h91l366 -554v554z" />
<glyph unicode="O" horiz-adv-x="786" d="M743 349q0 -155 -100.5 -255.5t-249.5 -100.5t-249.5 100.5t-100.5 255.5t100.5 255.5t249.5 100.5t249.5 -100.5t100.5 -255.5zM136 349q0 -125 72.5 -201t184.5 -76t184.5 76t72.5 201q0 126 -72.5 201.5t-184.5 75.5t-184.5 -75.5t-72.5 -201.5z" />
<glyph unicode="P" horiz-adv-x="579" d="M168 366h134q148 0 148 127q0 129 -148 129h-134v-256zM543 493q0 -87 -59.5 -144.5t-181.5 -57.5h-134v-291h-91v697h225q118 0 179.5 -57t61.5 -147z" />
<glyph unicode="Q" horiz-adv-x="788" d="M136 349q0 -125 72.5 -201t184.5 -76t184.5 76t72.5 201q0 126 -72.5 201.5t-184.5 75.5t-184.5 -75.5t-72.5 -201.5zM743 349q0 -100 -44 -180t-121 -126l176 -175h-118l-139 139q-51 -14 -104 -14q-149 0 -249.5 100.5t-100.5 255.5t100.5 255.5t249.5 100.5 t249.5 -100.5t100.5 -255.5z" />
<glyph unicode="R" horiz-adv-x="608" d="M450 492q0 130 -148 130h-134v-264h134q74 0 111 36.5t37 97.5zM77 697h225q118 0 180 -57.5t62 -147.5q0 -72 -41.5 -127t-124.5 -73l175 -292h-109l-166 285h-110v-285h-91v697z" />
<glyph unicode="S" horiz-adv-x="587" d="M530 190q0 -80 -62 -138.5t-170 -58.5q-105 0 -172.5 53.5t-68.5 139.5h97q5 -49 40.5 -82.5t103.5 -33.5q65 0 102.5 32.5t37.5 83.5q0 38 -21 63.5t-54 38.5t-73 23.5t-80.5 23.5t-73.5 32.5t-54 56t-21 89.5q0 86 64 139.5t167 53.5q98 0 160.5 -49t70.5 -130h-100 q-5 40 -40.5 70t-94.5 31q-58 2 -96 -28t-38 -84q0 -32 16 -55t42.5 -35.5t60.5 -24t69 -19.5t69 -23t60.5 -34.5t42.5 -54t16 -80.5z" />
<glyph unicode="T" horiz-adv-x="541" d="M34 623v74h472v-74h-190v-623h-91v623h-191z" />
<glyph unicode="U" horiz-adv-x="675" d="M75 257v440h91v-441q0 -93 45.5 -138t126.5 -45q80 0 125.5 45t45.5 138v441h91v-440q0 -129 -74 -196.5t-189 -67.5t-188.5 67t-73.5 197z" />
<glyph unicode="V" horiz-adv-x="676" d="M338 96l219 601h96l-263 -697h-105l-263 697h97z" />
<glyph unicode="W" horiz-adv-x="976" d="M218 -1l-195 698h97l152 -591l168 591h102l160 -589l153 589h98l-202 -697h-102l-162 561l-168 -561z" />
<glyph unicode="X" horiz-adv-x="621" d="M473 0l-167 272l-159 -272h-101l213 348l-214 349h102l168 -273l160 273h102l-215 -349l214 -348h-103z" />
<glyph unicode="Y" horiz-adv-x="584" d="M247 263l-228 434h101l172 -353l172 353h101l-227 -434v-263h-91v263z" />
<glyph unicode="Z" horiz-adv-x="541" d="M492 697v-72l-338 -546h340v-79h-448v72l338 546h-334v79h442z" />
<glyph unicode="[" horiz-adv-x="423" d="M133 -186v1120h180v-75h-95v-969h95v-76h-180z" />
<glyph unicode="\" horiz-adv-x="658" d="M221 942l313 -1112h-90l-313 1112h90z" />
<glyph unicode="]" horiz-adv-x="423" d="M290 934v-1120h-180v76h95v969h-95v75h180z" />
<glyph unicode="^" horiz-adv-x="629" d="M498 169l-182 412l-185 -412h-94l235 524h85l236 -524h-95z" />
<glyph unicode="_" horiz-adv-x="733" d="M105 -122v84h532v-84h-532z" />
<glyph unicode="`" horiz-adv-x="257" d="M17 703v79l213 -125v-68z" />
<glyph unicode="a" horiz-adv-x="676" d="M43 276q0 126 74 203.5t186 77.5q72 0 125 -31t79 -78v100h92v-548h-92v102q-27 -48 -80.5 -79.5t-124.5 -31.5q-111 0 -185 79.5t-74 205.5zM507 275q0 92 -54 147.5t-132 55.5t-131.5 -54.5t-53.5 -147.5q0 -94 53.5 -149.5t131.5 -55.5t132 55.5t54 148.5z" />
<glyph unicode="b" horiz-adv-x="676" d="M168 446q28 49 82 80t123 31q113 0 186.5 -77.5t73.5 -203.5t-74 -205.5t-186 -79.5q-71 0 -124.5 31t-80.5 79v-101h-91v740h91v-294zM540 276q0 93 -53.5 147.5t-132.5 54.5q-77 0 -131.5 -55.5t-54.5 -147.5q0 -93 54 -148.5t132 -55.5q79 0 132.5 55.5t53.5 149.5z " />
<glyph unicode="c" horiz-adv-x="607" d="M43 275q0 128 74.5 205t192.5 77q101 0 166.5 -49t86.5 -136h-98q-14 50 -54.5 79t-100.5 29q-78 0 -126 -53.5t-48 -151.5q0 -99 48 -153t126 -54q124 0 155 108h98q-22 -84 -88 -134.5t-165 -50.5q-118 0 -192.5 77.5t-74.5 206.5z" />
<glyph unicode="d" horiz-adv-x="676" d="M43 276q0 126 74 203.5t187 77.5q64 0 119 -29.5t84 -77.5v290h92v-740h-92v103q-27 -49 -80 -80.5t-124 -31.5q-112 0 -186 79.5t-74 205.5zM507 275q0 92 -54 147.5t-132 55.5t-131.5 -54.5t-53.5 -147.5q0 -94 53.5 -149.5t131.5 -55.5t132 55.5t54 148.5z" />
<glyph unicode="e" horiz-adv-x="620" d="M310 480q-69 0 -117.5 -44t-55.5 -122h346q1 77 -49 121.5t-124 44.5zM566 169q-22 -79 -88 -128.5t-164 -49.5q-119 0 -195 77.5t-76 206.5t75 205.5t196 76.5q118 0 190.5 -74t72.5 -188q0 -27 -3 -55h-438q5 -81 55.5 -126.5t122.5 -45.5q59 0 98.5 27.5t55.5 73.5h98 z" />
<glyph unicode="f" horiz-adv-x="329" d="M94 0v473h-71v75h71v39q0 92 47.5 134.5t152.5 42.5v-76q-60 0 -84.5 -23.5t-24.5 -77.5v-39h115v-75h-115v-473h-91z" />
<glyph unicode="g" horiz-adv-x="676" d="M43 276q0 126 74 203.5t186 77.5q71 0 124.5 -31t79.5 -78v100h92v-560q0 -115 -71.5 -186.5t-190.5 -71.5q-108 0 -180 51t-85 139h90q15 -50 62 -80.5t113 -30.5q75 0 122.5 47t47.5 132v115q-27 -48 -80 -80t-124 -32q-112 0 -186 79.5t-74 205.5zM507 275 q0 92 -54 147.5t-132 55.5t-131.5 -54.5t-53.5 -147.5q0 -94 53.5 -149.5t131.5 -55.5t132 55.5t54 148.5z" />
<glyph unicode="h" d="M77 0v740h91v-271q27 43 74.5 66t106.5 23q96 0 157.5 -61t61.5 -174v-323h-90v310q0 82 -41 125.5t-112 43.5q-72 0 -114.5 -45t-42.5 -131v-303h-91z" />
<glyph unicode="i" horiz-adv-x="246" d="M77 0v548h91v-548h-91zM124 637q-28 0 -46.5 18.5t-18.5 46.5t18.5 46.5t46.5 18.5q26 0 44.5 -18.5t18.5 -46.5t-18.5 -46.5t-44.5 -18.5z" />
<glyph unicode="j" horiz-adv-x="248" d="M80 548h91v-667q0 -141 -145 -141h-53v77h38q38 0 53.5 15t15.5 51v665zM126 637q-28 0 -46.5 18.5t-18.5 46.5t18.5 46.5t46.5 18.5q26 0 44.5 -18.5t18.5 -46.5t-18.5 -46.5t-44.5 -18.5z" />
<glyph unicode="k" horiz-adv-x="515" d="M77 0v740h91v-435l211 243h127l-258 -273l259 -275h-124l-215 242v-242h-91z" />
<glyph unicode="l" horiz-adv-x="246" d="M77 0v740h91v-740h-91z" />
<glyph unicode="m" horiz-adv-x="1030" d="M868 0v310q0 82 -40.5 125.5t-109.5 43.5q-71 0 -113 -45.5t-42 -131.5v-302h-90v310q0 82 -40.5 125.5t-109.5 43.5q-71 0 -113 -45.5t-42 -131.5v-302h-91v548h91v-79q27 43 72.5 66t100.5 23q69 0 122 -31t79 -91q23 58 76 90t118 32q98 0 160 -61t62 -174v-323h-90z " />
<glyph unicode="n" d="M478 0v310q0 82 -41 125.5t-112 43.5q-72 0 -114.5 -45t-42.5 -131v-303h-91v548h91v-78q27 42 73.5 65t102.5 23q100 0 162 -60.5t62 -174.5v-323h-90z" />
<glyph unicode="o" d="M597 275q0 -128 -80.5 -206t-200.5 -78q-118 0 -195.5 78t-77.5 206q0 127 79 204.5t198 77.5q120 0 198.5 -77.5t78.5 -204.5zM136 275q0 -99 52 -151.5t128 -52.5q78 0 133 53t55 151t-54 150.5t-131 52.5t-130 -52.5t-53 -150.5z" />
<glyph unicode="p" horiz-adv-x="676" d="M168 447q27 47 80.5 78.5t124.5 31.5q112 0 186 -77.5t74 -203.5t-74 -205.5t-186 -79.5q-70 0 -123.5 31.5t-81.5 78.5v-361h-91v808h91v-101zM540 276q0 93 -53.5 147.5t-132.5 54.5q-77 0 -131.5 -55.5t-54.5 -147.5q0 -93 54 -148.5t132 -55.5q79 0 132.5 55.5 t53.5 149.5z" />
<glyph unicode="q" horiz-adv-x="676" d="M43 276q0 126 74 203.5t187 77.5q71 0 124.5 -31.5t78.5 -77.5v100h92v-808h-92v361q-26 -46 -80 -78t-126 -32q-110 0 -184 79.5t-74 205.5zM507 275q0 92 -54 147.5t-132 55.5t-131.5 -54.5t-53.5 -147.5q0 -94 53.5 -149.5t131.5 -55.5t132 55.5t54 148.5z" />
<glyph unicode="r" horiz-adv-x="373" d="M168 298v-298h-91v548h91v-89q50 99 177 99v-94h-24q-153 0 -153 -166z" />
<glyph unicode="s" horiz-adv-x="522" d="M471 149q0 -69 -55 -113.5t-145 -44.5q-96 0 -157.5 47.5t-66.5 122.5h94q4 -41 38.5 -67t90.5 -26q52 0 82 23t30 58q0 33 -33.5 53t-81 31.5t-95 27t-81 51t-33.5 92.5q0 65 56 109t145 44q91 0 147 -46t60 -126h-91q-3 43 -34.5 69t-84.5 26q-49 0 -78 -21t-29 -55 q0 -30 23.5 -50.5t59 -30t77 -22.5t77 -27.5t60 -46.5t25.5 -78z" />
<glyph unicode="t" horiz-adv-x="364" d="M97 150v323h-71v75h71v138h91v-138h143v-75h-143v-323q0 -40 17 -56.5t59 -16.5h67v-77h-82q-76 0 -114 35t-38 115z" />
<glyph unicode="u" d="M563 548v-548h-91v81q-26 -42 -73 -65.5t-102 -23.5q-99 0 -162 61t-63 174v321h90v-309q0 -81 41 -124.5t112 -43.5q73 0 115 45t42 131v301h91z" />
<glyph unicode="v" horiz-adv-x="561" d="M12 548h98l171 -464l170 464h97l-215 -548h-106z" />
<glyph unicode="w" horiz-adv-x="820" d="M184 0l-172 548h93l126 -460l136 460h93l133 -461l124 461h90l-171 -548h-94l-132 435l-132 -435h-94z" />
<glyph unicode="x" horiz-adv-x="479" d="M363 0l-130 204l-125 -204h-95l177 272l-177 276h103l130 -203l124 203h95l-176 -271l177 -277h-103z" />
<glyph unicode="y" horiz-adv-x="563" d="M285 104l170 444h94l-330 -806h-94l108 264l-221 542h101z" />
<glyph unicode="z" horiz-adv-x="455" d="M412 548v-74l-267 -399h269v-75h-373v75l266 399h-264v74h369z" />
<glyph unicode="{" horiz-adv-x="462" d="M207 233q0 86 -102 105v71q102 19 102 105q0 38 -10 133.5t-10 138.5q0 72 40.5 110t108.5 38h58v-79h-41q-77 0 -77 -75q0 -37 9.5 -132t9.5 -137q0 -113 -108 -136v-2q108 -24 108 -137q0 -42 -9.5 -137t-9.5 -132q0 -75 77 -75h41v-79h-58q-68 0 -108.5 38t-40.5 110 q0 43 10 138.5t10 133.5z" />
<glyph unicode="|" horiz-adv-x="291" d="M100 795h91v-901h-91v901z" />
<glyph unicode="}" horiz-adv-x="462" d="M255 233q0 -38 10 -133.5t10 -138.5q0 -72 -40.5 -110t-108.5 -38h-58v79h41q77 0 77 75q0 37 -9.5 132t-9.5 137q0 113 108 137v2q-108 23 -108 136q0 42 9.5 137t9.5 132q0 75 -77 75h-41v79h58q68 0 108.5 -38t40.5 -110q0 -43 -10 -138.5t-10 -133.5q0 -86 102 -105 v-71q-102 -19 -102 -105z" />
<glyph unicode="~" horiz-adv-x="519" d="M37 248q26 146 141 146q40 0 91.5 -33t77.5 -33t44.5 17.5t22.5 47.5h68q-25 -146 -142 -146q-40 0 -90 33t-78 33q-26 0 -45 -17.5t-23 -47.5h-67z" />
<glyph unicode="&#xa1;" horiz-adv-x="298" d="M97 -139l11 500h76l11 -500h-98zM210 502q0 -26 -17.5 -44t-42.5 -18q-26 0 -44 18t-18 44t18 44t44 18q25 0 42.5 -18t17.5 -44z" />
<glyph unicode="&#xa2;" horiz-adv-x="665" d="M556 184q-9 -74 -65.5 -123t-143.5 -56v-94h-54v94q-108 9 -168 79.5t-60 177.5t60 177.5t168 79.5v92h54v-92q87 -7 143.5 -56t65.5 -122h-85q-12 48 -50 76t-99 28q-76 0 -123.5 -48.5t-47.5 -134.5t47.5 -134t123.5 -48q61 0 99.5 27.5t49.5 76.5h85z" />
<glyph unicode="&#xa3;" horiz-adv-x="620" d="M108 508q0 96 60 153.5t158 57.5q102 0 157 -59t59 -149h-84q-2 59 -35.5 95t-96.5 36q-58 0 -94.5 -34t-36.5 -104q0 -50 28 -132h194v-64h-174q9 -36 9 -62q0 -95 -71 -172h364v-76h-446l-16 52q42 47 62.5 90t20.5 106q0 26 -9 62h-113v64h91q-27 73 -27 136z" />
<glyph unicode="&#xa4;" horiz-adv-x="537" d="M369 377q0 55 -29.5 87t-72.5 32q-42 0 -70.5 -31.5t-28.5 -87.5t28 -87t71 -31q42 0 72 31.5t30 86.5zM432 170l-60 60q-47 -30 -105 -30q-60 0 -103 29l-59 -59l-42 42l59 59q-30 46 -30 106q0 62 32 107l-61 60l42 42l61 -61q43 29 102 29t103 -29l61 61l41 -42 l-60 -60q33 -44 33 -107q0 -60 -32 -106l59 -59z" />
<glyph unicode="&#xa5;" horiz-adv-x="595" d="M253 263l-28 52l-172 2v66h137l-165 314h102l171 -352l171 352h102l-164 -314h137v-66l-173 -2l-27 -52v-39h200v-67h-200v-157h-91v157h-200v67h200v39z" />
<glyph unicode="&#xa6;" horiz-adv-x="291" d="M100 273h91v-379h-91v379zM191 417h-91v378h91v-378z" />
<glyph unicode="&#xa7;" horiz-adv-x="575" d="M76 555q0 67 55.5 112t149.5 45q92 0 150 -44t60 -122h-91q-3 44 -32.5 72.5t-86.5 28.5q-54 0 -84 -21.5t-30 -62.5q0 -38 33.5 -62.5t127.5 -55.5q101 -33 151 -75t50 -112q0 -56 -35 -99t-103 -64q108 -50 108 -134q0 -67 -55.5 -112t-148.5 -45q-92 0 -150.5 43.5 t-60.5 121.5h91q4 -45 33.5 -73t86.5 -28q113 0 113 86q0 37 -33.5 61t-127.5 55q-102 34 -151.5 76t-49.5 112q0 56 35.5 99.5t102.5 62.5q-108 52 -108 135zM436 258q0 50 -41 82t-109 32t-107.5 -33t-39.5 -81q0 -49 41 -82t110 -33q67 0 106.5 33.5t39.5 81.5z" />
<glyph unicode="&#xa8;" horiz-adv-x="314" d="M76 622q-22 0 -37.5 15t-15.5 37t15.5 37.5t37.5 15.5q21 0 36.5 -15.5t15.5 -37.5t-15.5 -37t-36.5 -15zM238 622q-22 0 -37 15t-15 37t15 37.5t37 15.5t37.5 -15.5t15.5 -37.5t-15.5 -37t-37.5 -15z" />
<glyph unicode="&#xa9;" horiz-adv-x="792" d="M49 349q0 156 97 255.5t251 99.5q153 0 249.5 -99.5t96.5 -255.5t-96.5 -255.5t-249.5 -99.5q-154 0 -251 99.5t-97 255.5zM700 349q0 142 -82 228.5t-221 86.5q-140 0 -222.5 -86.5t-82.5 -228.5t82.5 -229t222.5 -87q138 0 220.5 87t82.5 229zM600 432q-19 71 -74 110 t-131 39q-93 0 -155 -63t-62 -168t62 -168.5t155 -63.5q75 0 130 40.5t75 108.5h-84q-30 -83 -121 -83q-60 0 -98 43t-38 122q0 80 38 123t98 43q44 0 76 -21.5t45 -61.5h84z" />
<glyph unicode="&#xaa;" horiz-adv-x="450" d="M202 347q-72 0 -120.5 51.5t-48.5 131.5q0 79 48 129t119 50q93 0 131 -67v61h72v-350h-72v60q-36 -66 -129 -66zM219 652q-47 0 -79 -33t-32 -90t32 -91t79 -34q48 0 80 33.5t32 90.5t-32 90.5t-80 33.5z" />
<glyph unicode="&#xab;" horiz-adv-x="461" d="M131 295l99 -175h-89l-96 175l96 175h89zM312 295l99 -175h-90l-95 175l95 175h90z" />
<glyph unicode="&#xac;" horiz-adv-x="650" d="M41 360v72h565v-212h-91v140h-474z" />
<glyph unicode="&#xad;" horiz-adv-x="551" d="M58 328v77h399v-77h-399z" />
<glyph unicode="&#xae;" horiz-adv-x="509" d="M255 667q-73 0 -116.5 -46t-43.5 -119t43.5 -119t116.5 -46q72 0 116.5 46t44.5 119t-44.5 119t-116.5 46zM255 297q-89 0 -146 58t-57 147t57 146.5t146 57.5q88 0 145 -57.5t57 -146.5t-57 -147t-145 -58zM345 544q0 -49 -47 -64l56 -83l-63 -1l-48 80h-17v-80h-52v215 h96q34 0 54.5 -18t20.5 -49zM267 564h-41v-45h41q26 0 26 23q0 22 -26 22z" />
<glyph unicode="&#xaf;" horiz-adv-x="387" d="M17 641v68h352v-68h-352z" />
<glyph unicode="&#xb0;" horiz-adv-x="410" d="M28 524q0 79 49.5 127t127.5 48t127 -48t49 -127t-50 -128t-128 -49t-126.5 48.5t-48.5 128.5zM308 524q0 57 -29.5 89.5t-74.5 32.5q-44 0 -73.5 -32.5t-29.5 -89.5q0 -59 28.5 -90.5t73.5 -31.5t75 32t30 90z" />
<glyph unicode="&#xb1;" horiz-adv-x="686" d="M301 624h85v-170h211v-77h-211v-182h211v-77h-509v77h213v182h-213v77h213v170z" />
<glyph unicode="&#xb2;" horiz-adv-x="330" d="M30 603q2 47 36 77t93 30q57 0 91.5 -32t34.5 -78q0 -38 -22 -67.5t-71 -65.5l-79 -56h176v-59h-257v52l109 88q68 56 68 105q0 27 -14.5 42t-37.5 15q-48 0 -54 -51h-73z" />
<glyph unicode="&#xb3;" horiz-adv-x="332" d="M27 611q5 44 41.5 71.5t94.5 27.5q56 0 94 -30t38 -73q0 -30 -17 -50t-45 -28v-2q28 -10 46.5 -31.5t18.5 -51.5q0 -41 -38.5 -69t-99.5 -28q-60 0 -96.5 28t-40.5 79h72q7 -53 64 -53q28 0 44.5 14t16.5 38t-17.5 38t-45.5 14h-43v48h41q29 0 46 13t17 37q0 23 -16 37.5 t-44 14.5q-52 0 -62 -44h-69z" />
<glyph unicode="&#xb4;" horiz-adv-x="247" d="M17 657l213 125v-79l-213 -114v68z" />
<glyph unicode="&#xb5;" horiz-adv-x="645" d="M568 548v-548h-91v100q-26 -54 -73.5 -81.5t-108.5 -27.5q-88 0 -128 63v-314h-90v808h90v-300q0 -87 42.5 -133t113.5 -46t112.5 45t41.5 131v303h91z" />
<glyph unicode="&#xb6;" horiz-adv-x="596" d="M268 692h250v-692h-81v621h-77v-621h-81v286h-11q-117 0 -177 56t-60 146t60.5 147t176.5 57z" />
<glyph unicode="&#xb7;" horiz-adv-x="212" d="M169 341q0 -26 -17.5 -44t-42.5 -18q-26 0 -44 18t-18 44t18 44t44 18q25 0 42.5 -18t17.5 -44z" />
<glyph unicode="&#xb8;" horiz-adv-x="272" d="M125 7v-65q59 1 94 -25t35 -74q0 -47 -34 -75t-88 -28h-115v59h97q64 0 64 44q0 43 -64 43h-50v121h61z" />
<glyph unicode="&#xb9;" horiz-adv-x="196" d="M79 352v296h-54v56h126v-352h-72z" />
<glyph unicode="&#xba;" horiz-adv-x="436" d="M33 528q0 81 52.5 131t132.5 50q81 0 133 -50t52 -131t-53 -131.5t-133 -50.5t-132 50.5t-52 131.5zM329 527q0 59 -32.5 92t-78.5 33q-47 0 -78.5 -33t-31.5 -92q0 -58 31 -90.5t78 -32.5q46 0 79 33t33 90z" />
<glyph unicode="&#xbb;" horiz-adv-x="461" d="M320 120h-89l98 175l-98 175h89l96 -175zM139 120h-89l99 175l-99 175h89l96 -175z" />
<glyph unicode="&#xbc;" d="M62 0l374 698h86l-374 -698h-86zM556 116h48v-47h-48v-69h-72v69h-183v42l158 242h97v-237zM375 116h111v175zM92 352v296h-54v56h126v-352h-72z" />
<glyph unicode="&#xbd;" horiz-adv-x="675" d="M57 0l366 698h86l-365 -698h-87zM90 352v296h-54v56h126v-352h-72zM368 250q2 47 36 77t93 30q57 0 91.5 -32t34.5 -78q0 -38 -22 -67.5t-71 -65.5l-79 -56h176v-59h-257v52l109 88q68 56 68 105q0 27 -14.5 42t-37.5 15q-48 0 -54 -51h-73z" />
<glyph unicode="&#xbe;" horiz-adv-x="709" d="M143 0l388 698h86l-389 -698h-85zM635 116h47v-47h-47v-69h-72v69h-183v42l158 242h97v-237zM453 116h111v175zM39 611q5 44 41.5 71.5t94.5 27.5q56 0 94 -30t38 -73q0 -30 -17 -50t-45 -28v-2q28 -10 46.5 -31.5t18.5 -51.5q0 -41 -38.5 -69t-99.5 -28q-60 0 -96.5 28 t-40.5 79h72q7 -53 64 -53q28 0 44.5 14t16.5 38t-17.5 38t-45.5 14h-43v48h41q29 0 46 13t17 37q0 23 -16 37.5t-44 14.5q-52 0 -62 -44h-69z" />
<glyph unicode="&#xbf;" horiz-adv-x="519" d="M485 45q1 -91 -59.5 -146t-158.5 -55q-99 0 -160 56t-61 150q0 105 65 155.5t176 50.5l3 95h79l4 -158h-29q-99 0 -155 -30t-56 -113q0 -60 36 -95t97 -35q62 0 97.5 33.5t35.5 91.5h86zM270 494q0 26 17.5 44t42.5 18q26 0 44 -18t18 -44t-18 -44t-44 -18 q-25 0 -42.5 18t-17.5 44z" />
<glyph unicode="&#xc0;" horiz-adv-x="674" d="M545 0l-56 155h-304l-56 -155h-96l252 693h105l251 -693h-96zM463 229l-126 352l-126 -352h252zM224 851l45 66l163 -102l-45 -63z" />
<glyph unicode="&#xc1;" horiz-adv-x="674" d="M545 0l-56 155h-304l-56 -155h-96l252 693h105l251 -693h-96zM463 229l-126 352l-126 -352h252zM427 917l45 -66l-163 -99l-45 63z" />
<glyph unicode="&#xc2;" horiz-adv-x="674" d="M545 0l-56 155h-304l-56 -155h-96l252 693h105l251 -693h-96zM463 229l-126 352l-126 -352h252zM338 893l148 -95l-45 -56l-103 65l-103 -65l-45 56z" />
<glyph unicode="&#xc3;" horiz-adv-x="674" d="M545 0l-56 155h-304l-56 -155h-96l252 693h105l251 -693h-96zM463 229l-126 352l-126 -352h252zM265 763h-69q2 50 25 79.5t63 29.5q33 0 64 -19q4 -3 10.5 -7.5t10 -7t8.5 -4.5t10 -2q12 0 21 10t9 29h69q0 -51 -24 -80t-65 -29q-34 0 -65 22q-27 19 -38 19 q-29 0 -29 -40z" />
<glyph unicode="&#xc4;" horiz-adv-x="674" d="M545 0l-56 155h-304l-56 -155h-96l252 693h105l251 -693h-96zM257 767q-22 0 -37.5 15t-15.5 37t15.5 37.5t37.5 15.5q21 0 36.5 -15.5t15.5 -37.5t-15.5 -37t-36.5 -15zM419 767q-22 0 -37 15t-15 37t15 37.5t37 15.5t37.5 -15.5t15.5 -37.5t-15.5 -37t-37.5 -15z M463 229l-126 352l-126 -352h252z" />
<glyph unicode="&#xc5;" horiz-adv-x="674" d="M545 0l-56 155h-304l-56 -155h-96l252 693h105l251 -693h-96zM338 801q23 0 38.5 16t15.5 41t-15.5 40.5t-38.5 15.5t-38.5 -15.5t-15.5 -40.5t15.5 -41t38.5 -16zM338 962q46 0 76.5 -28.5t30.5 -76.5t-30.5 -76.5t-76.5 -28.5q-45 0 -76 29t-31 76t31 76t76 29z M463 229l-126 352l-126 -352h252z" />
<glyph unicode="&#xc6;" horiz-adv-x="900" d="M465 629l-227 -403h227v403zM838 626h-282v-239h252v-70h-252v-245h282v-72h-373v155h-267l-87 -155h-99l395 698h431v-72z" />
<glyph unicode="&#xc7;" horiz-adv-x="772" d="M43 349q0 155 100 256t248 101q114 0 199 -55t124 -156h-109q-59 131 -214 131q-112 0 -183.5 -75.5t-71.5 -201.5q0 -125 72 -200.5t183 -75.5q154 0 214 130h109q-36 -92 -111.5 -146t-176.5 -62v-53q59 1 94 -25t35 -74q0 -47 -34 -75t-88 -28h-115v59h97q64 0 64 44 q0 43 -64 43h-50v109q-139 9 -230.5 107.5t-91.5 246.5z" />
<glyph unicode="&#xc8;" horiz-adv-x="513" d="M452 698v-75h-284v-233h254v-75h-254v-240h284v-75h-375v698h375zM153 851l45 66l163 -102l-45 -63z" />
<glyph unicode="&#xc9;" horiz-adv-x="513" d="M452 698v-75h-284v-233h254v-75h-254v-240h284v-75h-375v698h375zM367 917l45 -66l-163 -99l-45 63z" />
<glyph unicode="&#xca;" horiz-adv-x="513" d="M452 698v-75h-284v-233h254v-75h-254v-240h284v-75h-375v698h375zM266 893l148 -95l-45 -56l-103 65l-103 -65l-45 56z" />
<glyph unicode="&#xcb;" horiz-adv-x="513" d="M452 698v-75h-284v-233h254v-75h-254v-240h284v-75h-375v698h375zM174 767q-22 0 -37.5 15t-15.5 37t15.5 37.5t37.5 15.5q21 0 36.5 -15.5t15.5 -37.5t-15.5 -37t-36.5 -15zM336 767q-22 0 -37 15t-15 37t15 37.5t37 15.5t37.5 -15.5t15.5 -37.5t-15.5 -37t-37.5 -15z " />
<glyph unicode="&#xcc;" horiz-adv-x="246" d="M77 0v697h91v-697h-91zM2 851l45 66l163 -102l-45 -63z" />
<glyph unicode="&#xcd;" horiz-adv-x="246" d="M77 0v697h91v-697h-91zM197 917l45 -66l-163 -99l-45 63z" />
<glyph unicode="&#xce;" horiz-adv-x="246" d="M77 0v697h91v-697h-91zM261 814v-72l-138 85l-139 -85v72l139 83z" />
<glyph unicode="&#xcf;" horiz-adv-x="246" d="M77 0v697h91v-697h-91zM42 767q-22 0 -37.5 15t-15.5 37t15.5 37.5t37.5 15.5q21 0 36.5 -15.5t15.5 -37.5t-15.5 -37t-36.5 -15zM204 767q-22 0 -37 15t-15 37t15 37.5t37 15.5t37.5 -15.5t15.5 -37.5t-15.5 -37t-37.5 -15z" />
<glyph unicode="&#xd0;" horiz-adv-x="725" d="M313 697q171 0 270 -94t99 -256t-99 -254.5t-270 -92.5h-217v305h-87v84h87v308h217zM187 70h126q134 0 205 73.5t71 203.5t-71 203t-205 73h-126v-234h192v-84h-192v-235z" />
<glyph unicode="&#xd1;" horiz-adv-x="703" d="M534 698h91v-698h-91l-366 555v-555h-91v698h91l366 -554v554zM205 752q7 51 33.5 78t66.5 27q28 0 61.5 -23t52.5 -23q38 0 44 43h52q-6 -50 -33 -77t-67 -27q-29 0 -62.5 23t-51.5 23q-37 0 -43 -44h-53z" />
<glyph unicode="&#xd2;" horiz-adv-x="786" d="M743 349q0 -155 -100.5 -255.5t-249.5 -100.5t-249.5 100.5t-100.5 255.5t100.5 255.5t249.5 100.5t249.5 -100.5t100.5 -255.5zM136 349q0 -125 72.5 -201t184.5 -76t184.5 76t72.5 201q0 126 -72.5 201.5t-184.5 75.5t-184.5 -75.5t-72.5 -201.5zM284 851l45 66 l163 -102l-45 -63z" />
<glyph unicode="&#xd3;" horiz-adv-x="786" d="M743 349q0 -155 -100.5 -255.5t-249.5 -100.5t-249.5 100.5t-100.5 255.5t100.5 255.5t249.5 100.5t249.5 -100.5t100.5 -255.5zM136 349q0 -125 72.5 -201t184.5 -76t184.5 76t72.5 201q0 126 -72.5 201.5t-184.5 75.5t-184.5 -75.5t-72.5 -201.5zM507 917l45 -66 l-163 -99l-45 63z" />
<glyph unicode="&#xd4;" horiz-adv-x="786" d="M743 349q0 -155 -100.5 -255.5t-249.5 -100.5t-249.5 100.5t-100.5 255.5t100.5 255.5t249.5 100.5t249.5 -100.5t100.5 -255.5zM136 349q0 -125 72.5 -201t184.5 -76t184.5 76t72.5 201q0 126 -72.5 201.5t-184.5 75.5t-184.5 -75.5t-72.5 -201.5zM396 893l148 -95 l-45 -56l-103 65l-103 -65l-45 56z" />
<glyph unicode="&#xd5;" horiz-adv-x="786" d="M743 349q0 -155 -100.5 -255.5t-249.5 -100.5t-249.5 100.5t-100.5 255.5t100.5 255.5t249.5 100.5t249.5 -100.5t100.5 -255.5zM136 349q0 -125 72.5 -201t184.5 -76t184.5 76t72.5 201q0 126 -72.5 201.5t-184.5 75.5t-184.5 -75.5t-72.5 -201.5zM322 763h-69 q2 50 25 79.5t63 29.5q33 0 64 -19q4 -3 10.5 -7.5t10 -7t8.5 -4.5t10 -2q12 0 21 10t9 29h69q0 -51 -24 -80t-65 -29q-34 0 -65 22q-27 19 -38 19q-29 0 -29 -40z" />
<glyph unicode="&#xd6;" horiz-adv-x="786" d="M743 349q0 -155 -100.5 -255.5t-249.5 -100.5t-249.5 100.5t-100.5 255.5t100.5 255.5t249.5 100.5t249.5 -100.5t100.5 -255.5zM136 349q0 -125 72.5 -201t184.5 -76t184.5 76t72.5 201q0 126 -72.5 201.5t-184.5 75.5t-184.5 -75.5t-72.5 -201.5zM315 767 q-22 0 -37.5 15t-15.5 37t15.5 37.5t37.5 15.5q21 0 36.5 -15.5t15.5 -37.5t-15.5 -37t-36.5 -15zM477 767q-22 0 -37 15t-15 37t15 37.5t37 15.5t37.5 -15.5t15.5 -37.5t-15.5 -37t-37.5 -15z" />
<glyph unicode="&#xd7;" horiz-adv-x="643" d="M163 150l-60 60l159 159l-156 156l58 59l157 -157l157 157l60 -60l-157 -157l158 -159l-58 -58l-159 159z" />
<glyph unicode="&#xd8;" horiz-adv-x="786" d="M743 349q0 -155 -100.5 -255.5t-249.5 -100.5q-127 0 -221 75l-63 -68h-74l97 106q-89 100 -89 243q0 155 100.5 255.5t249.5 100.5q129 0 221 -75l63 68h74l-97 -105q89 -99 89 -244zM136 349q0 -108 55 -180l367 400q-68 57 -165 57q-112 0 -184.5 -75.5t-72.5 -201.5z M393 72q112 0 184.5 76t72.5 201q0 107 -54 180l-368 -400q68 -57 165 -57z" />
<glyph unicode="&#xd9;" horiz-adv-x="675" d="M75 257v440h91v-441q0 -93 45.5 -138t126.5 -45q80 0 125.5 45t45.5 138v441h91v-440q0 -129 -74 -196.5t-189 -67.5t-188.5 67t-73.5 197zM214 851l45 66l163 -102l-45 -63z" />
<glyph unicode="&#xda;" horiz-adv-x="675" d="M75 257v440h91v-441q0 -93 45.5 -138t126.5 -45q80 0 125.5 45t45.5 138v441h91v-440q0 -129 -74 -196.5t-189 -67.5t-188.5 67t-73.5 197zM447 917l45 -66l-163 -99l-45 63z" />
<glyph unicode="&#xdb;" horiz-adv-x="675" d="M75 257v440h91v-441q0 -93 45.5 -138t126.5 -45q80 0 125.5 45t45.5 138v441h91v-440q0 -129 -74 -196.5t-189 -67.5t-188.5 67t-73.5 197zM476 814v-72l-138 85l-139 -85v72l139 83z" />
<glyph unicode="&#xdc;" horiz-adv-x="675" d="M75 257v440h91v-441q0 -93 45.5 -138t126.5 -45q80 0 125.5 45t45.5 138v441h91v-440q0 -129 -74 -196.5t-189 -67.5t-188.5 67t-73.5 197zM257 767q-22 0 -37.5 15t-15.5 37t15.5 37.5t37.5 15.5q21 0 36.5 -15.5t15.5 -37.5t-15.5 -37t-36.5 -15zM419 767q-22 0 -37 15 t-15 37t15 37.5t37 15.5t37.5 -15.5t15.5 -37.5t-15.5 -37t-37.5 -15z" />
<glyph unicode="&#xdd;" horiz-adv-x="584" d="M247 263l-228 434h101l172 -353l172 353h101l-227 -434v-263h-91v263zM407 917l45 -66l-163 -99l-45 63z" />
<glyph unicode="&#xde;" horiz-adv-x="579" d="M168 219h134q75 0 111.5 34.5t36.5 95.5q0 132 -148 132h-134v-262zM543 349q0 -88 -59.5 -145.5t-181.5 -57.5h-134v-146h-91v698h91v-145h134q118 0 179.5 -57t61.5 -147z" />
<glyph unicode="&#xdf;" horiz-adv-x="681" d="M60 0v561q0 93 59.5 151.5t175.5 58.5q103 0 161 -48.5t58 -117.5q0 -34 -14.5 -64t-35 -50t-41.5 -37t-35.5 -34t-14.5 -33q0 -22 23 -38t88 -38q73 -24 106 -62.5t33 -97.5q0 -72 -50.5 -116.5t-139.5 -44.5q-87 0 -142 48t-62 132h92q3 -49 32.5 -78t79.5 -29 q47 0 72 21t25 60q0 36 -22 58t-77 40q-81 27 -115.5 57t-34.5 76q0 28 14.5 53.5t35.5 44.5t42 37.5t35.5 41t14.5 46.5q0 45 -34.5 70.5t-94.5 25.5q-143 0 -143 -144v-550h-91z" />
<glyph unicode="&#xe0;" horiz-adv-x="676" d="M43 276q0 126 74 203.5t186 77.5q72 0 125 -31t79 -78v100h92v-548h-92v102q-27 -48 -80.5 -79.5t-124.5 -31.5q-111 0 -185 79.5t-74 205.5zM507 275q0 92 -54 147.5t-132 55.5t-131.5 -54.5t-53.5 -147.5q0 -94 53.5 -149.5t131.5 -55.5t132 55.5t54 148.5zM232 722 l45 66l163 -102l-45 -63z" />
<glyph unicode="&#xe1;" horiz-adv-x="676" d="M43 276q0 126 74 203.5t186 77.5q72 0 125 -31t79 -78v100h92v-548h-92v102q-27 -48 -80.5 -79.5t-124.5 -31.5q-111 0 -185 79.5t-74 205.5zM507 275q0 92 -54 147.5t-132 55.5t-131.5 -54.5t-53.5 -147.5q0 -94 53.5 -149.5t131.5 -55.5t132 55.5t54 148.5zM444 788 l45 -66l-163 -99l-45 63z" />
<glyph unicode="&#xe2;" horiz-adv-x="676" d="M43 276q0 126 74 203.5t186 77.5q72 0 125 -31t79 -78v100h92v-548h-92v102q-27 -48 -80.5 -79.5t-124.5 -31.5q-111 0 -185 79.5t-74 205.5zM507 275q0 92 -54 147.5t-132 55.5t-131.5 -54.5t-53.5 -147.5q0 -94 53.5 -149.5t131.5 -55.5t132 55.5t54 148.5zM340 764 l148 -95l-45 -56l-103 65l-103 -65l-45 56z" />
<glyph unicode="&#xe3;" horiz-adv-x="676" d="M43 276q0 126 74 203.5t186 77.5q72 0 125 -31t79 -78v100h92v-548h-92v102q-27 -48 -80.5 -79.5t-124.5 -31.5q-111 0 -185 79.5t-74 205.5zM507 275q0 92 -54 147.5t-132 55.5t-131.5 -54.5t-53.5 -147.5q0 -94 53.5 -149.5t131.5 -55.5t132 55.5t54 148.5zM276 634 h-69q2 50 25 79.5t63 29.5q33 0 64 -19q4 -3 10.5 -7.5t10 -7t8.5 -4.5t10 -2q12 0 21 10t9 29h69q0 -51 -24 -80t-65 -29q-34 0 -65 22q-27 19 -38 19q-29 0 -29 -40z" />
<glyph unicode="&#xe4;" horiz-adv-x="676" d="M43 276q0 126 74 203.5t186 77.5q72 0 125 -31t79 -78v100h92v-548h-92v102q-27 -48 -80.5 -79.5t-124.5 -31.5q-111 0 -185 79.5t-74 205.5zM507 275q0 92 -54 147.5t-132 55.5t-131.5 -54.5t-53.5 -147.5q0 -94 53.5 -149.5t131.5 -55.5t132 55.5t54 148.5zM258 622 q-22 0 -37.5 15t-15.5 37t15.5 37.5t37.5 15.5q21 0 36.5 -15.5t15.5 -37.5t-15.5 -37t-36.5 -15zM420 622q-22 0 -37 15t-15 37t15 37.5t37 15.5t37.5 -15.5t15.5 -37.5t-15.5 -37t-37.5 -15z" />
<glyph unicode="&#xe5;" horiz-adv-x="676" d="M43 276q0 126 74 203.5t186 77.5q72 0 125 -31t79 -78v100h92v-548h-92v102q-27 -48 -80.5 -79.5t-124.5 -31.5q-111 0 -185 79.5t-74 205.5zM507 275q0 92 -54 147.5t-132 55.5t-131.5 -54.5t-53.5 -147.5q0 -94 53.5 -149.5t131.5 -55.5t132 55.5t54 148.5zM339 817 q46 0 76.5 -28.5t30.5 -76.5t-30.5 -76.5t-76.5 -28.5q-45 0 -76 29t-31 76t31 76t76 29zM339 656q23 0 38.5 16t15.5 41t-15.5 40.5t-38.5 15.5t-38.5 -15.5t-15.5 -40.5t15.5 -41t38.5 -16z" />
<glyph unicode="&#xe6;" horiz-adv-x="1097" d="M784 480q-72 0 -124.5 -46t-59.5 -125h361q1 79 -50 125t-127 46zM1043 169q-22 -79 -86 -128.5t-159 -49.5q-67 0 -123.5 31t-85.5 84v-106h-79v105q-30 -51 -84 -82.5t-123 -31.5q-112 0 -186 79.5t-74 205.5q0 127 74.5 204t190.5 77q136 0 205 -110v101h76v-101 q71 110 209 110q115 0 186 -74.5t71 -185.5q0 -29 -4 -54h-451q7 -83 60.5 -129t122.5 -46q64 0 106 27.5t56 73.5h98zM136 276q0 -94 53.5 -149.5t131.5 -55.5t132 55.5t54 148.5q0 92 -54 147.5t-132 55.5t-131.5 -54.5t-53.5 -147.5z" />
<glyph unicode="&#xe7;" horiz-adv-x="607" d="M43 275q0 128 74.5 205t192.5 77q101 0 166.5 -49t86.5 -136h-98q-14 50 -54.5 79t-100.5 29q-78 0 -126 -53.5t-48 -151.5q0 -99 48 -153t126 -54q124 0 155 108h98q-20 -78 -78.5 -127.5t-146.5 -56.5v-50q59 1 94 -25t35 -74q0 -47 -34 -75t-88 -28h-115v59h97 q64 0 64 44q0 43 -64 43h-50v107q-105 11 -169.5 87t-64.5 195z" />
<glyph unicode="&#xe8;" horiz-adv-x="620" d="M310 480q-69 0 -117.5 -44t-55.5 -122h346q1 77 -49 121.5t-124 44.5zM566 169q-22 -79 -88 -128.5t-164 -49.5q-119 0 -195 77.5t-76 206.5t75 205.5t196 76.5q118 0 190.5 -74t72.5 -188q0 -27 -3 -55h-438q5 -81 55.5 -126.5t122.5 -45.5q59 0 98.5 27.5t55.5 73.5h98 zM201 722l45 66l163 -102l-45 -63z" />
<glyph unicode="&#xe9;" horiz-adv-x="620" d="M310 480q-69 0 -117.5 -44t-55.5 -122h346q1 77 -49 121.5t-124 44.5zM566 169q-22 -79 -88 -128.5t-164 -49.5q-119 0 -195 77.5t-76 206.5t75 205.5t196 76.5q118 0 190.5 -74t72.5 -188q0 -27 -3 -55h-438q5 -81 55.5 -126.5t122.5 -45.5q59 0 98.5 27.5t55.5 73.5h98 zM424 788l45 -66l-163 -99l-45 63z" />
<glyph unicode="&#xea;" horiz-adv-x="620" d="M310 480q-69 0 -117.5 -44t-55.5 -122h346q1 77 -49 121.5t-124 44.5zM566 169q-22 -79 -88 -128.5t-164 -49.5q-119 0 -195 77.5t-76 206.5t75 205.5t196 76.5q118 0 190.5 -74t72.5 -188q0 -27 -3 -55h-438q5 -81 55.5 -126.5t122.5 -45.5q59 0 98.5 27.5t55.5 73.5h98 zM317 764l148 -95l-45 -56l-103 65l-103 -65l-45 56z" />
<glyph unicode="&#xeb;" horiz-adv-x="620" d="M310 480q-69 0 -117.5 -44t-55.5 -122h346q1 77 -49 121.5t-124 44.5zM566 169q-22 -79 -88 -128.5t-164 -49.5q-119 0 -195 77.5t-76 206.5t75 205.5t196 76.5q118 0 190.5 -74t72.5 -188q0 -27 -3 -55h-438q5 -81 55.5 -126.5t122.5 -45.5q59 0 98.5 27.5t55.5 73.5h98 zM229 622q-22 0 -37.5 15t-15.5 37t15.5 37.5t37.5 15.5q21 0 36.5 -15.5t15.5 -37.5t-15.5 -37t-36.5 -15zM391 622q-22 0 -37 15t-15 37t15 37.5t37 15.5t37.5 -15.5t15.5 -37.5t-15.5 -37t-37.5 -15z" />
<glyph unicode="&#xec;" horiz-adv-x="246" d="M77 0v548h91v-548h-91zM1 722l45 66l163 -102l-45 -63z" />
<glyph unicode="&#xed;" horiz-adv-x="246" d="M77 0v548h91v-548h-91zM194 788l45 -66l-163 -99l-45 63z" />
<glyph unicode="&#xee;" horiz-adv-x="246" d="M77 0v548h91v-548h-91zM261 669v-72l-138 85l-139 -85v72l139 83z" />
<glyph unicode="&#xef;" horiz-adv-x="246" d="M77 0v548h91v-548h-91zM42 622q-22 0 -37.5 15t-15.5 37t15.5 37.5t37.5 15.5q21 0 36.5 -15.5t15.5 -37.5t-15.5 -37t-36.5 -15zM204 622q-22 0 -37 15t-15 37t15 37.5t37 15.5t37.5 -15.5t15.5 -37.5t-15.5 -37t-37.5 -15z" />
<glyph unicode="&#xf0;" horiz-adv-x="638" d="M261 644l94 32q-32 31 -73 64h93q40 -35 46 -41l131 44v-51l-94 -32q138 -153 138 -345q0 -156 -77.5 -240t-202.5 -84q-121 0 -197 79t-76 208q0 126 76 203t192 77q119 0 181 -92q-32 95 -101 172l-130 -44v50zM136 278q0 -99 51 -154.5t129 -55.5t132 55t54 152 t-53.5 151.5t-130.5 54.5q-78 0 -130 -53.5t-52 -149.5z" />
<glyph unicode="&#xf1;" d="M168 303v-303h-91v548h91v-78q27 42 73.5 65t102.5 23q100 0 162 -60.5t62 -174.5v-323h-90v310q0 82 -41 125.5t-112 43.5q-72 0 -114.5 -45t-42.5 -131zM175 607q7 51 33.5 78t66.5 27q28 0 61.5 -23t52.5 -23q38 0 44 43h52q-6 -50 -33 -77t-67 -27q-29 0 -62.5 23 t-51.5 23q-37 0 -43 -44h-53z" />
<glyph unicode="&#xf2;" d="M597 275q0 -128 -80.5 -206t-200.5 -78q-118 0 -195.5 78t-77.5 206q0 127 79 204.5t198 77.5q120 0 198.5 -77.5t78.5 -204.5zM136 275q0 -99 52 -151.5t128 -52.5q78 0 133 53t55 151t-54 150.5t-131 52.5t-130 -52.5t-53 -150.5zM201 722l45 66l163 -102l-45 -63z" />
<glyph unicode="&#xf3;" d="M597 275q0 -128 -80.5 -206t-200.5 -78q-118 0 -195.5 78t-77.5 206q0 127 79 204.5t198 77.5q120 0 198.5 -77.5t78.5 -204.5zM136 275q0 -99 52 -151.5t128 -52.5q78 0 133 53t55 151t-54 150.5t-131 52.5t-130 -52.5t-53 -150.5zM434 788l45 -66l-163 -99l-45 63z" />
<glyph unicode="&#xf4;" d="M597 275q0 -128 -80.5 -206t-200.5 -78q-118 0 -195.5 78t-77.5 206q0 127 79 204.5t198 77.5q120 0 198.5 -77.5t78.5 -204.5zM136 275q0 -99 52 -151.5t128 -52.5q78 0 133 53t55 151t-54 150.5t-131 52.5t-130 -52.5t-53 -150.5zM321 764l148 -95l-45 -56l-103 65 l-103 -65l-45 56z" />
<glyph unicode="&#xf5;" d="M597 275q0 -128 -80.5 -206t-200.5 -78q-118 0 -195.5 78t-77.5 206q0 127 79 204.5t198 77.5q120 0 198.5 -77.5t78.5 -204.5zM136 275q0 -99 52 -151.5t128 -52.5q78 0 133 53t55 151t-54 150.5t-131 52.5t-130 -52.5t-53 -150.5zM253 634h-69q2 50 25 79.5t63 29.5 q33 0 64 -19q4 -3 10.5 -7.5t10 -7t8.5 -4.5t10 -2q12 0 21 10t9 29h69q0 -51 -24 -80t-65 -29q-34 0 -65 22q-27 19 -38 19q-29 0 -29 -40z" />
<glyph unicode="&#xf6;" d="M597 275q0 -128 -80.5 -206t-200.5 -78q-118 0 -195.5 78t-77.5 206q0 127 79 204.5t198 77.5q120 0 198.5 -77.5t78.5 -204.5zM136 275q0 -99 52 -151.5t128 -52.5q78 0 133 53t55 151t-54 150.5t-131 52.5t-130 -52.5t-53 -150.5zM240 629q-22 0 -37.5 15t-15.5 37 t15.5 37.5t37.5 15.5q21 0 36.5 -15.5t15.5 -37.5t-15.5 -37t-36.5 -15zM402 629q-22 0 -37 15t-15 37t15 37.5t37 15.5t37.5 -15.5t15.5 -37.5t-15.5 -37t-37.5 -15z" />
<glyph unicode="&#xf7;" horiz-adv-x="657" d="M78 328v77h510v-77h-510zM395 153q0 -26 -17.5 -44t-42.5 -18q-26 0 -44 18t-18 44t18 44t44 18q25 0 42.5 -18t17.5 -44zM395 582q0 -26 -17.5 -44t-42.5 -18q-26 0 -44 18t-18 44t18 44t44 18q25 0 42.5 -18t17.5 -44z" />
<glyph unicode="&#xf8;" d="M597 275q0 -128 -80.5 -206t-200.5 -78q-97 0 -171 55l-42 -46h-65l72 79q-67 78 -67 196q0 127 79 204.5t198 77.5q101 0 175 -57l43 48h65l-73 -80q67 -77 67 -193zM136 275q0 -77 35 -130l266 292q-48 41 -118 41q-77 0 -130 -52.5t-53 -150.5zM316 71q78 0 133 53 t55 151q0 77 -35 126l-266 -292q47 -38 113 -38z" />
<glyph unicode="&#xf9;" d="M563 548v-548h-91v81q-26 -42 -73 -65.5t-102 -23.5q-99 0 -162 61t-63 174v321h90v-309q0 -81 41 -124.5t112 -43.5q73 0 115 45t42 131v301h91zM191 722l45 66l163 -102l-45 -63z" />
<glyph unicode="&#xfa;" d="M563 548v-548h-91v81q-26 -42 -73 -65.5t-102 -23.5q-99 0 -162 61t-63 174v321h90v-309q0 -81 41 -124.5t112 -43.5q73 0 115 45t42 131v301h91zM434 788l45 -66l-163 -99l-45 63z" />
<glyph unicode="&#xfb;" d="M563 548v-548h-91v81q-26 -42 -73 -65.5t-102 -23.5q-99 0 -162 61t-63 174v321h90v-309q0 -81 41 -124.5t112 -43.5q73 0 115 45t42 131v301h91zM459 669v-72l-138 85l-139 -85v72l139 83z" />
<glyph unicode="&#xfc;" d="M563 548v-548h-91v81q-26 -42 -73 -65.5t-102 -23.5q-99 0 -162 61t-63 174v321h90v-309q0 -81 41 -124.5t112 -43.5q73 0 115 45t42 131v301h91zM240 622q-22 0 -37.5 15t-15.5 37t15.5 37.5t37.5 15.5q21 0 36.5 -15.5t15.5 -37.5t-15.5 -37t-36.5 -15zM402 622 q-22 0 -37 15t-15 37t15 37.5t37 15.5t37.5 -15.5t15.5 -37.5t-15.5 -37t-37.5 -15z" />
<glyph unicode="&#xfd;" horiz-adv-x="563" d="M285 104l170 444h94l-330 -806h-94l108 264l-221 542h101zM384 788l45 -66l-163 -99l-45 63z" />
<glyph unicode="&#xfe;" horiz-adv-x="676" d="M168 432q26 56 79.5 90.5t125.5 34.5q112 0 186 -77.5t74 -203.5t-74 -205.5t-186 -79.5q-72 0 -125 35.5t-80 93.5v-380h-91v1000h91v-308zM540 276q0 93 -53.5 147.5t-132.5 54.5q-77 0 -131.5 -55.5t-54.5 -147.5q0 -93 54 -148.5t132 -55.5q79 0 132.5 55.5 t53.5 149.5z" />
<glyph unicode="&#xff;" horiz-adv-x="563" d="M285 104l170 444h94l-330 -806h-94l108 264l-221 542h101zM201 622q-22 0 -37.5 15t-15.5 37t15.5 37.5t37.5 15.5q21 0 36.5 -15.5t15.5 -37.5t-15.5 -37t-36.5 -15zM363 622q-22 0 -37 15t-15 37t15 37.5t37 15.5t37.5 -15.5t15.5 -37.5t-15.5 -37t-37.5 -15z" />
<glyph unicode="&#x100;" horiz-adv-x="674" d="M545 0l-56 155h-304l-56 -155h-96l252 693h105l251 -693h-96zM161 786v68h352v-68h-352zM463 229l-126 352l-126 -352h252z" />
<glyph unicode="&#x101;" horiz-adv-x="676" d="M43 276q0 126 74 203.5t186 77.5q72 0 125 -31t79 -78v100h92v-548h-92v102q-27 -48 -80.5 -79.5t-124.5 -31.5q-111 0 -185 79.5t-74 205.5zM507 275q0 92 -54 147.5t-132 55.5t-131.5 -54.5t-53.5 -147.5q0 -94 53.5 -149.5t131.5 -55.5t132 55.5t54 148.5zM163 641v68 h352v-68h-352z" />
<glyph unicode="&#x102;" horiz-adv-x="674" d="M545 0l-56 155h-304l-56 -155h-96l252 693h105l251 -693h-96zM463 229l-126 352l-126 -352h252zM200 866h72q0 -60 66 -60q67 0 67 60h72q0 -58 -36 -93.5t-103 -35.5t-102.5 35.5t-35.5 93.5z" />
<glyph unicode="&#x103;" horiz-adv-x="676" d="M43 276q0 126 74 203.5t186 77.5q72 0 125 -31t79 -78v100h92v-548h-92v102q-27 -48 -80.5 -79.5t-124.5 -31.5q-111 0 -185 79.5t-74 205.5zM507 275q0 92 -54 147.5t-132 55.5t-131.5 -54.5t-53.5 -147.5q0 -94 53.5 -149.5t131.5 -55.5t132 55.5t54 148.5zM211 741h72 q0 -60 66 -60q67 0 67 60h72q0 -58 -36 -93.5t-103 -35.5t-102.5 35.5t-35.5 93.5z" />
<glyph unicode="&#x104;" horiz-adv-x="674" d="M285 693h105l251 -693l-54 -27q-61 -29 -61 -70q0 -23 16 -35.5t43 -12.5q29 0 65 13v-60q-38 -14 -76 -14q-51 0 -87 24.5t-36 75.5q0 69 90 118l-52 143h-304l-56 -155h-96zM463 229l-126 352l-126 -352h252z" />
<glyph unicode="&#x105;" horiz-adv-x="676" d="M43 276q0 126 74 203.5t186 77.5q72 0 125 -31t79 -78v100h92v-548l-55 -27q-60 -29 -60 -70q0 -23 16 -35.5t43 -12.5q28 0 65 13v-60q-40 -14 -77 -14q-51 0 -86.5 24.5t-35.5 75.5q0 71 98 123v85q-27 -48 -80.5 -79.5t-124.5 -31.5q-111 0 -185 79.5t-74 205.5z M507 275q0 92 -54 147.5t-132 55.5t-131.5 -54.5t-53.5 -147.5q0 -94 53.5 -149.5t131.5 -55.5t132 55.5t54 148.5z" />
<glyph unicode="&#x106;" horiz-adv-x="772" d="M43 349q0 155 100 256t248 101q114 0 199 -55t124 -156h-109q-59 131 -214 131q-112 0 -183.5 -75.5t-71.5 -201.5q0 -125 72 -200.5t183 -75.5q154 0 214 130h109q-39 -100 -124 -154.5t-199 -54.5q-148 0 -248 100t-100 255zM281 808l213 125v-79l-213 -114v68z" />
<glyph unicode="&#x107;" horiz-adv-x="607" d="M43 275q0 128 74.5 205t192.5 77q101 0 166.5 -49t86.5 -136h-98q-14 50 -54.5 79t-100.5 29q-78 0 -126 -53.5t-48 -151.5q0 -99 48 -153t126 -54q124 0 155 108h98q-22 -84 -88 -134.5t-165 -50.5q-118 0 -192.5 77.5t-74.5 206.5zM189 657l213 125v-79l-213 -114v68z " />
<glyph unicode="&#x10a;" horiz-adv-x="772" d="M43 349q0 155 100 256t248 101q114 0 199 -55t124 -156h-109q-59 131 -214 131q-112 0 -183.5 -75.5t-71.5 -201.5q0 -125 72 -200.5t183 -75.5q154 0 214 130h109q-39 -100 -124 -154.5t-199 -54.5q-148 0 -248 100t-100 255zM397 767q-22 0 -37.5 15t-15.5 37 t15.5 37.5t37.5 15.5t37 -15.5t15 -37.5t-15 -37t-37 -15z" />
<glyph unicode="&#x10b;" horiz-adv-x="607" d="M43 275q0 128 74.5 205t192.5 77q101 0 166.5 -49t86.5 -136h-98q-14 50 -54.5 79t-100.5 29q-78 0 -126 -53.5t-48 -151.5q0 -99 48 -153t126 -54q124 0 155 108h98q-22 -84 -88 -134.5t-165 -50.5q-118 0 -192.5 77.5t-74.5 206.5zM304 617q-22 0 -37.5 15t-15.5 37 t15.5 37.5t37.5 15.5t37 -15.5t15 -37.5t-15 -37t-37 -15z" />
<glyph unicode="&#x10c;" horiz-adv-x="772" d="M43 349q0 155 100 256t248 101q114 0 199 -55t124 -156h-109q-59 131 -214 131q-112 0 -183.5 -75.5t-71.5 -201.5q0 -125 72 -200.5t183 -75.5q154 0 214 130h109q-39 -100 -124 -154.5t-199 -54.5q-148 0 -248 100t-100 255zM397 817l138 85v-72l-138 -82l-139 82v72z " />
<glyph unicode="&#x10d;" horiz-adv-x="607" d="M43 275q0 128 74.5 205t192.5 77q101 0 166.5 -49t86.5 -136h-98q-14 50 -54.5 79t-100.5 29q-78 0 -126 -53.5t-48 -151.5q0 -99 48 -153t126 -54q124 0 155 108h98q-22 -84 -88 -134.5t-165 -50.5q-118 0 -192.5 77.5t-74.5 206.5zM304 666l138 85v-72l-138 -82 l-139 82v72z" />
<glyph unicode="&#x10e;" horiz-adv-x="707" d="M294 697q172 0 271 -94t99 -256t-99 -254.5t-271 -92.5h-217v697h217zM168 75h126q135 0 206 71.5t71 200.5q0 130 -71.5 203t-205.5 73h-126v-548zM352 811l138 85v-72l-138 -82l-139 82v72z" />
<glyph unicode="&#x10f;" horiz-adv-x="754" d="M651 740h92q11 -55 11 -92q0 -113 -102 -113v43q48 0 48 53v23h-49v86zM43 276q0 126 74 203.5t187 77.5q64 0 119 -29.5t84 -77.5v290h92v-740h-92v103q-27 -49 -80 -80.5t-124 -31.5q-112 0 -186 79.5t-74 205.5zM507 275q0 92 -54 147.5t-132 55.5t-131.5 -54.5 t-53.5 -147.5q0 -94 53.5 -149.5t131.5 -55.5t132 55.5t54 148.5z" />
<glyph unicode="&#x110;" horiz-adv-x="725" d="M313 697q171 0 270 -94t99 -256t-99 -254.5t-270 -92.5h-217v305h-71v78h71v314h217zM187 70h126q134 0 205 73.5t71 203.5t-71 203t-205 73h-126v-240h187v-78h-187v-235z" />
<glyph unicode="&#x111;" horiz-adv-x="675" d="M43 276q0 126 74 203.5t187 77.5q64 0 119 -29.5t84 -77.5v155h-142v73h142v62h92v-62h61v-73h-61v-605h-92v103q-27 -49 -80 -80.5t-124 -31.5q-112 0 -186 79.5t-74 205.5zM507 275q0 92 -54 147.5t-132 55.5t-131.5 -54.5t-53.5 -147.5q0 -94 53.5 -149.5t131.5 -55.5 t132 55.5t54 148.5z" />
<glyph unicode="&#x112;" horiz-adv-x="513" d="M452 698v-75h-284v-233h254v-75h-254v-240h284v-75h-375v698h375zM78 786v68h352v-68h-352z" />
<glyph unicode="&#x113;" horiz-adv-x="620" d="M310 480q-69 0 -117.5 -44t-55.5 -122h346q1 77 -49 121.5t-124 44.5zM566 169q-22 -79 -88 -128.5t-164 -49.5q-119 0 -195 77.5t-76 206.5t75 205.5t196 76.5q118 0 190.5 -74t72.5 -188q0 -27 -3 -55h-438q5 -81 55.5 -126.5t122.5 -45.5q59 0 98.5 27.5t55.5 73.5h98 zM134 641v68h352v-68h-352z" />
<glyph unicode="&#x114;" horiz-adv-x="513" d="M452 698v-75h-284v-233h254v-75h-254v-240h284v-75h-375v698h375zM397 877q0 -57 -37.5 -93.5t-104.5 -36.5t-105 36.5t-38 94.5v17h54q0 -77 89 -77q88 0 88 77h54v-18z" />
<glyph unicode="&#x115;" horiz-adv-x="620" d="M310 480q-69 0 -117.5 -44t-55.5 -122h346q1 77 -49 121.5t-124 44.5zM566 169q-22 -79 -88 -128.5t-164 -49.5q-119 0 -195 77.5t-76 206.5t75 205.5t196 76.5q118 0 190.5 -74t72.5 -188q0 -27 -3 -55h-438q5 -81 55.5 -126.5t122.5 -45.5q59 0 98.5 27.5t55.5 73.5h98 zM453 732q0 -57 -37.5 -93.5t-104.5 -36.5t-105 36.5t-38 94.5v17h54q0 -77 89 -77q88 0 88 77h54v-18z" />
<glyph unicode="&#x116;" horiz-adv-x="513" d="M452 698v-75h-284v-233h254v-75h-254v-240h284v-75h-375v698h375zM255 761q-22 0 -37.5 15t-15.5 37t15.5 37.5t37.5 15.5t37 -15.5t15 -37.5t-15 -37t-37 -15z" />
<glyph unicode="&#x117;" horiz-adv-x="620" d="M310 480q-69 0 -117.5 -44t-55.5 -122h346q1 77 -49 121.5t-124 44.5zM566 169q-22 -79 -88 -128.5t-164 -49.5q-119 0 -195 77.5t-76 206.5t75 205.5t196 76.5q118 0 190.5 -74t72.5 -188q0 -27 -3 -55h-438q5 -81 55.5 -126.5t122.5 -45.5q59 0 98.5 27.5t55.5 73.5h98 zM311 617q-22 0 -37.5 15t-15.5 37t15.5 37.5t37.5 15.5t37 -15.5t15 -37.5t-15 -37t-37 -15z" />
<glyph unicode="&#x118;" horiz-adv-x="513" d="M452 698v-75h-284v-233h254v-75h-254v-240h284v-75l-55 -27q-60 -29 -60 -70q0 -23 16 -35.5t43 -12.5q28 0 65 13v-60q-40 -14 -77 -14q-51 0 -86.5 24.5t-35.5 75.5q0 60 69 106h-254v698h375z" />
<glyph unicode="&#x119;" horiz-adv-x="620" d="M310 480q-69 0 -117.5 -44t-55.5 -122h346q1 77 -49 121.5t-124 44.5zM429 -178q-40 -14 -77 -14q-51 0 -86.5 24.5t-35.5 75.5q0 49 43 86q-103 13 -166.5 88.5t-63.5 192.5q0 129 75 205.5t196 76.5q118 0 190.5 -74t72.5 -188q0 -27 -3 -55h-438q5 -81 55.5 -126.5 t122.5 -45.5q59 0 98.5 27.5t55.5 73.5h98q-17 -61 -61.5 -105.5t-111.5 -62.5l-28 -14q-60 -29 -60 -70q0 -23 16 -35.5t43 -12.5q28 0 65 13v-60z" />
<glyph unicode="&#x11a;" horiz-adv-x="513" d="M452 698v-75h-284v-233h254v-75h-254v-240h284v-75h-375v698h375zM255 811l138 85v-72l-138 -82l-139 82v72z" />
<glyph unicode="&#x11b;" horiz-adv-x="620" d="M310 480q-69 0 -117.5 -44t-55.5 -122h346q1 77 -49 121.5t-124 44.5zM566 169q-22 -79 -88 -128.5t-164 -49.5q-119 0 -195 77.5t-76 206.5t75 205.5t196 76.5q118 0 190.5 -74t72.5 -188q0 -27 -3 -55h-438q5 -81 55.5 -126.5t122.5 -45.5q59 0 98.5 27.5t55.5 73.5h98 zM311 666l138 85v-72l-138 -82l-139 82v72z" />
<glyph unicode="&#x11e;" horiz-adv-x="778" d="M393 705q111 0 196.5 -55t124.5 -155h-109q-29 61 -84 94.5t-128 33.5q-112 0 -184.5 -75t-72.5 -199q0 -123 72.5 -198t184.5 -75q102 0 168 61t77 165h-278v74h375v-70q-12 -132 -107.5 -222t-234.5 -90q-149 0 -249.5 100t-100.5 255t100.5 255.5t249.5 100.5z M535 877q0 -57 -37.5 -93.5t-104.5 -36.5t-105 36.5t-38 94.5v17h54q0 -77 89 -77q88 0 88 77h54v-18z" />
<glyph unicode="&#x11f;" horiz-adv-x="676" d="M43 276q0 126 74 203.5t186 77.5q71 0 124.5 -31t79.5 -78v100h92v-560q0 -115 -71.5 -186.5t-190.5 -71.5q-108 0 -180 51t-85 139h90q15 -50 62 -80.5t113 -30.5q75 0 122.5 47t47.5 132v115q-27 -48 -80 -80t-124 -32q-112 0 -186 79.5t-74 205.5zM507 275 q0 92 -54 147.5t-132 55.5t-131.5 -54.5t-53.5 -147.5q0 -94 53.5 -149.5t131.5 -55.5t132 55.5t54 148.5zM481 732q0 -57 -37.5 -93.5t-104.5 -36.5t-105 36.5t-38 94.5v17h54q0 -77 89 -77q88 0 88 77h54v-18z" />
<glyph unicode="&#x120;" horiz-adv-x="778" d="M393 705q111 0 196.5 -55t124.5 -155h-109q-29 61 -84 94.5t-128 33.5q-112 0 -184.5 -75t-72.5 -199q0 -123 72.5 -198t184.5 -75q102 0 168 61t77 165h-278v74h375v-70q-12 -132 -107.5 -222t-234.5 -90q-149 0 -249.5 100t-100.5 255t100.5 255.5t249.5 100.5z M392 761q-22 0 -37.5 15t-15.5 37t15.5 37.5t37.5 15.5t37 -15.5t15 -37.5t-15 -37t-37 -15z" />
<glyph unicode="&#x121;" horiz-adv-x="676" d="M43 276q0 126 74 203.5t186 77.5q71 0 124.5 -31t79.5 -78v100h92v-560q0 -115 -71.5 -186.5t-190.5 -71.5q-108 0 -180 51t-85 139h90q15 -50 62 -80.5t113 -30.5q75 0 122.5 47t47.5 132v115q-27 -48 -80 -80t-124 -32q-112 0 -186 79.5t-74 205.5zM507 275 q0 92 -54 147.5t-132 55.5t-131.5 -54.5t-53.5 -147.5q0 -94 53.5 -149.5t131.5 -55.5t132 55.5t54 148.5zM339 617q-22 0 -37.5 15t-15.5 37t15.5 37.5t37.5 15.5t37 -15.5t15 -37.5t-15 -37t-37 -15z" />
<glyph unicode="&#x122;" horiz-adv-x="778" d="M343 -49h90q11 -47 11 -83q0 -115 -101 -115v42q48 0 48 56v18h-48v82zM393 705q111 0 196.5 -55t124.5 -155h-109q-29 61 -84 94.5t-128 33.5q-112 0 -184.5 -75t-72.5 -199q0 -123 72.5 -198t184.5 -75q102 0 168 61t77 165h-278v74h375v-70q-12 -132 -107.5 -222 t-234.5 -90q-149 0 -249.5 100t-100.5 255t100.5 255.5t249.5 100.5z" />
<glyph unicode="&#x123;" horiz-adv-x="676" d="M382 596h-91q-11 48 -11 92q0 113 101 113v-42q-47 0 -47 -54v-23h48v-86zM43 276q0 126 74 203.5t186 77.5q71 0 124.5 -31t79.5 -78v100h92v-560q0 -115 -71.5 -186.5t-190.5 -71.5q-108 0 -180 51t-85 139h90q15 -50 62 -80.5t113 -30.5q75 0 122.5 47t47.5 132v115 q-27 -48 -80 -80t-124 -32q-112 0 -186 79.5t-74 205.5zM507 275q0 92 -54 147.5t-132 55.5t-131.5 -54.5t-53.5 -147.5q0 -94 53.5 -149.5t131.5 -55.5t132 55.5t54 148.5z" />
<glyph unicode="&#x128;" horiz-adv-x="246" d="M77 0v697h91v-697h-91zM49 763h-69q2 50 25 79.5t63 29.5q33 0 64 -19q4 -3 10.5 -7.5t10 -7t8.5 -4.5t10 -2q12 0 21 10t9 29h69q0 -51 -24 -80t-65 -29q-34 0 -65 22q-27 19 -38 19q-29 0 -29 -40z" />
<glyph unicode="&#x129;" horiz-adv-x="246" d="M77 0v548h91v-548h-91zM43 634h-69q2 50 25 79.5t63 29.5q33 0 64 -19q4 -3 10.5 -7.5t10 -7t8.5 -4.5t10 -2q12 0 21 10t9 29h69q0 -51 -24 -80t-65 -29q-34 0 -65 22q-27 19 -38 19q-29 0 -29 -40z" />
<glyph unicode="&#x12a;" horiz-adv-x="246" d="M77 0v697h91v-697h-91zM-54 786v68h352v-68h-352z" />
<glyph unicode="&#x12b;" horiz-adv-x="246" d="M77 0v548h91v-548h-91zM-54 641v68h352v-68h-352z" />
<glyph unicode="&#x12c;" horiz-adv-x="246" d="M77 0v697h91v-697h-91zM265 877q0 -57 -37.5 -93.5t-104.5 -36.5t-105 36.5t-38 94.5v17h54q0 -77 89 -77q88 0 88 77h54v-18z" />
<glyph unicode="&#x12d;" horiz-adv-x="246" d="M77 0v548h91v-548h-91zM265 732q0 -57 -37.5 -93.5t-104.5 -36.5t-105 36.5t-38 94.5v17h54q0 -77 89 -77q88 0 88 77h54v-18z" />
<glyph unicode="&#x12e;" horiz-adv-x="246" d="M177 -191q-40 -14 -77 -14q-51 0 -86.5 24.5t-35.5 75.5q0 72 99 123v679h91v-697h-2l-53 -26q-60 -29 -60 -70q0 -23 16 -35.5t43 -12.5q28 0 65 13v-60z" />
<glyph unicode="&#x12f;" horiz-adv-x="246" d="M177 -191q-40 -14 -77 -14q-51 0 -86.5 24.5t-35.5 75.5q0 72 99 123v530h91v-548h-2l-53 -26q-60 -29 -60 -70q0 -23 16 -35.5t43 -12.5q28 0 65 13v-60zM124 637q-26 0 -44 18t-18 44t18 44t44 18q25 0 42.5 -18t17.5 -44t-17.5 -44t-42.5 -18z" />
<glyph unicode="&#x130;" horiz-adv-x="246" d="M77 0v697h91v-697h-91zM123 761q-22 0 -37.5 15t-15.5 37t15.5 37.5t37.5 15.5t37 -15.5t15 -37.5t-15 -37t-37 -15z" />
<glyph unicode="&#x131;" horiz-adv-x="246" d="M77 0v548h91v-548h-91z" />
<glyph unicode="&#x136;" horiz-adv-x="599" d="M251 -49h90q11 -41 11 -83q0 -115 -100 -115v42q47 0 47 56v18h-48v82zM455 0l-287 318v-318h-91v697h91v-323l288 323h115l-316 -349l319 -348h-119z" />
<glyph unicode="&#x137;" horiz-adv-x="515" d="M212 -49h90q10 -43 10 -83q0 -115 -100 -115v42q47 0 47 56v18h-47v82zM77 0v740h91v-435l211 243h127l-258 -273l259 -275h-124l-215 242v-242h-91z" />
<glyph unicode="&#x139;" horiz-adv-x="432" d="M77 697h91v-623h244v-74h-335v697zM101 802l213 125v-79l-213 -114v68z" />
<glyph unicode="&#x13a;" horiz-adv-x="246" d="M77 0v740h91v-740h-91zM7 849l213 125v-79l-213 -114v68z" />
<glyph unicode="&#x13b;" horiz-adv-x="432" d="M196 -49h91q11 -41 11 -83q0 -115 -101 -115v42q47 0 47 56v18h-48v82zM77 697h91v-623h244v-74h-335v697z" />
<glyph unicode="&#x13c;" horiz-adv-x="246" d="M75 -49h91q11 -47 11 -83q0 -115 -102 -115v42q48 0 48 56v18h-48v82zM77 0v740h91v-740h-91z" />
<glyph unicode="&#x13d;" horiz-adv-x="446" d="M281 697h92q11 -48 11 -91q0 -114 -101 -114v43q47 0 47 54v23h-49v85zM77 697h91v-623h244v-74h-335v697z" />
<glyph unicode="&#x13e;" horiz-adv-x="369" d="M241 740h92q11 -48 11 -92q0 -113 -101 -113v43q48 0 48 53v23h-50v86zM77 0v740h91v-740h-91z" />
<glyph unicode="&#x13f;" horiz-adv-x="432" d="M77 697h91v-623h244v-74h-335v697zM217 761q-22 0 -37.5 15t-15.5 37t15.5 37.5t37.5 15.5t37 -15.5t15 -37.5t-15 -37t-37 -15z" />
<glyph unicode="&#x140;" horiz-adv-x="246" d="M123 775q-22 0 -37.5 15t-15.5 37t15.5 37.5t37.5 15.5t37.5 -15.5t15.5 -37.5t-15.5 -37t-37.5 -15zM77 0v740h91v-740h-91z" />
<glyph unicode="&#x141;" horiz-adv-x="437" d="M91 697h91v-286l109 39v-70l-109 -39v-271h243v-70h-334v308l-82 -29v69l82 30v319z" />
<glyph unicode="&#x142;" horiz-adv-x="251" d="M80 0v337l-71 -28v72l71 27v332h91v-296l71 27v-71l-71 -28v-372h-91z" />
<glyph unicode="&#x143;" horiz-adv-x="703" d="M534 698h91v-698h-91l-366 555v-555h-91v698h91l366 -554v554zM236 802l213 125v-79l-213 -114v68z" />
<glyph unicode="&#x144;" d="M206 657l213 125v-79l-213 -114v68zM478 0v310q0 82 -41 125.5t-112 43.5q-72 0 -114.5 -45t-42.5 -131v-303h-91v548h91v-78q27 42 73.5 65t102.5 23q100 0 162 -60.5t62 -174.5v-323h-90z" />
<glyph unicode="&#x145;" horiz-adv-x="703" d="M304 -49h90q11 -41 11 -83q0 -115 -100 -115v42q46 0 46 56v18h-47v82zM534 698h91v-698h-91l-366 555v-555h-91v698h91l366 -554v554z" />
<glyph unicode="&#x146;" d="M274 -49h90q12 -45 12 -83q0 -115 -101 -115v42q47 0 47 56v18h-48v82zM478 0v310q0 82 -41 125.5t-112 43.5q-72 0 -114.5 -45t-42.5 -131v-303h-91v548h91v-78q27 42 73.5 65t102.5 23q100 0 162 -60.5t62 -174.5v-323h-90z" />
<glyph unicode="&#x147;" horiz-adv-x="703" d="M534 698h91v-698h-91l-366 555v-555h-91v698h91l366 -554v554zM352 811l138 85v-72l-138 -82l-139 82v72z" />
<glyph unicode="&#x148;" d="M478 0v310q0 82 -41 125.5t-112 43.5q-72 0 -114.5 -45t-42.5 -131v-303h-91v548h91v-78q27 42 73.5 65t102.5 23q100 0 162 -60.5t62 -174.5v-323h-90zM322 666l138 85v-72l-138 -82l-139 82v72z" />
<glyph unicode="&#x14c;" horiz-adv-x="786" d="M743 349q0 -155 -100.5 -255.5t-249.5 -100.5t-249.5 100.5t-100.5 255.5t100.5 255.5t249.5 100.5t249.5 -100.5t100.5 -255.5zM136 349q0 -125 72.5 -201t184.5 -76t184.5 76t72.5 201q0 126 -72.5 201.5t-184.5 75.5t-184.5 -75.5t-72.5 -201.5zM219 786v68h352v-68 h-352z" />
<glyph unicode="&#x14d;" d="M597 275q0 -128 -80.5 -206t-200.5 -78q-118 0 -195.5 78t-77.5 206q0 127 79 204.5t198 77.5q120 0 198.5 -77.5t78.5 -204.5zM136 275q0 -99 52 -151.5t128 -52.5q78 0 133 53t55 151t-54 150.5t-131 52.5t-130 -52.5t-53 -150.5zM144 648v68h352v-68h-352z" />
<glyph unicode="&#x14e;" horiz-adv-x="786" d="M743 349q0 -155 -100.5 -255.5t-249.5 -100.5t-249.5 100.5t-100.5 255.5t100.5 255.5t249.5 100.5t249.5 -100.5t100.5 -255.5zM136 349q0 -125 72.5 -201t184.5 -76t184.5 76t72.5 201q0 126 -72.5 201.5t-184.5 75.5t-184.5 -75.5t-72.5 -201.5zM538 877 q0 -57 -37.5 -93.5t-104.5 -36.5t-105 36.5t-38 94.5v17h54q0 -77 89 -77q88 0 88 77h54v-18z" />
<glyph unicode="&#x14f;" d="M597 275q0 -128 -80.5 -206t-200.5 -78q-118 0 -195.5 78t-77.5 206q0 127 79 204.5t198 77.5q120 0 198.5 -77.5t78.5 -204.5zM136 275q0 -99 52 -151.5t128 -52.5q78 0 133 53t55 151t-54 150.5t-131 52.5t-130 -52.5t-53 -150.5zM463 739q0 -57 -37.5 -93.5 t-104.5 -36.5t-105 36.5t-38 94.5v17h54q0 -77 89 -77q88 0 88 77h54v-18z" />
<glyph unicode="&#x150;" horiz-adv-x="786" d="M743 349q0 -155 -100.5 -255.5t-249.5 -100.5t-249.5 100.5t-100.5 255.5t100.5 255.5t249.5 100.5t249.5 -100.5t100.5 -255.5zM136 349q0 -125 72.5 -201t184.5 -76t184.5 76t72.5 201q0 126 -72.5 201.5t-184.5 75.5t-184.5 -75.5t-72.5 -201.5zM348 900h81l-87 -154 h-61zM502 900h80l-92 -154h-60z" />
<glyph unicode="&#x151;" d="M597 275q0 -128 -80.5 -206t-200.5 -78q-118 0 -195.5 78t-77.5 206q0 127 79 204.5t198 77.5q120 0 198.5 -77.5t78.5 -204.5zM136 275q0 -99 52 -151.5t128 -52.5q78 0 133 53t55 151t-54 150.5t-131 52.5t-130 -52.5t-53 -150.5zM273 762h81l-87 -154h-61zM427 762h80 l-92 -154h-60z" />
<glyph unicode="&#x152;" horiz-adv-x="1086" d="M1024 626h-283v-239h253v-71h-253v-244h283v-72h-374v143q-39 -72 -107.5 -111t-156.5 -39q-144 0 -243.5 100.5t-99.5 255.5t99.5 255.5t242.5 100.5q88 0 157 -38t108 -109v139h374v-71zM393 623q-112 0 -184.5 -75t-72.5 -199q0 -123 72.5 -198.5t184.5 -75.5 t184.5 75.5t72.5 198.5q0 124 -72.5 199t-184.5 75z" />
<glyph unicode="&#x153;" horiz-adv-x="1080" d="M503 275q0 98 -54 151.5t-131 53.5q-76 0 -129 -53.5t-53 -151.5q0 -99 52 -153t128 -54q77 0 132 54t55 153zM770 480q-71 0 -119.5 -46t-53.5 -128h346q1 81 -49 127.5t-124 46.5zM43 275q0 127 79 204.5t198 77.5q74 0 134.5 -35t93.5 -98q32 63 91 98t135 35 q118 0 190.5 -73.5t72.5 -186.5q0 -29 -4 -54h-436q4 -82 52 -128.5t121 -46.5q60 0 99.5 27.5t55.5 73.5h98q-22 -79 -88 -128.5t-165 -49.5q-74 0 -132.5 35.5t-89.5 99.5q-34 -64 -95.5 -99.5t-136.5 -35.5q-119 0 -196 78t-77 206z" />
<glyph unicode="&#x154;" horiz-adv-x="608" d="M450 492q0 130 -148 130h-134v-264h134q74 0 111 36.5t37 97.5zM77 697h225q118 0 180 -57.5t62 -147.5q0 -72 -41.5 -127t-124.5 -73l175 -292h-109l-166 285h-110v-285h-91v697zM195 802l213 125v-79l-213 -114v68z" />
<glyph unicode="&#x155;" horiz-adv-x="373" d="M168 298v-298h-91v548h91v-89q50 99 177 99v-94h-24q-153 0 -153 -166zM115 657l213 125v-79l-213 -114v68z" />
<glyph unicode="&#x156;" horiz-adv-x="608" d="M256 -49h90q10 -43 10 -83q0 -115 -100 -115v42q47 0 47 56v18h-47v82zM168 0h-91v697h225q118 0 180 -57.5t62 -147.5q0 -72 -41.5 -127t-124.5 -73l175 -292h-109l-166 285h-110v-285zM450 492q0 130 -148 130h-134v-264h134q74 0 111 36.5t37 97.5z" />
<glyph unicode="&#x157;" horiz-adv-x="373" d="M75 -49h90q11 -41 11 -83q0 -115 -101 -115v42q47 0 47 56v18h-47v82zM168 298v-298h-91v548h91v-89q50 99 177 99v-94h-24q-153 0 -153 -166z" />
<glyph unicode="&#x158;" horiz-adv-x="608" d="M450 492q0 130 -148 130h-134v-264h134q74 0 111 36.5t37 97.5zM77 697h225q118 0 180 -57.5t62 -147.5q0 -72 -41.5 -127t-124.5 -73l175 -292h-109l-166 285h-110v-285h-91v697zM311 811l138 85v-72l-138 -82l-139 82v72z" />
<glyph unicode="&#x159;" horiz-adv-x="373" d="M168 298v-298h-91v548h91v-89q50 99 177 99v-94h-24q-153 0 -153 -166zM231 666l138 85v-72l-138 -82l-139 82v72z" />
<glyph unicode="&#x15a;" horiz-adv-x="587" d="M530 190q0 -80 -62 -138.5t-170 -58.5q-105 0 -172.5 53.5t-68.5 139.5h97q5 -49 40.5 -82.5t103.5 -33.5q65 0 102.5 32.5t37.5 83.5q0 38 -21 63.5t-54 38.5t-73 23.5t-80.5 23.5t-73.5 32.5t-54 56t-21 89.5q0 86 64 139.5t167 53.5q98 0 160.5 -49t70.5 -130h-100 q-5 40 -40.5 70t-94.5 31q-58 2 -96 -28t-38 -84q0 -32 16 -55t42.5 -35.5t60.5 -24t69 -19.5t69 -23t60.5 -34.5t42.5 -54t16 -80.5zM176 808l213 125v-79l-213 -114v68z" />
<glyph unicode="&#x15b;" horiz-adv-x="522" d="M471 149q0 -69 -55 -113.5t-145 -44.5q-96 0 -157.5 47.5t-66.5 122.5h94q4 -41 38.5 -67t90.5 -26q52 0 82 23t30 58q0 33 -33.5 53t-81 31.5t-95 27t-81 51t-33.5 92.5q0 65 56 109t145 44q91 0 147 -46t60 -126h-91q-3 43 -34.5 69t-84.5 26q-49 0 -78 -21t-29 -55 q0 -30 23.5 -50.5t59 -30t77 -22.5t77 -27.5t60 -46.5t25.5 -78zM145 664l213 125v-79l-213 -114v68z" />
<glyph unicode="&#x15e;" horiz-adv-x="587" d="M530 190q0 -73 -53.5 -130t-147.5 -66v-57q59 1 94 -25t35 -74q0 -47 -34 -75t-88 -28h-115v59h97q64 0 64 44q0 43 -64 43h-50v113q-94 8 -152 60t-59 132h97q5 -49 40.5 -82.5t103.5 -33.5q65 0 102.5 32.5t37.5 83.5q0 38 -21 63.5t-54 38.5t-73 23.5t-80.5 23.5 t-73.5 32.5t-54 56t-21 89.5q0 86 64 139.5t167 53.5q98 0 160.5 -49t70.5 -130h-100q-5 40 -40.5 70t-94.5 31q-58 2 -96 -28t-38 -84q0 -32 16 -55t42.5 -35.5t60.5 -24t69 -19.5t69 -23t60.5 -34.5t42.5 -54t16 -80.5z" />
<glyph unicode="&#x15f;" horiz-adv-x="522" d="M471 149q0 -64 -48 -107.5t-128 -49.5v-50q59 1 94 -25t35 -74q0 -47 -34 -75t-88 -28h-115v59h97q64 0 64 44q0 43 -64 43h-50v107q-81 9 -132 55t-55 113h94q4 -41 38.5 -67t90.5 -26q52 0 82 23t30 58q0 33 -33.5 53t-81 31.5t-95 27t-81 51t-33.5 92.5q0 65 56 109 t145 44q91 0 147 -46t60 -126h-91q-3 43 -34.5 69t-84.5 26q-49 0 -78 -21t-29 -55q0 -30 23.5 -50.5t59 -30t77 -22.5t77 -27.5t60 -46.5t25.5 -78z" />
<glyph unicode="&#x160;" horiz-adv-x="587" d="M530 190q0 -80 -62 -138.5t-170 -58.5q-105 0 -172.5 53.5t-68.5 139.5h97q5 -49 40.5 -82.5t103.5 -33.5q65 0 102.5 32.5t37.5 83.5q0 38 -21 63.5t-54 38.5t-73 23.5t-80.5 23.5t-73.5 32.5t-54 56t-21 89.5q0 86 64 139.5t167 53.5q98 0 160.5 -49t70.5 -130h-100 q-5 40 -40.5 70t-94.5 31q-58 2 -96 -28t-38 -84q0 -32 16 -55t42.5 -35.5t60.5 -24t69 -19.5t69 -23t60.5 -34.5t42.5 -54t16 -80.5zM291 817l138 85v-72l-138 -82l-139 82v72z" />
<glyph unicode="&#x161;" horiz-adv-x="522" d="M471 149q0 -69 -55 -113.5t-145 -44.5q-96 0 -157.5 47.5t-66.5 122.5h94q4 -41 38.5 -67t90.5 -26q52 0 82 23t30 58q0 33 -33.5 53t-81 31.5t-95 27t-81 51t-33.5 92.5q0 65 56 109t145 44q91 0 147 -46t60 -126h-91q-3 43 -34.5 69t-84.5 26q-49 0 -78 -21t-29 -55 q0 -30 23.5 -50.5t59 -30t77 -22.5t77 -27.5t60 -46.5t25.5 -78zM261 673l138 85v-72l-138 -82l-139 82v72z" />
<glyph unicode="&#x162;" horiz-adv-x="541" d="M34 623v74h472v-74h-190v-623h-14v-58q59 1 94 -25t35 -74q0 -47 -34 -75t-88 -28h-115v59h97q64 0 64 44q0 43 -64 43h-50v114h-16v623h-191z" />
<glyph unicode="&#x163;" horiz-adv-x="364" d="M97 150v323h-71v75h71v138h91v-138h143v-75h-143v-323q0 -40 17 -56.5t59 -16.5h67v-77h-82q-15 0 -22 1v-59q59 1 94 -25t35 -74q0 -47 -34 -75t-88 -28h-115v59h97q64 0 64 44q0 43 -64 43h-51v129q-68 31 -68 135z" />
<glyph unicode="&#x164;" horiz-adv-x="541" d="M34 623v74h472v-74h-190v-623h-91v623h-191zM271 811l138 85v-72l-138 -82l-139 82v72z" />
<glyph unicode="&#x165;" horiz-adv-x="367" d="M262 773h91q12 -52 12 -85q0 -97 -102 -97v42q48 0 48 36v18h-49v86zM97 150v323h-71v75h71v138h91v-138h143v-75h-143v-323q0 -40 17 -56.5t59 -16.5h67v-77h-82q-76 0 -114 35t-38 115z" />
<glyph unicode="&#x168;" horiz-adv-x="675" d="M75 257v440h91v-441q0 -93 45.5 -138t126.5 -45q80 0 125.5 45t45.5 138v441h91v-440q0 -129 -74 -196.5t-189 -67.5t-188.5 67t-73.5 197zM265 763h-69q2 50 25 79.5t63 29.5q33 0 64 -19q4 -3 10.5 -7.5t10 -7t8.5 -4.5t10 -2q12 0 21 10t9 29h69q0 -51 -24 -80 t-65 -29q-34 0 -65 22q-27 19 -38 19q-29 0 -29 -40z" />
<glyph unicode="&#x169;" d="M472 0v81q-26 -42 -73 -65.5t-102 -23.5q-99 0 -162 61t-63 174v321h90v-309q0 -81 41 -124.5t112 -43.5q73 0 115 45t42 131v301h91v-548h-91zM242 634h-69q2 50 25 79.5t63 29.5q33 0 64 -19q4 -3 10.5 -7.5t10 -7t8.5 -4.5t10 -2q12 0 21 10t9 29h69q0 -51 -24 -80 t-65 -29q-34 0 -65 22q-27 19 -38 19q-29 0 -29 -40z" />
<glyph unicode="&#x16a;" horiz-adv-x="675" d="M75 257v440h91v-441q0 -93 45.5 -138t126.5 -45q80 0 125.5 45t45.5 138v441h91v-440q0 -129 -74 -196.5t-189 -67.5t-188.5 67t-73.5 197zM161 786v68h352v-68h-352z" />
<glyph unicode="&#x16b;" d="M563 548v-548h-91v81q-26 -42 -73 -65.5t-102 -23.5q-99 0 -162 61t-63 174v321h90v-309q0 -81 41 -124.5t112 -43.5q73 0 115 45t42 131v301h91zM144 641v68h352v-68h-352z" />
<glyph unicode="&#x16c;" horiz-adv-x="675" d="M75 257v440h91v-441q0 -93 45.5 -138t126.5 -45q80 0 125.5 45t45.5 138v441h91v-440q0 -129 -74 -196.5t-189 -67.5t-188.5 67t-73.5 197zM480 877q0 -57 -37.5 -93.5t-104.5 -36.5t-105 36.5t-38 94.5v17h54q0 -77 89 -77q88 0 88 77h54v-18z" />
<glyph unicode="&#x16d;" d="M563 548v-548h-91v81q-26 -42 -73 -65.5t-102 -23.5q-99 0 -162 61t-63 174v321h90v-309q0 -81 41 -124.5t112 -43.5q73 0 115 45t42 131v301h91zM463 732q0 -57 -37.5 -93.5t-104.5 -36.5t-105 36.5t-38 94.5v17h54q0 -77 89 -77q88 0 88 77h54v-18z" />
<glyph unicode="&#x16e;" horiz-adv-x="675" d="M75 257v440h91v-441q0 -93 45.5 -138t126.5 -45q80 0 125.5 45t45.5 138v441h91v-440q0 -129 -74 -196.5t-189 -67.5t-188.5 67t-73.5 197zM338 962q46 0 76.5 -28.5t30.5 -76.5t-30.5 -76.5t-76.5 -28.5q-45 0 -76 29t-31 76t31 76t76 29zM338 801q23 0 38.5 16t15.5 41 t-15.5 40.5t-38.5 15.5t-38.5 -15.5t-15.5 -40.5t15.5 -41t38.5 -16z" />
<glyph unicode="&#x16f;" d="M563 548v-548h-91v81q-26 -42 -73 -65.5t-102 -23.5q-99 0 -162 61t-63 174v321h90v-309q0 -81 41 -124.5t112 -43.5q73 0 115 45t42 131v301h91zM321 656q23 0 38.5 16t15.5 41t-15.5 40.5t-38.5 15.5t-38.5 -15.5t-15.5 -40.5t15.5 -41t38.5 -16zM321 817 q46 0 76.5 -28.5t30.5 -76.5t-30.5 -76.5t-76.5 -28.5q-45 0 -76 29t-31 76t31 76t76 29z" />
<glyph unicode="&#x170;" horiz-adv-x="675" d="M75 257v440h91v-441q0 -93 45.5 -138t126.5 -45q80 0 125.5 45t45.5 138v441h91v-440q0 -129 -74 -196.5t-189 -67.5t-188.5 67t-73.5 197zM290 900h81l-87 -154h-61zM444 900h80l-92 -154h-60z" />
<glyph unicode="&#x171;" d="M563 548v-548h-91v81q-26 -42 -73 -65.5t-102 -23.5q-99 0 -162 61t-63 174v321h90v-309q0 -81 41 -124.5t112 -43.5q73 0 115 45t42 131v301h91zM273 755h81l-87 -154h-61zM427 755h80l-92 -154h-60z" />
<glyph unicode="&#x172;" horiz-adv-x="675" d="M75 257v440h91v-441q0 -93 45.5 -138t126.5 -45q80 0 125.5 45t45.5 138v441h91v-440q0 -108 -52.5 -173t-139.5 -84l-55 -27q-60 -29 -60 -70q0 -23 16 -35.5t43 -12.5q28 0 65 13v-60q-40 -14 -77 -14q-51 0 -86.5 24.5t-35.5 75.5q0 59 65 103q-94 15 -151 81t-57 179 z" />
<glyph unicode="&#x173;" d="M563 548v-548h-1l1 -1l-55 -27q-60 -29 -60 -70q0 -23 16 -35.5t43 -12.5q28 0 65 13v-60q-40 -14 -77 -14q-51 0 -86.5 24.5t-35.5 75.5q0 72 99 123v65q-26 -42 -73 -65.5t-102 -23.5q-99 0 -162 61t-63 174v321h90v-309q0 -81 41 -124.5t112 -43.5q73 0 115 45t42 131 v301h91z" />
<glyph unicode="&#x174;" horiz-adv-x="976" d="M218 -1l-195 698h97l152 -591l168 591h102l160 -589l153 589h98l-202 -697h-102l-162 561l-168 -561zM623 822v-72l-138 85l-139 -85v72l139 83z" />
<glyph unicode="&#x175;" horiz-adv-x="820" d="M184 0l-172 548h93l126 -460l136 460h93l133 -461l124 461h90l-171 -548h-94l-132 435l-132 -435h-94zM549 669v-72l-138 85l-139 -85v72l139 83z" />
<glyph unicode="&#x176;" horiz-adv-x="584" d="M247 263l-228 434h101l172 -353l172 353h101l-227 -434v-263h-91v263zM431 814v-72l-138 85l-139 -85v72l139 83z" />
<glyph unicode="&#x177;" horiz-adv-x="563" d="M285 104l170 444h94l-330 -806h-94l108 264l-221 542h101zM420 669v-72l-138 85l-139 -85v72l139 83z" />
<glyph unicode="&#x178;" horiz-adv-x="584" d="M247 263l-228 434h101l172 -353l172 353h101l-227 -434v-263h-91v263zM212 767q-22 0 -37.5 15t-15.5 37t15.5 37.5t37.5 15.5q21 0 36.5 -15.5t15.5 -37.5t-15.5 -37t-36.5 -15zM374 767q-22 0 -37 15t-15 37t15 37.5t37 15.5t37.5 -15.5t15.5 -37.5t-15.5 -37 t-37.5 -15z" />
<glyph unicode="&#x179;" horiz-adv-x="541" d="M492 697v-72l-338 -546h340v-79h-448v72l338 546h-334v79h442zM155 802l213 125v-79l-213 -114v68z" />
<glyph unicode="&#x17a;" horiz-adv-x="455" d="M412 548v-74l-267 -399h269v-75h-373v75l266 399h-264v74h369zM113 657l213 125v-79l-213 -114v68z" />
<glyph unicode="&#x17b;" horiz-adv-x="541" d="M492 697v-72l-338 -546h340v-79h-448v72l338 546h-334v79h442zM271 761q-22 0 -37.5 15t-15.5 37t15.5 37.5t37.5 15.5t37 -15.5t15 -37.5t-15 -37t-37 -15z" />
<glyph unicode="&#x17c;" horiz-adv-x="455" d="M412 548v-74l-267 -399h269v-75h-373v75l266 399h-264v74h369zM229 617q-22 0 -37.5 15t-15.5 37t15.5 37.5t37.5 15.5t37 -15.5t15 -37.5t-15 -37t-37 -15z" />
<glyph unicode="&#x17d;" horiz-adv-x="541" d="M492 697v-72l-338 -546h340v-79h-448v72l338 546h-334v79h442zM271 811l138 85v-72l-138 -82l-139 82v72z" />
<glyph unicode="&#x17e;" horiz-adv-x="455" d="M412 548v-74l-267 -399h269v-75h-373v75l266 399h-264v74h369zM229 666l138 85v-72l-138 -82l-139 82v72z" />
<glyph unicode="&#x18f;" horiz-adv-x="786" d="M394 75q98 0 163.5 59.5t71.5 163.5h-466q0 -100 63.5 -161.5t167.5 -61.5zM394 -7q-147 0 -236.5 87t-89.5 241q0 29 3 62h558q-5 108 -70 174t-164 66q-78 0 -135.5 -38t-80.5 -105h-105q33 104 118 164.5t203 60.5q148 0 240.5 -99t92.5 -257q0 -159 -92 -257.5 t-242 -98.5z" />
<glyph unicode="&#x192;" horiz-adv-x="332" d="M108 595q10 90 62.5 131t153.5 41l-7 -76q-58 0 -85.5 -22t-32.5 -74l-5 -47h115l-7 -74h-116l-56 -531q-7 -74 -45 -107t-109 -33h-24l7 75h19q29 0 43 14.5t18 50.5l56 531h-70l7 74h71z" />
<glyph unicode="&#x1a0;" horiz-adv-x="786" d="M743 349q0 -155 -100.5 -255.5t-249.5 -100.5t-249.5 100.5t-100.5 255.5t100.5 255.5t249.5 100.5q38 0 78 -8h63q71 0 71 83h82q0 -107 -86 -140q66 -47 104 -123t38 -168zM136 349q0 -125 72.5 -201t184.5 -76t184.5 76t72.5 201q0 126 -72.5 201.5t-184.5 75.5 t-184.5 -75.5t-72.5 -201.5z" />
<glyph unicode="&#x1a1;" d="M597 275q0 -128 -80.5 -206t-200.5 -78q-118 0 -195.5 78t-77.5 206q0 127 79 204.5t198 77.5q37 0 79 -10h29q71 0 71 83h82q0 -102 -78 -137q94 -79 94 -218zM136 275q0 -99 52 -151.5t128 -52.5q78 0 133 53t55 151t-54 150.5t-131 52.5t-130 -52.5t-53 -150.5z" />
<glyph unicode="&#x1af;" horiz-adv-x="675" d="M75 257v440h91v-441q0 -93 45.5 -138t126.5 -45q80 0 125.5 45t45.5 138v441h51q71 0 71 83h82q0 -62 -30.5 -100t-82.5 -47v-376q0 -129 -74 -196.5t-189 -67.5t-188.5 67t-73.5 197z" />
<glyph unicode="&#x1b0;" d="M602 630h82q0 -65 -33 -102.5t-88 -45.5v-482h-91v81q-26 -42 -73 -65.5t-102 -23.5q-99 0 -162 61t-63 174v321h90v-309q0 -81 41 -124.5t112 -43.5q73 0 115 45t42 131v301h73q57 9 57 82z" />
<glyph unicode="&#x1fc;" horiz-adv-x="900" d="M444 808l213 125v-79l-213 -114v68zM465 629l-227 -403h227v403zM838 626h-282v-239h252v-70h-252v-245h282v-72h-373v155h-267l-87 -155h-99l395 698h431v-72z" />
<glyph unicode="&#x1fd;" horiz-adv-x="1100" d="M784 480q-72 0 -124.5 -46t-59.5 -125h361q1 79 -50 125t-127 46zM1043 169q-22 -79 -86 -128.5t-159 -49.5q-67 0 -123.5 31t-85.5 84v-106h-79v105q-30 -51 -84 -82.5t-123 -31.5q-112 0 -186 79.5t-74 205.5q0 127 74.5 204t190.5 77q136 0 205 -110v101h76v-101 q71 110 209 110q115 0 186 -74.5t71 -185.5q0 -29 -4 -54h-451q7 -83 60.5 -129t122.5 -46q64 0 106 27.5t56 73.5h98zM136 276q0 -94 53.5 -149.5t131.5 -55.5t132 55.5t54 148.5q0 92 -54 147.5t-132 55.5t-131.5 -54.5t-53.5 -147.5zM508 657l213 125v-79l-213 -114v68z " />
<glyph unicode="&#x218;" horiz-adv-x="587" d="M253 -49h90q11 -41 11 -83q0 -115 -101 -115v42q47 0 47 56v18h-47v82zM530 190q0 -80 -62 -138.5t-170 -58.5q-105 0 -172.5 53.5t-68.5 139.5h97q5 -49 40.5 -82.5t103.5 -33.5q65 0 102.5 32.5t37.5 83.5q0 38 -21 63.5t-54 38.5t-73 23.5t-80.5 23.5t-73.5 32.5 t-54 56t-21 89.5q0 86 64 139.5t167 53.5q98 0 160.5 -49t70.5 -130h-100q-5 40 -40.5 70t-94.5 31q-58 2 -96 -28t-38 -84q0 -32 16 -55t42.5 -35.5t60.5 -24t69 -19.5t69 -23t60.5 -34.5t42.5 -54t16 -80.5z" />
<glyph unicode="&#x219;" horiz-adv-x="522" d="M219 -49h90q11 -47 11 -83q0 -115 -101 -115v42q47 0 47 56v18h-47v82zM471 149q0 -69 -55 -113.5t-145 -44.5q-96 0 -157.5 47.5t-66.5 122.5h94q4 -41 38.5 -67t90.5 -26q52 0 82 23t30 58q0 33 -33.5 53t-81 31.5t-95 27t-81 51t-33.5 92.5q0 65 56 109t145 44 q91 0 147 -46t60 -126h-91q-3 43 -34.5 69t-84.5 26q-49 0 -78 -21t-29 -55q0 -30 23.5 -50.5t59 -30t77 -22.5t77 -27.5t60 -46.5t25.5 -78z" />
<glyph unicode="&#x21a;" horiz-adv-x="541" d="M223 -49h90q10 -43 10 -83q0 -115 -100 -115v42q47 0 47 56v18h-47v82zM34 623v74h472v-74h-190v-623h-91v623h-191z" />
<glyph unicode="&#x21b;" horiz-adv-x="364" d="M143 -49h90q11 -41 11 -83q0 -115 -101 -115v42q48 0 48 56v18h-48v82zM97 150v323h-71v75h71v138h91v-138h143v-75h-143v-323q0 -40 17 -56.5t59 -16.5h67v-77h-82q-76 0 -114 35t-38 115z" />
<glyph unicode="&#x259;" horiz-adv-x="620" d="M310 68q69 0 117.5 44t55.5 122h-346q-1 -77 49 -121.5t124 -44.5zM306 -9q-118 0 -190.5 74t-72.5 188q0 27 3 55h438q-5 81 -55.5 126.5t-122.5 45.5q-59 0 -98.5 -27.5t-55.5 -73.5h-98q22 79 88 128.5t164 49.5q119 0 195 -77.5t76 -206.5t-75 -205.5t-196 -76.5z " />
<glyph unicode="&#x2bc;" horiz-adv-x="219" d="M96 470h-64l59 227h101z" />
<glyph unicode="&#x2c6;" horiz-adv-x="311" d="M294 669v-72l-138 85l-139 -85v72l139 83z" />
<glyph unicode="&#x2c7;" horiz-adv-x="311" d="M156 666l138 85v-72l-138 -82l-139 82v72z" />
<glyph unicode="&#x2c9;" horiz-adv-x="387" d="M17 641v68h352v-68h-352z" />
<glyph unicode="&#x2d8;" horiz-adv-x="320" d="M302 732q0 -57 -37.5 -93.5t-104.5 -36.5t-105 36.5t-38 94.5v17h54q0 -77 89 -77q88 0 88 77h54v-18z" />
<glyph unicode="&#x2d9;" horiz-adv-x="143" d="M72 622q-22 0 -37.5 15t-15.5 37t15.5 37.5t37.5 15.5t37 -15.5t15 -37.5t-15 -37t-37 -15z" />
<glyph unicode="&#x2da;" horiz-adv-x="243" d="M122 817q46 0 76.5 -28.5t30.5 -76.5t-30.5 -76.5t-76.5 -28.5q-45 0 -76 29t-31 76t31 76t76 29zM122 656q23 0 38.5 16t15.5 41t-15.5 40.5t-38.5 15.5t-38.5 -15.5t-15.5 -40.5t15.5 -41t38.5 -16z" />
<glyph unicode="&#x2db;" horiz-adv-x="241" d="M137 26l49 21l24 -47l-55 -27q-60 -29 -60 -70q0 -23 16 -35.5t43 -12.5q28 0 65 13v-60q-40 -14 -77 -14q-51 0 -86.5 24.5t-35.5 75.5q0 78 117 132z" />
<glyph unicode="&#x2dc;" horiz-adv-x="345" d="M17 607q7 51 33.5 78t66.5 27q28 0 61.5 -23t52.5 -23q38 0 44 43h52q-6 -50 -33 -77t-67 -27q-29 0 -62.5 23t-51.5 23q-37 0 -43 -44h-53z" />
<glyph unicode="&#x2dd;" horiz-adv-x="344" d="M84 755h81l-87 -154h-61zM238 755h80l-92 -154h-60z" />
<glyph unicode="&#x300;" horiz-adv-x="6" d="M-299 952l65 44l88 -104l-62 -38z" />
<glyph unicode="&#x301;" horiz-adv-x="6" d="M-169 996l65 -44l-91 -98l-62 38z" />
<glyph unicode="&#x303;" horiz-adv-x="6" d="M-411 912h-69q2 42 25 66.5t63 24.5q32 0 64 -16q4 -2 10.5 -6t10 -6t8.5 -3.5t10 -1.5q12 0 21 8.5t9 23.5h69q0 -43 -23.5 -67t-65.5 -24q-34 0 -65 18q-25 16 -38 16q-12 0 -20.5 -8.5t-8.5 -24.5z" />
<glyph unicode="&#x309;" horiz-adv-x="5" d="M-301 944q3 36 33 54t72 18q40 0 67.5 -20t27.5 -52q0 -33 -21.5 -51t-48.5 -20l-2 -19h-52l-2 55q62 0 62 36q0 11 -9.5 17.5t-22.5 6.5q-36 0 -41 -25h-63z" />
<glyph unicode="&#x323;" horiz-adv-x="5" d="M-359 -224q-28 0 -46.5 18.5t-18.5 46.5t18.5 46.5t46.5 18.5q26 0 44.5 -18.5t18.5 -46.5t-18.5 -46.5t-44.5 -18.5z" />
<glyph unicode="&#x3c0;" horiz-adv-x="710" d="M39 477v71h628v-71h-80v-477h-90v477h-288v-477h-91v477h-79z" />
<glyph unicode="&#x901;" horiz-adv-x="0" d="M-151 818q-98 0 -151 50t-53 126h69q0 -46 35 -80.5t100 -34.5t100 34.5t35 80.5h68q0 -76 -53 -126t-150 -50zM-151 982q-17 0 -29 12t-12 29t12 29.5t29 12.5q18 0 30 -12.5t12 -29.5t-12 -29t-30 -12z" />
<glyph unicode="&#x902;" horiz-adv-x="0" d="M-147 835q-24 0 -40.5 16.5t-16.5 39.5t16.5 39.5t40.5 16.5q23 0 39.5 -16.5t16.5 -39.5t-16.5 -39.5t-39.5 -16.5z" />
<glyph unicode="&#x903;" horiz-adv-x="232" d="M116 436q-24 0 -40.5 16t-16.5 40q0 23 17 39.5t40 16.5q24 0 40.5 -16.5t16.5 -39.5q0 -24 -16.5 -40t-40.5 -16zM116 132q-23 0 -40 16.5t-17 39.5t17 39.5t40 16.5q24 0 40.5 -16.5t16.5 -39.5t-16.5 -39.5t-40.5 -16.5z" />
<glyph unicode="&#x905;" horiz-adv-x="828" d="M282 448q61 0 95 33.5t34 78.5q0 54 -35 86t-88 32q-55 0 -92 -31.5t-37 -83.5h-78q0 85 58 135.5t149 50.5q88 0 143 -48.5t55 -129.5q0 -58 -31.5 -98.5t-90.5 -55.5v-2q28 -4 54 -19h221v344h215v-70h-132v-670h-83v327l-158 1q18 -37 18 -82q0 -88 -55.5 -140.5 t-147.5 -52.5q-98 0 -160 56.5t-62 146.5h78q0 -57 38.5 -94t99.5 -37q60 0 96 35.5t36 92.5q0 43 -23 75h-3l-1 6q-37 46 -113 46h-39v68h39z" />
<glyph unicode="&#x906;" horiz-adv-x="1114" d="M282 448q61 0 95 33.5t34 78.5q0 54 -35 86t-88 32q-55 0 -92 -31.5t-37 -83.5h-78q0 85 58 135.5t149 50.5q88 0 143 -48.5t55 -129.5q0 -58 -31.5 -98.5t-90.5 -55.5v-2q28 -4 54 -19h221v344h509v-70h-131v-670h-84v670h-211v-670h-83v327l-158 1q18 -37 18 -82 q0 -88 -55.5 -140.5t-147.5 -52.5q-98 0 -160 56.5t-62 146.5h78q0 -57 38.5 -94t99.5 -37q60 0 96 35.5t36 92.5q0 43 -23 75h-3l-1 6q-37 46 -113 46h-39v68h39z" />
<glyph unicode="&#x907;" horiz-adv-x="580" d="M-36 670v70h653v-70h-152v-181h-177q-122 0 -122 -84q0 -42 30.5 -62t78.5 -20h44q41 0 76 -8.5t65 -27.5t47.5 -53.5t17.5 -81.5q0 -72 -47.5 -119t-132.5 -47q-71 0 -113.5 30t-57.5 63v-156h-79v256h75q5 -58 45 -93.5t108 -35.5q59 0 90.5 29.5t31.5 74.5 q0 59 -40 84t-101 25h-53q-72 2 -120.5 37.5t-48.5 105.5q0 75 53 109.5t130 34.5h119v120h-420z" />
<glyph unicode="&#x908;" horiz-adv-x="580" d="M174 79v-156h-79v256h75q5 -58 45 -93.5t108 -35.5q59 0 90.5 29.5t31.5 74.5q0 59 -40 84t-101 25h-53q-72 2 -120.5 37.5t-48.5 105.5q0 75 53 109.5t130 34.5h119v120h-420v70h421v74q0 88 41 140.5t125 52.5q78 0 120.5 -46.5t40.5 -122.5h-74q2 44 -21.5 71 t-63.5 27q-90 0 -90 -122v-74h154v-70h-152v-181h-177q-122 0 -122 -84q0 -42 30.5 -62t78.5 -20h44q41 0 76 -8.5t65 -27.5t47.5 -53.5t17.5 -81.5q0 -72 -47.5 -119t-132.5 -47q-71 0 -113.5 30t-57.5 63z" />
<glyph unicode="&#x909;" horiz-adv-x="575" d="M-27 670v70h629v-70h-122v-104q0 -61 -31 -102.5t-80 -49.5v-2q64 -14 102.5 -68t38.5 -126q0 -96 -58.5 -155.5t-160.5 -59.5q-105 0 -172.5 62.5t-67.5 161.5h80q0 -64 44.5 -106.5t111.5 -42.5q65 0 104.5 40.5t39.5 105.5q0 60 -37.5 104.5t-113.5 44.5h-46v74h36 q62 0 95.5 34.5t33.5 89.5v99h-426z" />
<glyph unicode="&#x90a;" horiz-adv-x="865" d="M-27 670v70h918v-70h-411v-104q0 -61 -31 -102.5t-80 -49.5v-2h208q103 0 167 -48.5t64 -148.5q0 -92 -53.5 -140t-140.5 -48q-15 0 -47 4v64q12 -1 34 -1q57 0 92 30t35 94q0 66 -42 96.5t-109 30.5h-109q42 -54 42 -131q0 -93 -59 -152t-160 -59q-105 0 -172.5 62.5 t-67.5 161.5h80q0 -64 44.5 -106.5t111.5 -42.5q65 0 104.5 40.5t39.5 105.5q0 60 -37.5 104.5t-113.5 44.5h-46v74h36q62 0 95.5 34.5t33.5 89.5v99h-426z" />
<glyph unicode="&#x90b;" horiz-adv-x="1021" d="M498 0v276l-273 -276h-104v6l377 356q-11 59 -54.5 96t-107.5 37q-81 0 -131 -51t-50 -137h-83q0 117 66.5 188t174.5 71q126 0 185 -98v202h-525v70h1075v-70h-472v-232h179q84 0 84 75v59h73v-354h-19q-56 0 -86.5 -30t-30.5 -76q0 -53 33 -78t85 -25q26 0 57 9v-68 q-32 -8 -68 -8q-82 0 -134.5 42t-52.5 122q0 64 38.5 107t104.5 54v127q-40 -23 -96 -23h-167v-371h-78z" />
<glyph unicode="&#x90c;" horiz-adv-x="900" d="M-27 670v70h953v-70h-251v-128q71 -14 113 -74.5t42 -151.5q0 -56 -16 -100h-7q-62 0 -93.5 -29.5t-31.5 -76.5q0 -52 32.5 -77t85.5 -25q34 0 58 8v-67q-34 -9 -67 -9q-84 0 -137 42.5t-53 123.5q0 62 39 105.5t102 51.5q6 25 6 54q0 68 -33.5 111t-94.5 43 q-66 0 -99.5 -49t-33.5 -133v-18h-71v18q0 82 -32.5 132t-94.5 50q-65 0 -100 -43t-35 -113q0 -79 41.5 -125t117.5 -46q9 0 29 2v-73q-13 -1 -34 -1q-114 0 -176 67t-62 177q0 106 57.5 168t150.5 62q72 0 114 -42t58 -104h3q32 123 140 142v128h-620z" />
<glyph unicode="&#x90d;" horiz-adv-x="652" d="M-27 670v70h705v-70h-112v-116q0 -114 -47.5 -163.5t-158.5 -37.5v74q66 -6 95.5 25t29.5 104v114h-300v-399q0 -85 40.5 -132.5t116.5 -47.5q71 0 110.5 41.5t39.5 115.5h82q0 -108 -61.5 -168.5t-168.5 -60.5q-120 0 -180.5 68t-60.5 186l-1 397h-129zM329 837 q-100 0 -152 51t-52 125h73q0 -46 33.5 -79t97.5 -33t97.5 33t33.5 79h72q0 -74 -51.5 -125t-151.5 -51z" />
<glyph unicode="&#x90f;" horiz-adv-x="652" d="M-27 670v70h705v-70h-112v-116q0 -114 -47.5 -163.5t-158.5 -37.5v74q66 -6 95.5 25t29.5 104v114h-300v-399q0 -85 40.5 -132.5t116.5 -47.5q71 0 110.5 41.5t39.5 115.5h82q0 -108 -61.5 -168.5t-168.5 -60.5q-120 0 -180.5 68t-60.5 186l-1 397h-129z" />
<glyph unicode="&#x910;" horiz-adv-x="652" d="M344 19q-120 0 -180.5 68t-60.5 186l-1 397h-129v70h508q-39 61 -65 94.5t-53 51.5t-50.5 22.5t-63.5 4.5h-42v68h41q55 0 87 -6t69.5 -31t72.5 -72.5t84 -131.5h117v-70h-112v-116q0 -114 -47.5 -163.5t-158.5 -37.5v74q66 -6 95.5 25t29.5 104v114h-300v-399 q0 -85 40.5 -132.5t116.5 -47.5q71 0 110.5 41.5t39.5 115.5h82q0 -108 -61.5 -168.5t-168.5 -60.5z" />
<glyph unicode="&#x911;" horiz-adv-x="1121" d="M282 448q61 0 95 33.5t34 78.5q0 54 -35 86t-88 32q-55 0 -92 -31.5t-37 -83.5h-78q0 85 58 135.5t149 50.5q88 0 143 -48.5t55 -129.5q0 -58 -31.5 -98.5t-90.5 -55.5v-2q28 -4 54 -19h221v344h509v-70h-131v-670h-84v670h-211v-670h-83v327l-158 1q18 -37 18 -82 q0 -88 -55.5 -140.5t-147.5 -52.5q-98 0 -160 56.5t-62 146.5h78q0 -57 38.5 -94t99.5 -37q60 0 96 35.5t36 92.5q0 43 -23 75h-3l-1 6q-37 46 -113 46h-39v68h39zM829 837q-100 0 -152 51t-52 125h73q0 -46 33.5 -79t97.5 -33t97.5 33t33.5 79h72q0 -74 -51.5 -125 t-151.5 -51z" />
<glyph unicode="&#x913;" horiz-adv-x="1121" d="M722 0h-83v327l-158 1q18 -37 18 -82q0 -88 -55.5 -140.5t-147.5 -52.5q-98 0 -160 56.5t-62 146.5h78q0 -57 38.5 -94t99.5 -37q60 0 96 35.5t36 92.5q0 43 -23 75h-3l-1 6q-37 46 -113 46h-39v68h39q61 0 95 33.5t34 78.5q0 54 -35 86t-88 32q-55 0 -92 -31.5 t-37 -83.5h-78q0 85 58 135.5t149 50.5q88 0 143 -48.5t55 -129.5q0 -58 -31.5 -98.5t-90.5 -55.5v-2q28 -4 54 -19h221v344h292q-39 61 -65 94.5t-53 51.5t-50.5 22.5t-63.5 4.5h-42v68h41q55 0 87 -6t69.5 -31t72.5 -72.5t84 -131.5h137v-70h-131v-670h-84v670h-211v-670z " />
<glyph unicode="&#x914;" horiz-adv-x="1121" d="M722 0h-83v327l-158 1q18 -37 18 -82q0 -88 -55.5 -140.5t-147.5 -52.5q-98 0 -160 56.5t-62 146.5h78q0 -57 38.5 -94t99.5 -37q60 0 96 35.5t36 92.5q0 43 -23 75h-3l-1 6q-37 46 -113 46h-39v68h39q61 0 95 33.5t34 78.5q0 54 -35 86t-88 32q-55 0 -92 -31.5 t-37 -83.5h-78q0 85 58 135.5t149 50.5q88 0 143 -48.5t55 -129.5q0 -58 -31.5 -98.5t-90.5 -55.5v-2q28 -4 54 -19h221v344h297q-83 66 -122 80.5t-121 14.5h-43v54h41q82 0 121.5 -12.5t107.5 -69.5q-35 64 -62 101t-55 53.5t-49 20.5t-60 4h-44v55h43q38 0 59 -2t48 -12 t46 -28t45.5 -52.5t53.5 -83.5t65 -123h138v-70h-131v-670h-84v670h-211v-670z" />
<glyph unicode="&#x915;" horiz-adv-x="995" d="M463 0v202q-51 -104 -180 -104q-95 0 -154 63.5t-59 168.5q0 104 60 166.5t156 62.5q126 0 177 -102v213h-490v70h1048v-70h-478v-217q49 106 173 106q92 0 150.5 -63.5t58.5 -163.5q0 -107 -58.5 -168.5t-150.5 -61.5q-37 0 -62 7v66q16 -4 42 -4q63 0 103.5 42.5 t40.5 116.5q0 71 -42 114t-105 43q-74 0 -112 -49t-38 -116v-322h-80zM309 168q74 0 114 49t40 111q0 64 -39.5 111.5t-114.5 47.5q-66 0 -110.5 -43t-44.5 -114q0 -75 43.5 -118.5t111.5 -43.5z" />
<glyph unicode="&#x916;" horiz-adv-x="933" d="M611 201q65 0 99.5 42.5t34.5 97.5t-34 97t-100 42q-59 0 -98.5 -37t-39.5 -100q0 -66 39 -104t99 -38zM595 136q-20 0 -38 3q-31 -63 -88 -102.5t-136 -39.5q-114 0 -182 65.5t-68 180.5v156h36q66 0 104 33.5t38 116.5v121h-288v70h987v-70h-132v-670h-83v218 q-45 -82 -150 -82zM335 70q107 0 154 94q-92 55 -92 179q0 90 56.5 146t141.5 56q104 0 150 -81v206h-400v-131q0 -107 -49.5 -154.5t-129.5 -47.5v-103q0 -74 45 -119t124 -45z" />
<glyph unicode="&#x917;" horiz-adv-x="746" d="M557 0v670h-178v-270q0 -78 -40.5 -127t-123.5 -49q-81 0 -124 46.5t-43 124.5v30h82v-31q0 -41 19.5 -69.5t62.5 -28.5q83 0 83 101v273h-322v70h799v-70h-132v-670h-83z" />
<glyph unicode="&#x918;" horiz-adv-x="710" d="M324 174q84 0 141 52.5t57 133.5v310h-339v-73q0 -60 32 -90t104 -30h47v-68h-53q-74 0 -110 -31.5t-36 -81.5q0 -59 43.5 -90.5t113.5 -31.5zM-27 670v70h764v-70h-131v-670h-84v221q-31 -55 -87.5 -85.5t-128.5 -30.5q-100 0 -161.5 47.5t-61.5 135.5q0 63 38 103 t94 50v2q-52 9 -84 45.5t-32 104.5v77h-126z" />
<glyph unicode="&#x919;" horiz-adv-x="660" d="M588 342q-22 0 -37 15t-15 36q0 22 15 37t37 15t37 -15t15 -37q0 -21 -15 -36t-37 -15zM-27 670v70h713v-70h-219v-181h-177q-120 0 -120 -83q0 -43 29.5 -63t76.5 -20h45q55 0 98.5 -14.5t75 -54t31.5 -100.5q0 -76 -55 -122t-156 -46q-112 0 -177 52.5t-67 140.5h82 q1 -58 42.5 -93.5t117.5 -35.5q65 0 99.5 29t34.5 76q0 58 -39.5 83t-100.5 25h-41q-75 0 -127.5 34t-52.5 111q0 73 52 107t129 34h119v121h-413z" />
<glyph unicode="&#x91a;" horiz-adv-x="735" d="M-27 670v70h788v-70h-131v-670h-84v204q-28 -48 -78.5 -76t-113.5 -28q-91 0 -151.5 54t-60.5 146q0 110 90 161h-182v66h363v-66h-35q-71 0 -114 -42t-43 -106q0 -67 44.5 -105t110.5 -38q75 0 122.5 52t47.5 128v320h-573z" />
<glyph unicode="&#x91b;" horiz-adv-x="817" d="M-27 670v70h871v-70h-219v-124q65 -12 105.5 -64.5t40.5 -139.5q0 -146 -102 -230.5t-271 -84.5q-148 0 -236.5 57t-88.5 162q0 69 39 111.5t100 53.5v3q-51 8 -83 45t-32 106v105h-124zM399 99q133 0 215 65.5t82 179.5q0 68 -32.5 106t-77.5 38q-42 0 -74 -29t-32 -87 q0 -37 17 -93h-69q-18 50 -18 101q0 75 38.5 116t99.5 51v123h-369v-102q0 -120 132 -120h22v-69h-20q-78 0 -116.5 -35t-38.5 -90q0 -75 63.5 -115t177.5 -40z" />
<glyph unicode="&#x91c;" horiz-adv-x="840" d="M-27 670v70h894v-70h-132v-670h-83v427h-190v-95q0 -90 -52.5 -145.5t-142.5 -55.5t-141 55.5t-51 145.5v167h84v-165q0 -58 29.5 -94t79.5 -36q52 0 82.5 36t30.5 94v165h271v171h-679z" />
<glyph unicode="&#x91d;" horiz-adv-x="849" d="M275 323h387v347h-197v-181h-177q-122 0 -122 -84q0 -42 30.5 -62t78.5 -20zM662 0v259l-189 1q49 -42 49 -116q0 -66 -44.5 -108.5t-127.5 -42.5q-38 0 -69.5 9.5t-51.5 24.5t-31 26.5t-18 23.5v-154h-79v248h75q6 -50 45 -82.5t106 -32.5q58 0 88 28t30 70q0 51 -36 80 t-105 29h-53q-72 2 -120.5 37.5t-48.5 105.5q0 75 53 109.5t130 34.5h119v120h-411v70h903v-70h-132v-670h-82z" />
<glyph unicode="&#x91e;" horiz-adv-x="810" d="M-27 670v70h863v-70h-131v-670h-84v293h-105q-9 -90 -68.5 -147t-157.5 -57q-94 0 -152 50t-68 124h79q12 -43 48 -72.5t94 -29.5q72 0 111.5 47t39.5 117q0 69 -39.5 116t-111.5 47q-59 0 -95.5 -30t-46.5 -72h-79q10 74 67 124t153 50t154.5 -54.5t70.5 -140.5h106v305 h-648z" />
<glyph unicode="&#x91f;" horiz-adv-x="650" d="M-27 670v70h704v-70h-213v-187h-101q-92 0 -151 -48.5t-59 -139.5q0 -79 52 -129.5t133 -50.5q84 0 135.5 52.5t51.5 135.5h80q0 -116 -73 -188t-192 -72q-118 0 -194 70t-76 181q0 124 79 192t210 68h23v116h-409z" />
<glyph unicode="&#x920;" horiz-adv-x="675" d="M338 118q82 0 134 50.5t52 130.5q0 79 -52 129.5t-134 50.5q-81 0 -133 -50.5t-52 -129.5t52 -130t133 -51zM338 47q-116 0 -192 70t-76 182q0 103 63.5 169.5t162.5 78.5v123h-323v70h729v-70h-324v-122q99 -12 163.5 -79t64.5 -170q0 -113 -76 -182.5t-192 -69.5z" />
<glyph unicode="&#x921;" horiz-adv-x="574" d="M-27 670v70h627v-70h-139v-181h-171q-120 0 -120 -83q0 -43 29.5 -63t76.5 -20h45q55 0 98.5 -14.5t75 -54t31.5 -100.5q0 -76 -55 -122t-156 -46q-112 0 -177 52.5t-67 140.5h82q1 -58 42.5 -93.5t117.5 -35.5q65 0 99.5 29t34.5 76q0 58 -39.5 83t-100.5 25h-41 q-75 0 -127.5 34t-52.5 111q0 73 52 107t129 34h114v121h-408z" />
<glyph unicode="&#x922;" horiz-adv-x="641" d="M-27 670v70h695v-70h-185v-172h-95q-106 0 -172 -55.5t-66 -161.5q0 -93 61 -152t161 -59q73 0 120.5 37t47.5 96q0 45 -28 74t-72 29q-38 0 -64.5 -24.5t-26.5 -63.5q0 -12 3 -19h-63q-2 18 -2 30q0 64 44 101t112 37q77 0 123 -45.5t46 -118.5q0 -88 -65 -141.5 t-176 -53.5q-131 0 -216 75t-85 200q0 133 82 204t212 71h40v112h-431z" />
<glyph unicode="&#x923;" horiz-adv-x="856" d="M282 254q50 0 79 33.5t29 87.5v295h-217v-295q0 -54 29.5 -87.5t79.5 -33.5zM-27 670v70h909v-70h-132v-670h-83v670h-195v-287q0 -90 -50 -145t-141 -55q-90 0 -140 56t-50 144v287h-118z" />
<glyph unicode="&#x924;" horiz-adv-x="694" d="M-27 670v70h748v-70h-132v-670h-84v426h-146q-96 0 -150.5 -45t-54.5 -133q0 -85 48 -132t139 -47h22v-67h-33q-119 0 -189.5 63.5t-70.5 183.5q0 125 77.5 187t207.5 62h150v172h-532z" />
<glyph unicode="&#x925;" horiz-adv-x="766" d="M577 0v229q-22 -54 -81 -92t-146 -38q-126 0 -198.5 73t-72.5 199q0 26 3 53h99q206 0 206 142q0 48 -29 79.5t-79 31.5q-52 0 -82 -31.5t-30 -84.5q0 -15 4 -43h-76q-4 28 -4 46q0 86 52.5 135.5t136.5 49.5q83 0 134 -51.5t51 -133.5q0 -100 -69.5 -150.5t-185.5 -50.5 h-51q1 -89 52.5 -141.5t150.5 -52.5q91 0 153 57t62 153v361h216v-70h-132v-670h-84z" />
<glyph unicode="&#x926;" horiz-adv-x="609" d="M-27 670v70h663l-1 -70h-144v-182h-148q-82 0 -135 -43t-53 -122q0 -71 42.5 -114t114.5 -43q56 0 99 35t43 101h77v-318h-82v192q-21 -35 -63.5 -56t-95.5 -21q-98 0 -159 60.5t-61 166.5q0 113 75 173.5t191 60.5h72v110h-435z" />
<glyph unicode="&#x927;" horiz-adv-x="712" d="M305 98q-95 0 -156 45.5t-61 128.5q0 62 36.5 99.5t85.5 45.5v3q-54 13 -91.5 54.5t-37.5 109.5q0 73 47.5 119t123.5 46q77 0 121.5 -44t44.5 -115q0 -22 -1 -33h-64q1 13 1 24q0 42 -26.5 70t-72.5 28q-47 0 -74 -29.5t-27 -73.5q0 -57 41.5 -89.5t110.5 -32.5h57v-68 h-54q-66 0 -101 -29t-35 -77q0 -55 42 -83.5t109 -28.5q89 0 146.5 56.5t57.5 147.5v368h214v-70h-130v-670h-84v220q-30 -58 -88 -90t-135 -32z" />
<glyph unicode="&#x928;" horiz-adv-x="789" d="M267 188q55 0 90.5 34.5t35.5 88.5q0 53 -35.5 88t-90.5 35q-56 0 -92 -34.5t-36 -89.5q0 -54 35.5 -88t92.5 -34zM-27 670v70h843v-70h-132v-670h-83v434h-195q54 -52 54 -133q0 -84 -54.5 -134t-139.5 -50q-88 0 -145.5 53t-57.5 140q0 90 59 142t151 52h328v166h-628z " />
<glyph unicode="&#x92a;" horiz-adv-x="655" d="M319 268q69 0 108.5 44.5t39.5 110.5v247h-299v-225q0 -84 37.5 -130.5t113.5 -46.5zM-27 670v70h708v-70h-131v-670h-83v283q-52 -86 -168 -86q-105 0 -159.5 67t-54.5 181v225h-112z" />
<glyph unicode="&#x92b;" horiz-adv-x="985" d="M309 268q65 0 102 43.5t37 107.5v251h-280v-229q0 -82 35 -127.5t106 -45.5zM-27 670v70h1039v-70h-481v-216q49 105 177 105q91 0 149.5 -63t58.5 -162q0 -108 -58.5 -170t-150.5 -62q-37 0 -64 8v65q22 -5 45 -5q63 0 103.5 43.5t40.5 116.5q0 71 -42 114t-106 43 q-76 0 -114.5 -51.5t-38.5 -122.5v-313h-83v281q-50 -84 -158 -84q-100 0 -152.5 65.5t-52.5 178.5v229h-112z" />
<glyph unicode="&#x92c;" horiz-adv-x="689" d="M504 0v196q-25 -47 -74 -76t-117 -29q-104 0 -173.5 66t-69.5 173t68.5 173t171.5 66q68 0 117.5 -29.5t76.5 -76.5v207h-531v70h742v-70h-131v-670h-80zM326 512q-73 0 -123 -44l273 -240q31 46 31 104q0 72 -47.5 126t-133.5 54zM328 153q75 0 123 45l-275 240 q-32 -46 -32 -108q0 -81 53 -129t131 -48z" />
<glyph unicode="&#x92d;" horiz-adv-x="795" d="M260 172q49 0 76.5 35t27.5 97v81h-92q-53 0 -85.5 -28.5t-32.5 -78.5q0 -48 30 -77t76 -29zM261 101q-83 0 -134 48.5t-51 128.5q0 83 54.5 129.5t139.5 46.5h94v94q0 129 -92 129q-41 0 -66.5 -28t-25.5 -77q0 -19 4 -38h-83q-4 26 -4 41q0 79 45.5 126.5t126.5 47.5 q173 0 173 -214v-81h164v286h216v-70h-133v-670h-83v385h-164v-77q0 -100 -47 -153.5t-134 -53.5z" />
<glyph unicode="&#x92e;" horiz-adv-x="786" d="M232 172q49 0 76.5 35t27.5 97v81h-93q-52 0 -84.5 -29t-32.5 -78q0 -48 30 -77t76 -29zM597 454v216h-183v-216h183zM-27 670v70h839v-70h-131v-670h-84v385h-183v-77q0 -100 -47 -153.5t-135 -53.5q-83 0 -133.5 48.5t-50.5 128.5q0 83 54 129.5t139 46.5h95v216h-363z " />
<glyph unicode="&#x92f;" horiz-adv-x="737" d="M350 182q85 0 142 52.5t57 135.5v300h-201v-83q0 -186 -197 -194v-7q0 -95 52.5 -149.5t146.5 -54.5zM-27 670v70h791v-70h-132v-670h-83v219q-29 -48 -84 -77.5t-132 -29.5q-126 0 -195 76t-69 206q0 23 3 47h14q89 0 134 36.5t45 123.5v69h-292z" />
<glyph unicode="&#x930;" horiz-adv-x="535" d="M-27 670v70h589v-70h-120v-96q0 -114 -56 -174.5t-170 -60.5h-51v-137q0 -63 29 -101t85 -38q53 0 83.5 35.5t30.5 93.5v19h80v-17q0 -93 -51.5 -148t-140.5 -55q-97 0 -147.5 59t-50.5 157v200h105q171 0 171 167v96h-386z" />
<glyph unicode="&#x931;" horiz-adv-x="535" d="M-27 670v70h589v-70h-120v-96q0 -114 -56 -174.5t-170 -60.5h-51v-137q0 -63 29 -101t85 -38q53 0 83.5 35.5t30.5 93.5v19h80v-17q0 -93 -51.5 -148t-140.5 -55q-97 0 -147.5 59t-50.5 157v200h105q171 0 171 167v96h-386zM115 -160q-24 0 -40 16t-16 39q0 24 16 40.5 t40 16.5t40 -16.5t16 -40.5q0 -23 -16 -39t-40 -16z" />
<glyph unicode="&#x932;" horiz-adv-x="904" d="M596 69q-8 0 -34 2v73q22 -2 29 -2q75 0 117 47t42 123q0 69 -33.5 113t-96.5 44q-65 0 -99 -49.5t-34 -133.5v-15h-71v15q0 83 -32.5 133t-94.5 50q-65 0 -100 -43.5t-35 -113.5q0 -76 42 -123t117 -47q9 0 29 2v-73q-26 -2 -34 -2q-114 0 -176 68t-62 177 q0 106 57.5 167.5t150.5 61.5q73 0 115 -42t58 -103h3q14 55 50 95t98 48v129h-629v70h957v-70h-246v-133q69 -17 109.5 -75.5t40.5 -147.5q0 -109 -62 -177t-176 -68z" />
<glyph unicode="&#x933;" horiz-adv-x="998" d="M305 167q68 0 110 42.5t42 110.5q0 70 -42 113.5t-110 43.5t-111 -43.5t-43 -114.5q0 -68 43.5 -110t110.5 -42zM692 167q67 0 110.5 42t43.5 110q0 71 -43 114.5t-110 43.5q-69 0 -111 -44t-42 -113q0 -68 42 -110.5t110 -42.5zM703 95q-75 0 -129.5 39.5t-73.5 100.5 h-3q-20 -62 -74 -101t-129 -39q-96 0 -160 63t-64 162q0 102 63.5 165.5t159.5 63.5q76 0 127.5 -38t76.5 -100h3q22 56 66.5 92.5t107.5 43.5v123h-701v70h1050v-70h-267v-127q77 -16 124.5 -76t47.5 -147q0 -99 -64.5 -162t-160.5 -63z" />
<glyph unicode="&#x935;" horiz-adv-x="674" d="M319 163q81 0 125 50.5t44 114.5v1q0 66 -43.5 116t-125.5 50q-72 0 -119.5 -45t-47.5 -120q0 -77 47 -122t120 -45zM701 670h-132v-670h-81v201q-57 -105 -190 -105q-102 0 -165 65t-63 172q0 102 64 166t164 64q68 0 116.5 -28.5t73.5 -76.5v212h-515v70h728v-70z" />
<glyph unicode="&#x936;" horiz-adv-x="814" d="M303 -8q-102 0 -157.5 60.5t-55.5 163.5v175h146q85 0 138.5 38.5t53.5 113.5q0 62 -33 97.5t-90 35.5t-90.5 -35.5t-33.5 -96.5q0 -22 3 -44h-83q-4 32 -4 46q0 91 56.5 147t151.5 56q94 0 151 -56t57 -155q0 -106 -69 -162t-180 -56h-90v-110q0 -66 31.5 -106t95.5 -40 q56 0 87.5 36.5t31.5 97.5v13h81v-14q0 -95 -53 -150t-145 -55zM625 0v740h216v-70h-132v-670h-84z" />
<glyph unicode="&#x937;" horiz-adv-x="661" d="M474 421v249h-309zM320 263q55 0 92 26.5t52 71.5l-299 242v-160q0 -85 39 -132.5t116 -47.5zM-27 670v70h715v-70h-132v-670h-82v278q-52 -86 -170 -86q-107 0 -163 68t-56 185v225h-112z" />
<glyph unicode="&#x938;" horiz-adv-x="819" d="M429 579q0 -105 -61 -161h263v252h-202v-91zM-27 670v70h873v-70h-133v-670h-82v349h-466v-146q0 -64 29 -102t87 -38q53 0 84 35.5t31 93.5v12h80q1 -7 1 -16q0 -90 -52.5 -143.5t-142.5 -53.5q-96 0 -147.5 59.5t-51.5 156.5v204h92q84 0 128 45t44 123v91h-374z" />
<glyph unicode="&#x939;" horiz-adv-x="586" d="M528 62q-11 -70 -69.5 -118t-152.5 -48q-108 0 -169.5 62.5t-61.5 158.5q0 63 28.5 112t79.5 76q-84 36 -84 121q0 62 44.5 94.5t117.5 32.5h131v117h-419v70h639v-70h-141v-178h-183q-47 0 -77 -19.5t-30 -61.5q0 -61 71 -82q28 5 56 5q97 0 152.5 -47.5t67.5 -117.5 h-80q-10 39 -46.5 68.5t-95.5 29.5q-70 0 -109.5 -43t-39.5 -108q0 -66 39.5 -108t109.5 -42q58 0 94.5 28.5t47.5 67.5h80z" />
<glyph unicode="&#x93c;" horiz-adv-x="0" d="M-359 -148q-24 0 -40 16t-16 39q0 24 16 40.5t40 16.5t40 -16.5t16 -40.5q0 -23 -16 -39t-40 -16z" />
<glyph unicode="&#x93d;" horiz-adv-x="576" d="M76 61v72h233q41 0 62 17.5t21 45.5q0 30 -26.5 62.5t-64.5 63t-76 64t-64.5 77t-26.5 88.5q0 62 41.5 91.5t109.5 29.5h203v-71h-184q-85 0 -85 -61q0 -31 26.5 -64t64.5 -64t76 -64t64.5 -75.5t26.5 -87.5q0 -54 -38.5 -89t-109.5 -35h-253z" />
<glyph unicode="&#x93e;" horiz-adv-x="294" d="M105 0v670h-132v70h347v-70h-131v-670h-84z" />
<glyph unicode="&#x93f;" horiz-adv-x="294" d="M189 670v-670h-84v670h-132v70h132q1 67 33 117.5t86.5 80t121 44t144.5 14.5q104 0 188.5 -27t140 -87t55.5 -145v-17h-84v16q0 52 -27.5 90.5t-72.5 59.5t-95.5 31t-104.5 10q-57 0 -106 -8.5t-95.5 -27.5t-73.5 -58t-27 -93h132v-70h-131z" />
<glyph unicode="&#x940;" horiz-adv-x="294" d="M-189 720v58q0 99 45.5 158.5t144.5 59.5q188 0 188 -218v-38h131v-70h-131v-670h-84v670h-132v70h134v42q0 144 -106 144q-108 0 -108 -144v-62h-82z" />
<glyph unicode="&#x941;" horiz-adv-x="0" d="M-197 -300q-101 0 -167 52.5t-63 157.5h75q-4 -71 39.5 -107.5t113.5 -36.5q59 0 93.5 27.5t34.5 77.5q0 38 -25 65t-69 27h-24v66h24q79 0 122.5 -44.5t43.5 -114.5q0 -79 -53 -124.5t-145 -45.5z" />
<glyph unicode="&#x942;" horiz-adv-x="0" d="M-176 -291q-72 0 -118.5 40.5t-46.5 113.5q0 75 52.5 119.5t138.5 44.5q118 0 181 -76.5t63 -202.5q0 -22 -1 -33h-69v41q0 98 -47 152.5t-126 54.5q-56 0 -90 -27.5t-34 -73.5q0 -42 29 -67t73 -25q9 0 33 2v-62q-13 -1 -38 -1z" />
<glyph unicode="&#x943;" horiz-adv-x="0" d="M-137 -310q-80 0 -135.5 41.5t-55.5 126.5q0 75 50 122t139 47h34v-59h-28q-54 0 -84 -30t-30 -77q0 -53 34.5 -78t87.5 -25q41 0 73 10v-65q-37 -13 -85 -13z" />
<glyph unicode="&#x944;" horiz-adv-x="0" d="M-141 -447q-73 0 -122.5 32.5t-49.5 98.5q0 45 25.5 74.5t65.5 38.5v3q-90 21 -90 108q0 61 43 90t102 29h62v-48h-33q-41 0 -67.5 -17.5t-26.5 -56.5q0 -38 27.5 -56t70.5 -18h47v-62h-46q-43 0 -71 -18t-28 -58q0 -39 29 -56.5t74 -17.5q53 0 98 15v-63 q-45 -18 -110 -18z" />
<glyph unicode="&#x945;" horiz-adv-x="0" d="M-151 818q-100 0 -152 51t-52 125h73q0 -46 33.5 -79t97.5 -33t97.5 33t33.5 79h72q0 -74 -51.5 -125t-151.5 -51z" />
<glyph unicode="&#x947;" horiz-adv-x="0" d="M-185 736q-39 62 -65.5 96.5t-54.5 53t-51 23t-64 4.5h-42v68h41q55 0 87 -6t69.5 -31.5t73 -73.5t85.5 -134h-79z" />
<glyph unicode="&#x948;" horiz-adv-x="0" d="M-178 737q-86 68 -125.5 83t-121.5 15h-43v54h41q82 0 121.5 -12.5t107.5 -69.5q-35 64 -62 101t-55 53.5t-49 20.5t-60 4h-44v55h43q38 0 59 -2t48 -12t46 -28.5t46 -53.5t54.5 -84t65.5 -124h-72z" />
<glyph unicode="&#x949;" horiz-adv-x="294" d="M105 0v670h-132v70h347v-70h-131v-670h-84zM147 818q-100 0 -152 51t-52 125h73q0 -46 33.5 -79t97.5 -33t97.5 33t33.5 79h72q0 -74 -51.5 -125t-151.5 -51z" />
<glyph unicode="&#x94b;" horiz-adv-x="294" d="M189 0h-84v670h-132v70h133q-39 61 -65 94.5t-53 51.5t-50.5 22.5t-63.5 4.5h-42v68h41q55 0 87 -6t69.5 -31t72.5 -72.5t84 -131.5h134v-70h-131v-670z" />
<glyph unicode="&#x94c;" horiz-adv-x="294" d="M189 0h-84v670h-132v70h136q-83 66 -122 80.5t-121 14.5h-43v54h41q82 0 121.5 -12.5t107.5 -69.5q-35 64 -62 101t-55 53.5t-49 20.5t-60 4h-44v55h43q38 0 59 -2t48 -12t46 -28t45.5 -52.5t53.5 -83.5t65 -123h137v-70h-131v-670z" />
<glyph unicode="&#x94d;" horiz-adv-x="0" d="M-64 -260l-122 199h84l124 -199h-86z" />
<glyph unicode="&#x950;" horiz-adv-x="1056" d="M301 12q-98 0 -160 56t-62 147h79q0 -57 38.5 -94t99.5 -37t96.5 37t35.5 98q0 52 -35 91t-106 39h-39v71h39q62 0 96 35t34 83q0 57 -35.5 90.5t-89.5 33.5q-55 0 -91 -31t-36 -83h-78q0 84 57.5 134.5t148.5 50.5q89 0 145 -50.5t56 -133.5q0 -61 -31.5 -104t-91.5 -57 v-3q25 -5 41 -13h60q58 0 86.5 26t28.5 91q0 197 188 197q104 0 149.5 -62t45.5 -185v-136q0 -139 -61 -208.5t-193 -69.5q-40 0 -98 10v70q50 -8 84 -8q104 0 145.5 51.5t41.5 156.5v144q0 81 -26 123.5t-88 42.5q-110 0 -110 -127q0 -98 -43 -140t-138 -42h-2 q24 -42 24 -95q0 -90 -56.5 -144.5t-148.5 -54.5zM576 744q-98 0 -151 50t-53 126h68q0 -45 35.5 -79.5t100.5 -34.5q64 0 99.5 34.5t35.5 79.5h68q0 -76 -53 -126t-150 -50zM576 908q-18 0 -29.5 12t-11.5 30t11.5 30t29.5 12t30 -12.5t12 -29.5q0 -18 -12 -30t-30 -12z " />
<glyph unicode="&#x958;" horiz-adv-x="995" d="M463 0v202q-51 -104 -180 -104q-95 0 -154 63.5t-59 168.5q0 104 60 166.5t156 62.5q126 0 177 -102v213h-490v70h1048v-70h-478v-217q49 106 173 106q92 0 150.5 -63.5t58.5 -163.5q0 -107 -58.5 -168.5t-150.5 -61.5q-37 0 -62 7v66q16 -4 42 -4q63 0 103.5 42.5 t40.5 116.5q0 71 -42 114t-105 43q-74 0 -112 -49t-38 -116v-322h-80zM269 -95q-24 0 -40 16t-16 39q0 24 16 40.5t40 16.5t40 -16.5t16 -40.5q0 -23 -16 -39t-40 -16zM309 168q74 0 114 49t40 111q0 64 -39.5 111.5t-114.5 47.5q-66 0 -110.5 -43t-44.5 -114 q0 -75 43.5 -118.5t111.5 -43.5z" />
<glyph unicode="&#x959;" horiz-adv-x="933" d="M595 136q-20 0 -38 3q-31 -63 -88 -102.5t-136 -39.5q-114 0 -182 65.5t-68 180.5v156h36q66 0 104 33.5t38 116.5v121h-288v70h987v-70h-132v-670h-83v218q-45 -82 -150 -82zM316 -193q-24 0 -40 16t-16 39q0 24 16 40.5t40 16.5t40 -16.5t16 -40.5q0 -23 -16 -39 t-40 -16zM611 201q65 0 99.5 42.5t34.5 97.5t-34 97t-100 42q-59 0 -98.5 -37t-39.5 -100q0 -66 39 -104t99 -38zM335 70q107 0 154 94q-92 55 -92 179q0 90 56.5 146t141.5 56q104 0 150 -81v206h-400v-131q0 -107 -49.5 -154.5t-129.5 -47.5v-103q0 -74 45 -119t124 -45z " />
<glyph unicode="&#x95a;" horiz-adv-x="745" d="M557 0v670h-178v-270q0 -78 -40.5 -127t-123.5 -49q-81 0 -124 46.5t-43 124.5v30h82v-31q0 -41 19.5 -69.5t62.5 -28.5q83 0 83 101v273h-322v70h799v-70h-132v-670h-83zM219 28q-24 0 -40 16t-16 39q0 24 16 40.5t40 16.5t40 -16.5t16 -40.5q0 -23 -16 -39t-40 -16z " />
<glyph unicode="&#x95b;" horiz-adv-x="840" d="M-27 670v70h894v-70h-132v-670h-83v427h-190v-95q0 -90 -52.5 -145.5t-142.5 -55.5t-141 55.5t-51 145.5v167h84v-165q0 -58 29.5 -94t79.5 -36q52 0 82.5 36t30.5 94v165h271v171h-679zM271 -60q-24 0 -40 16t-16 39q0 24 16 40.5t40 16.5t40 -16.5t16 -40.5 q0 -23 -16 -39t-40 -16z" />
<glyph unicode="&#x95c;" horiz-adv-x="574" d="M-27 670v70h627v-70h-139v-181h-171q-120 0 -120 -83q0 -43 29.5 -63t76.5 -20h45q55 0 98.5 -14.5t75 -54t31.5 -100.5q0 -76 -55 -122t-156 -46q-112 0 -177 52.5t-67 140.5h82q1 -58 42.5 -93.5t117.5 -35.5q65 0 99.5 29t34.5 76q0 58 -39.5 83t-100.5 25h-41 q-75 0 -127.5 34t-52.5 111q0 73 52 107t129 34h114v121h-408zM310 -206q-24 0 -40 16t-16 39q0 24 16 40.5t40 16.5t40 -16.5t16 -40.5q0 -23 -16 -39t-40 -16z" />
<glyph unicode="&#x95d;" horiz-adv-x="641" d="M-27 670v70h695v-70h-185v-172h-95q-106 0 -172 -55.5t-66 -161.5q0 -93 61 -152t161 -59q73 0 120.5 37t47.5 96q0 45 -28 74t-72 29q-38 0 -64.5 -24.5t-26.5 -63.5q0 -12 3 -19h-63q-2 18 -2 30q0 64 44 101t112 37q77 0 123 -45.5t46 -118.5q0 -88 -65 -141.5 t-176 -53.5q-131 0 -216 75t-85 200q0 133 82 204t212 71h40v112h-431zM347 -183q-24 0 -40 16t-16 39q0 24 16 40.5t40 16.5t40 -16.5t16 -40.5q0 -23 -16 -39t-40 -16z" />
<glyph unicode="&#x95e;" horiz-adv-x="985" d="M309 268q65 0 102 43.5t37 107.5v251h-280v-229q0 -82 35 -127.5t106 -45.5zM-27 670v70h1039v-70h-481v-216q49 105 177 105q91 0 149.5 -63t58.5 -162q0 -108 -58.5 -170t-150.5 -62q-37 0 -64 8v65q22 -5 45 -5q63 0 103.5 43.5t40.5 116.5q0 71 -42 114t-106 43 q-76 0 -114.5 -51.5t-38.5 -122.5v-313h-83v281q-50 -84 -158 -84q-100 0 -152.5 65.5t-52.5 178.5v229h-112zM260 9q-24 0 -40 16t-16 39q0 24 16 40.5t40 16.5t40 -16.5t16 -40.5q0 -23 -16 -39t-40 -16z" />
<glyph unicode="&#x960;" horiz-adv-x="980" d="M498 0v276l-273 -276h-104v6l377 356q-11 59 -54.5 96t-107.5 37q-81 0 -131 -51t-50 -137h-83q0 117 66.5 188t174.5 71q126 0 185 -98v202h-525v70h1076v-70h-473v-232h179q84 0 84 75v59h73v-356h-41q-93 0 -93 -74q0 -37 27.5 -55t70.5 -18h47v-63h-47q-99 0 -99 -76 q0 -39 29 -56.5t75 -17.5q49 0 97 16v-63q-43 -19 -109 -19q-73 0 -122.5 33t-49.5 99q0 45 25.5 74.5t65.5 38.5v2q-91 21 -91 109q0 61 42.5 90t99.5 29v129q-40 -23 -96 -23h-167v-371h-78z" />
<glyph unicode="&#x961;" horiz-adv-x="909" d="M-27 670v70h958v-70h-256v-128q71 -14 113 -74.5t42 -151.5q0 -56 -16 -100h-37q-93 0 -93 -74q0 -37 27.5 -55t70.5 -18h47v-63h-47q-99 0 -99 -76q0 -39 29 -56.5t74 -17.5q53 0 98 16v-63q-43 -19 -109 -19q-73 0 -122.5 33t-49.5 100q0 44 25.5 73.5t64.5 38.5v2 q-90 21 -90 109q0 59 41 88t98 31q6 24 6 52q0 68 -33.5 111t-94.5 43q-66 0 -99.5 -49t-33.5 -133v-18h-71v18q0 82 -32.5 132t-94.5 50q-65 0 -100 -43t-35 -113q0 -79 41.5 -125t117.5 -46q9 0 29 2v-73q-13 -1 -34 -1q-114 0 -176 67t-62 177q0 106 57.5 168t150.5 62 q72 0 114 -42t58 -104h3q32 123 140 142v128h-620z" />
<glyph unicode="&#x962;" horiz-adv-x="0" d="M103 -463q-62 0 -102 31.5t-40 90.5q0 46 28.5 78t74.5 39q2 11 2 34q0 50 -22.5 80t-66.5 30q-46 0 -69.5 -35t-23.5 -94v-13h-56v13q0 59 -23 94t-68 35t-70 -30.5t-25 -80.5q0 -54 29.5 -86.5t82.5 -32.5q16 0 21 2v-58q-8 -1 -24 -1q-84 0 -129.5 48.5t-45.5 128.5 q0 79 42 124t110 45q53 0 84 -30.5t42 -74.5h2q11 44 43.5 74.5t88.5 30.5q65 0 105.5 -45.5t40.5 -123.5q0 -36 -11 -72h-6q-45 0 -69 -21t-24 -54q0 -36 25 -54.5t61 -18.5q24 0 43 7v-55q-23 -5 -50 -5z" />
<glyph unicode="&#x963;" horiz-adv-x="0" d="M171 -561q-31 -11 -79 -11q-55 0 -90.5 23.5t-35.5 72.5q0 33 18.5 54.5t46.5 27.5v2q-65 15 -65 81q0 43 28.5 65t69.5 24q2 10 2 32q0 50 -22.5 80t-66.5 30q-46 0 -69.5 -35t-23.5 -94v-13h-56v13q0 59 -23 94t-68 35t-70 -30.5t-25 -80.5q0 -54 29.5 -86.5 t82.5 -32.5q16 0 21 2v-58q-8 -1 -24 -1q-84 0 -129.5 48.5t-45.5 128.5q0 79 42 124t110 45q53 0 84 -30.5t42 -74.5h2q11 44 43.5 74.5t88.5 30.5q65 0 105.5 -45.5t40.5 -123.5q0 -36 -11 -72h-29q-66 0 -66 -52t70 -52h33v-51h-32q-72 0 -72 -53q0 -51 74 -51 q44 0 70 11v-51z" />
<glyph unicode="&#x964;" horiz-adv-x="282" d="M239 741v-741h-82v741h82z" />
<glyph unicode="&#x965;" horiz-adv-x="493" d="M239 741v-741h-82v741h82zM450 741v-741h-83v741h83z" />
<glyph unicode="&#x966;" horiz-adv-x="628" d="M62 369q0 83 11.5 145.5t39 114t78 78.5t123.5 27q72 0 122.5 -27t78 -78.5t39 -114t11.5 -145.5q0 -84 -11.5 -147t-39 -115t-78 -79.5t-122.5 -27.5q-73 0 -123.5 27.5t-78 79.5t-39 115t-11.5 147zM475 369q0 50 -3 87.5t-13 76t-27 63t-47 40t-71 15.5 q-42 0 -72 -15.5t-47 -40t-27 -63t-13 -76t-3 -87.5q0 -52 3 -90t13 -77.5t27 -63.5t47 -39.5t72 -15.5q51 0 84.5 21.5t49.5 64.5t21.5 88.5t5.5 111.5z" />
<glyph unicode="&#x967;" horiz-adv-x="320" d="M134 0v640h-96v83h188v-723h-92z" />
<glyph unicode="&#x968;" horiz-adv-x="575" d="M51 8v65q55 45 81.5 66t74 62t71 65.5t56.5 61.5t48.5 65t27 61t11.5 64q0 140 -133 140q-68 0 -105.5 -42.5t-40.5 -113.5h-88q4 112 68 173t165 61q103 0 163.5 -57t60.5 -157q0 -50 -21.5 -103t-50 -93t-77 -88.5t-81 -76t-83.5 -69.5q-7 -5 -10 -8h344v-76h-481z" />
<glyph unicode="&#x969;" horiz-adv-x="589" d="M60 541q7 92 71 144t166 52t160 -52.5t58 -133.5q0 -62 -35.5 -107t-92.5 -58v-5q65 -16 103 -63t38 -123q0 -88 -60 -144t-169 -56q-106 0 -174 55.5t-76 157.5h88q7 -60 49 -98t112 -38t106.5 36.5t36.5 94.5q0 75 -50 108t-151 33h-23v76h24q186 2 186 122 q0 53 -34.5 85t-98.5 32q-62 0 -100 -32t-45 -86h-89z" />
<glyph unicode="&#x96a;" horiz-adv-x="629" d="M410 0v161h-370v69l351 486h109v-476h100v-79h-100v-161h-90zM145 240h269v381z" />
<glyph unicode="&#x96b;" horiz-adv-x="628" d="M88 724h435v-80h-351v-228q23 32 68 52.5t97 20.5q63 0 110 -21t72.5 -57t37.5 -76t12 -85q0 -111 -63 -181.5t-184 -70.5q-105 0 -170 54t-79 144h89q13 -57 55 -89t106 -32q79 0 119 47.5t40 125.5t-40 120.5t-118 42.5q-54 0 -93 -25.5t-57 -69.5h-86v408z" />
<glyph unicode="&#x96c;" horiz-adv-x="635" d="M549 551h-84q-22 111 -137 111q-89 0 -133 -68.5t-43 -225.5q23 52 76.5 81.5t119.5 29.5q103 0 164.5 -64t61.5 -177q0 -104 -61 -172t-175 -68q-63 0 -109.5 18t-76 49.5t-47.5 80t-25 102.5t-7 123q0 367 256 367q98 0 154 -53t66 -134zM329 402q-68 0 -117 -40.5 t-49 -116.5t44 -123.5t126 -47.5q70 0 111.5 43.5t41.5 117.5q0 78 -40 122.5t-117 44.5z" />
<glyph unicode="&#x96d;" horiz-adv-x="546" d="M33 721h474v-69l-278 -652h-92l282 643h-386v78z" />
<glyph unicode="&#x96e;" horiz-adv-x="631" d="M194 376q-116 45 -116 166q0 83 62 137.5t175 54.5t175.5 -54.5t62.5 -137.5q0 -58 -31 -101.5t-85 -64.5q62 -19 98.5 -66.5t36.5 -114.5q0 -98 -71 -156.5t-186 -58.5t-185 58.5t-70 156.5q0 67 36 115t98 66zM315 406q67 0 108.5 34.5t41.5 90.5q0 61 -40 94t-110 33 q-69 0 -109 -33t-40 -95q0 -56 41.5 -90t107.5 -34zM315 336q-74 0 -121 -34.5t-47 -103.5q0 -64 45.5 -103t122.5 -39t122 39t45 103q0 67 -46 102.5t-121 35.5z" />
<glyph unicode="&#x96f;" horiz-adv-x="630" d="M95 194h84q21 -119 145 -119q83 0 122.5 65t37.5 219q-21 -45 -70 -70.5t-109 -25.5q-103 0 -167.5 62t-64.5 174q0 107 62 172.5t176 65.5q140 0 196.5 -91t56.5 -271q0 -191 -54.5 -283.5t-190.5 -92.5q-102 0 -159 55t-65 140zM320 340q67 0 110 41.5t43 112.5 q0 75 -42 121t-118 46q-70 0 -111.5 -44t-41.5 -116q0 -73 41 -117t119 -44z" />
<glyph unicode="&#x970;" horiz-adv-x="493" d="M249 510q72 0 118 -45.5t46 -117.5q0 -70 -46 -115t-118 -45q-73 0 -120.5 45.5t-47.5 116.5q0 70 47 115.5t121 45.5zM249 458q-50 0 -82.5 -30.5t-32.5 -78.5t32.5 -78.5t82.5 -30.5q48 0 78.5 30t30.5 77q0 49 -30.5 80t-78.5 31z" />
<glyph unicode="&#x972;" horiz-adv-x="829" d="M282 448q61 0 95 33.5t34 78.5q0 54 -35 86t-88 32q-55 0 -92 -31.5t-37 -83.5h-78q0 85 58 135.5t149 50.5q88 0 143 -48.5t55 -129.5q0 -58 -31.5 -98.5t-90.5 -55.5v-2q28 -4 54 -19h221v344h215v-70h-132v-670h-83v327l-158 1q18 -37 18 -82q0 -88 -55.5 -140.5 t-147.5 -52.5q-98 0 -160 56.5t-62 146.5h78q0 -57 38.5 -94t99.5 -37q60 0 96 35.5t36 92.5q0 43 -23 75h-3l-1 6q-37 46 -113 46h-39v68h39zM689 840q-100 0 -152 51t-52 125h73q0 -46 33.5 -79t97.5 -33t97.5 33t33.5 79h72q0 -74 -51.5 -125t-151.5 -51z" />
<glyph unicode="&#x1e80;" horiz-adv-x="976" d="M218 -1l-195 698h97l152 -591l168 591h102l160 -589l153 589h98l-202 -697h-102l-162 561l-168 -561zM327 853v79l213 -125v-68z" />
<glyph unicode="&#x1e81;" horiz-adv-x="820" d="M184 0l-172 548h93l126 -460l136 460h93l133 -461l124 461h90l-171 -548h-94l-132 435l-132 -435h-94zM242 703v79l213 -125v-68z" />
<glyph unicode="&#x1e82;" horiz-adv-x="976" d="M218 -1l-195 698h97l152 -591l168 591h102l160 -589l153 589h98l-202 -697h-102l-162 561l-168 -561zM442 810l213 125v-79l-213 -114v68z" />
<glyph unicode="&#x1e83;" horiz-adv-x="820" d="M184 0l-172 548h93l126 -460l136 460h93l133 -461l124 461h90l-171 -548h-94l-132 435l-132 -435h-94zM366 657l213 125v-79l-213 -114v68z" />
<glyph unicode="&#x1e84;" horiz-adv-x="976" d="M218 -1l-195 698h97l152 -591l168 591h102l160 -589l153 589h98l-202 -697h-102l-162 561l-168 -561zM404 773q-22 0 -37.5 15t-15.5 37t15.5 37.5t37.5 15.5q21 0 36.5 -15.5t15.5 -37.5t-15.5 -37t-36.5 -15zM566 773q-22 0 -37 15t-15 37t15 37.5t37 15.5t37.5 -15.5 t15.5 -37.5t-15.5 -37t-37.5 -15z" />
<glyph unicode="&#x1e85;" horiz-adv-x="820" d="M184 0l-172 548h93l126 -460l136 460h93l133 -461l124 461h90l-171 -548h-94l-132 435l-132 -435h-94zM329 622q-22 0 -37.5 15t-15.5 37t15.5 37.5t37.5 15.5q21 0 36.5 -15.5t15.5 -37.5t-15.5 -37t-36.5 -15zM491 622q-22 0 -37 15t-15 37t15 37.5t37 15.5t37.5 -15.5 t15.5 -37.5t-15.5 -37t-37.5 -15z" />
<glyph unicode="&#x1ea0;" horiz-adv-x="674" d="M336 -224q-28 0 -46.5 18.5t-18.5 46.5t18.5 46.5t46.5 18.5q26 0 44.5 -18.5t18.5 -46.5t-18.5 -46.5t-44.5 -18.5zM545 0l-56 155h-304l-56 -155h-96l252 693h105l251 -693h-96zM463 229l-126 352l-126 -352h252z" />
<glyph unicode="&#x1ea1;" horiz-adv-x="676" d="M306 -224q-28 0 -46.5 18.5t-18.5 46.5t18.5 46.5t46.5 18.5q26 0 44.5 -18.5t18.5 -46.5t-18.5 -46.5t-44.5 -18.5zM43 276q0 126 74 203.5t186 77.5q72 0 125 -31t79 -78v100h92v-548h-92v102q-27 -48 -80.5 -79.5t-124.5 -31.5q-111 0 -185 79.5t-74 205.5zM507 275 q0 92 -54 147.5t-132 55.5t-131.5 -54.5t-53.5 -147.5q0 -94 53.5 -149.5t131.5 -55.5t132 55.5t54 148.5z" />
<glyph unicode="&#x1ea2;" horiz-adv-x="674" d="M238 856q3 41 33 62t72 21q41 0 68 -23t27 -60q0 -39 -21.5 -59.5t-48.5 -22.5l-2 -22h-52l-2 64q37 0 51 10t14 31q0 13 -10 21.5t-25 8.5q-39 0 -44 -31h-60zM545 0l-56 155h-304l-56 -155h-96l252 693h105l251 -693h-96zM463 229l-126 352l-126 -352h252z" />
<glyph unicode="&#x1ea3;" horiz-adv-x="676" d="M252 728q3 41 33 62t72 21q41 0 68 -23t27 -60q0 -39 -21.5 -59.5t-48.5 -22.5l-2 -22h-52l-2 64q37 0 51 10t14 31q0 13 -10 21.5t-25 8.5q-39 0 -44 -31h-60zM43 276q0 126 74 203.5t186 77.5q72 0 125 -31t79 -78v100h92v-548h-92v102q-27 -48 -80.5 -79.5 t-124.5 -31.5q-111 0 -185 79.5t-74 205.5zM507 275q0 92 -54 147.5t-132 55.5t-131.5 -54.5t-53.5 -147.5q0 -94 53.5 -149.5t131.5 -55.5t132 55.5t54 148.5z" />
<glyph unicode="&#x1ea4;" horiz-adv-x="674" d="M545 0l-56 155h-304l-56 -155h-96l252 693h105l251 -693h-96zM463 229l-126 352l-126 -352h252zM338 893l148 -95l-45 -56l-103 65l-103 -65l-45 56zM488 996l65 -44l-91 -98l-62 38z" />
<glyph unicode="&#x1ea5;" horiz-adv-x="676" d="M489 868l65 -44l-91 -98l-62 38zM43 276q0 126 74 203.5t186 77.5q72 0 125 -31t79 -78v100h92v-548h-92v102q-27 -48 -80.5 -79.5t-124.5 -31.5q-111 0 -185 79.5t-74 205.5zM507 275q0 92 -54 147.5t-132 55.5t-131.5 -54.5t-53.5 -147.5q0 -94 53.5 -149.5 t131.5 -55.5t132 55.5t54 148.5zM340 764l148 -95l-45 -56l-103 65l-103 -65l-45 56z" />
<glyph unicode="&#x1ea6;" horiz-adv-x="674" d="M360 952l65 44l88 -104l-62 -38zM545 0l-56 155h-304l-56 -155h-96l252 693h105l251 -693h-96zM463 229l-126 352l-126 -352h252zM338 893l148 -95l-45 -56l-103 65l-103 -65l-45 56z" />
<glyph unicode="&#x1ea7;" horiz-adv-x="676" d="M362 823l65 44l88 -104l-62 -38zM43 276q0 126 74 203.5t186 77.5q72 0 125 -31t79 -78v100h92v-548h-92v102q-27 -48 -80.5 -79.5t-124.5 -31.5q-111 0 -185 79.5t-74 205.5zM507 275q0 92 -54 147.5t-132 55.5t-131.5 -54.5t-53.5 -147.5q0 -94 53.5 -149.5 t131.5 -55.5t132 55.5t54 148.5zM340 764l148 -95l-45 -56l-103 65l-103 -65l-45 56z" />
<glyph unicode="&#x1ea8;" horiz-adv-x="674" d="M360 944q3 36 33 54t72 18q40 0 67.5 -20t27.5 -52q0 -33 -21.5 -51t-48.5 -20l-2 -19h-52l-2 55q62 0 62 36q0 11 -9.5 17.5t-22.5 6.5q-36 0 -41 -25h-63zM545 0l-56 155h-304l-56 -155h-96l252 693h105l251 -693h-96zM463 229l-126 352l-126 -352h252zM338 893 l148 -95l-45 -56l-103 65l-103 -65l-45 56z" />
<glyph unicode="&#x1ea9;" horiz-adv-x="676" d="M362 815q3 36 33 54t72 18q40 0 67.5 -20t27.5 -52q0 -33 -21.5 -51t-48.5 -20l-2 -19h-52l-2 55q62 0 62 36q0 11 -9.5 17.5t-22.5 6.5q-36 0 -41 -25h-63zM43 276q0 126 74 203.5t186 77.5q72 0 125 -31t79 -78v100h92v-548h-92v102q-27 -48 -80.5 -79.5t-124.5 -31.5 q-111 0 -185 79.5t-74 205.5zM507 275q0 92 -54 147.5t-132 55.5t-131.5 -54.5t-53.5 -147.5q0 -94 53.5 -149.5t131.5 -55.5t132 55.5t54 148.5zM340 764l148 -95l-45 -56l-103 65l-103 -65l-45 56z" />
<glyph unicode="&#x1eaa;" horiz-adv-x="674" d="M338 876l148 -84l-45 -50l-103 58l-103 -58l-45 50zM259 892h-69q2 42 25 66.5t63 24.5q32 0 64 -16q4 -2 10.5 -6t10 -6t8.5 -3.5t10 -1.5q12 0 21 8t9 24h69q0 -43 -23.5 -67t-65.5 -24q-34 0 -65 18q-25 16 -38 16q-12 0 -20.5 -8.5t-8.5 -24.5zM545 0l-56 155h-304 l-56 -155h-96l252 693h105l251 -693h-96zM463 229l-126 352l-126 -352h252z" />
<glyph unicode="&#x1eab;" horiz-adv-x="676" d="M340 747l148 -84l-45 -50l-103 58l-103 -58l-45 50zM261 763h-69q2 42 25 66.5t63 24.5q32 0 64 -16q4 -2 10.5 -6t10 -6t8.5 -3.5t10 -1.5q12 0 21 8.5t9 23.5h69q0 -43 -23.5 -67t-65.5 -24q-34 0 -65 18q-25 16 -38 16q-12 0 -20.5 -8.5t-8.5 -24.5zM43 276 q0 126 74 203.5t186 77.5q72 0 125 -31t79 -78v100h92v-548h-92v102q-27 -48 -80.5 -79.5t-124.5 -31.5q-111 0 -185 79.5t-74 205.5zM507 275q0 92 -54 147.5t-132 55.5t-131.5 -54.5t-53.5 -147.5q0 -94 53.5 -149.5t131.5 -55.5t132 55.5t54 148.5z" />
<glyph unicode="&#x1eac;" horiz-adv-x="674" d="M336 -224q-28 0 -46.5 18.5t-18.5 46.5t18.5 46.5t46.5 18.5q26 0 44.5 -18.5t18.5 -46.5t-18.5 -46.5t-44.5 -18.5zM545 0l-56 155h-304l-56 -155h-96l252 693h105l251 -693h-96zM463 229l-126 352l-126 -352h252zM338 893l148 -95l-45 -56l-103 65l-103 -65l-45 56z " />
<glyph unicode="&#x1ead;" horiz-adv-x="676" d="M306 -224q-28 0 -46.5 18.5t-18.5 46.5t18.5 46.5t46.5 18.5q26 0 44.5 -18.5t18.5 -46.5t-18.5 -46.5t-44.5 -18.5zM43 276q0 126 74 203.5t186 77.5q72 0 125 -31t79 -78v100h92v-548h-92v102q-27 -48 -80.5 -79.5t-124.5 -31.5q-111 0 -185 79.5t-74 205.5zM507 275 q0 92 -54 147.5t-132 55.5t-131.5 -54.5t-53.5 -147.5q0 -94 53.5 -149.5t131.5 -55.5t132 55.5t54 148.5zM340 764l148 -95l-45 -56l-103 65l-103 -65l-45 56z" />
<glyph unicode="&#x1eae;" horiz-adv-x="674" d="M545 0l-56 155h-304l-56 -155h-96l252 693h105l251 -693h-96zM463 229l-126 352l-126 -352h252zM200 866h72q0 -60 66 -60q67 0 67 60h72q0 -58 -36 -93.5t-103 -35.5t-102.5 35.5t-35.5 93.5zM368 1020l65 -44l-91 -98l-62 38z" />
<glyph unicode="&#x1eaf;" horiz-adv-x="676" d="M386 895l65 -44l-91 -98l-62 38zM43 276q0 126 74 203.5t186 77.5q72 0 125 -31t79 -78v100h92v-548h-92v102q-27 -48 -80.5 -79.5t-124.5 -31.5q-111 0 -185 79.5t-74 205.5zM507 275q0 92 -54 147.5t-132 55.5t-131.5 -54.5t-53.5 -147.5q0 -94 53.5 -149.5 t131.5 -55.5t132 55.5t54 148.5zM211 741h72q0 -60 66 -60q67 0 67 60h72q0 -58 -36 -93.5t-103 -35.5t-102.5 35.5t-35.5 93.5z" />
<glyph unicode="&#x1eb0;" horiz-adv-x="674" d="M545 0l-56 155h-304l-56 -155h-96l252 693h105l251 -693h-96zM463 229l-126 352l-126 -352h252zM200 866h72q0 -60 66 -60q67 0 67 60h72q0 -58 -36 -93.5t-103 -35.5t-102.5 35.5t-35.5 93.5zM249 976l65 44l88 -104l-62 -38z" />
<glyph unicode="&#x1eb1;" horiz-adv-x="676" d="M260 851l65 44l88 -104l-62 -38zM43 276q0 126 74 203.5t186 77.5q72 0 125 -31t79 -78v100h92v-548h-92v102q-27 -48 -80.5 -79.5t-124.5 -31.5q-111 0 -185 79.5t-74 205.5zM507 275q0 92 -54 147.5t-132 55.5t-131.5 -54.5t-53.5 -147.5q0 -94 53.5 -149.5 t131.5 -55.5t132 55.5t54 148.5zM211 741h72q0 -60 66 -60q67 0 67 60h72q0 -58 -36 -93.5t-103 -35.5t-102.5 35.5t-35.5 93.5z" />
<glyph unicode="&#x1eb2;" horiz-adv-x="674" d="M545 0l-56 155h-304l-56 -155h-96l252 693h105l251 -693h-96zM463 229l-126 352l-126 -352h252zM200 848h72q0 -52 66 -52q67 0 67 52h72q0 -50 -36 -80.5t-103 -30.5t-102.5 30.5t-35.5 80.5zM238 943q3 36 33 54t72 18q40 0 67.5 -20t27.5 -52q0 -33 -21.5 -51 t-48.5 -20l-2 -19h-52l-2 55q37 0 51 9t14 27q0 12 -10 19t-25 7q-39 0 -44 -27h-60z" />
<glyph unicode="&#x1eb3;" horiz-adv-x="676" d="M211 723h72q0 -52 66 -52q67 0 67 52h72q0 -50 -36 -80.5t-103 -30.5t-102.5 30.5t-35.5 80.5zM249 818q3 36 33 54t72 18q40 0 67.5 -20t27.5 -52q0 -33 -21.5 -51t-48.5 -20l-2 -19h-52l-2 55q37 0 51 9t14 27q0 12 -10 19t-25 7q-39 0 -44 -27h-60zM43 276 q0 126 74 203.5t186 77.5q72 0 125 -31t79 -78v100h92v-548h-92v102q-27 -48 -80.5 -79.5t-124.5 -31.5q-111 0 -185 79.5t-74 205.5zM507 275q0 92 -54 147.5t-132 55.5t-131.5 -54.5t-53.5 -147.5q0 -94 53.5 -149.5t131.5 -55.5t132 55.5t54 148.5z" />
<glyph unicode="&#x1eb4;" horiz-adv-x="674" d="M200 848h72q0 -52 66 -52q67 0 67 52h72q0 -50 -36 -80.5t-103 -30.5t-102.5 30.5t-35.5 80.5zM545 0l-56 155h-304l-56 -155h-96l252 693h105l251 -693h-96zM463 229l-126 352l-126 -352h252zM262 878h-69q2 42 25 66.5t63 24.5q32 0 64 -16q4 -2 10.5 -6t10 -6 t8.5 -3.5t10 -1.5q12 0 21 8t9 24h69q0 -43 -23.5 -67t-65.5 -24q-34 0 -65 18q-25 16 -38 16q-12 0 -20.5 -8.5t-8.5 -24.5z" />
<glyph unicode="&#x1eb5;" horiz-adv-x="676" d="M211 723h72q0 -52 66 -52q67 0 67 52h72q0 -50 -36 -80.5t-103 -30.5t-102.5 30.5t-35.5 80.5zM273 753h-69q2 42 25 66.5t63 24.5q32 0 64 -16q4 -2 10.5 -6t10 -6t8.5 -3.5t10 -1.5q12 0 21 8.5t9 23.5h69q0 -43 -23.5 -67t-65.5 -24q-34 0 -65 18q-25 16 -38 16 q-12 0 -20.5 -8.5t-8.5 -24.5zM43 276q0 126 74 203.5t186 77.5q72 0 125 -31t79 -78v100h92v-548h-92v102q-27 -48 -80.5 -79.5t-124.5 -31.5q-111 0 -185 79.5t-74 205.5zM507 275q0 92 -54 147.5t-132 55.5t-131.5 -54.5t-53.5 -147.5q0 -94 53.5 -149.5t131.5 -55.5 t132 55.5t54 148.5z" />
<glyph unicode="&#x1eb6;" horiz-adv-x="674" d="M336 -224q-28 0 -46.5 18.5t-18.5 46.5t18.5 46.5t46.5 18.5q26 0 44.5 -18.5t18.5 -46.5t-18.5 -46.5t-44.5 -18.5zM545 0l-56 155h-304l-56 -155h-96l252 693h105l251 -693h-96zM463 229l-126 352l-126 -352h252zM200 866h72q0 -60 66 -60q67 0 67 60h72 q0 -58 -36 -93.5t-103 -35.5t-102.5 35.5t-35.5 93.5z" />
<glyph unicode="&#x1eb7;" horiz-adv-x="676" d="M306 -224q-28 0 -46.5 18.5t-18.5 46.5t18.5 46.5t46.5 18.5q26 0 44.5 -18.5t18.5 -46.5t-18.5 -46.5t-44.5 -18.5zM43 276q0 126 74 203.5t186 77.5q72 0 125 -31t79 -78v100h92v-548h-92v102q-27 -48 -80.5 -79.5t-124.5 -31.5q-111 0 -185 79.5t-74 205.5zM507 275 q0 92 -54 147.5t-132 55.5t-131.5 -54.5t-53.5 -147.5q0 -94 53.5 -149.5t131.5 -55.5t132 55.5t54 148.5zM211 741h72q0 -60 66 -60q67 0 67 60h72q0 -58 -36 -93.5t-103 -35.5t-102.5 35.5t-35.5 93.5z" />
<glyph unicode="&#x1eb8;" horiz-adv-x="513" d="M257 -224q-28 0 -46.5 18.5t-18.5 46.5t18.5 46.5t46.5 18.5q26 0 44.5 -18.5t18.5 -46.5t-18.5 -46.5t-44.5 -18.5zM452 698v-75h-284v-233h254v-75h-254v-240h284v-75h-375v698h375z" />
<glyph unicode="&#x1eb9;" horiz-adv-x="620" d="M304 -224q-28 0 -46.5 18.5t-18.5 46.5t18.5 46.5t46.5 18.5q26 0 44.5 -18.5t18.5 -46.5t-18.5 -46.5t-44.5 -18.5zM310 480q-69 0 -117.5 -44t-55.5 -122h346q1 77 -49 121.5t-124 44.5zM566 169q-22 -79 -88 -128.5t-164 -49.5q-119 0 -195 77.5t-76 206.5t75 205.5 t196 76.5q118 0 190.5 -74t72.5 -188q0 -27 -3 -55h-438q5 -81 55.5 -126.5t122.5 -45.5q59 0 98.5 27.5t55.5 73.5h98z" />
<glyph unicode="&#x1eba;" horiz-adv-x="513" d="M172 856q3 41 33 62t72 21q41 0 68 -23t27 -60q0 -39 -21.5 -59.5t-48.5 -22.5l-2 -22h-52l-2 64q37 0 51 10t14 31q0 13 -10 21.5t-25 8.5q-39 0 -44 -31h-60zM452 698v-75h-284v-233h254v-75h-254v-240h284v-75h-375v698h375z" />
<glyph unicode="&#x1ebb;" horiz-adv-x="620" d="M228 728q3 41 33 62t72 21q41 0 68 -23t27 -60q0 -39 -21.5 -59.5t-48.5 -22.5l-2 -22h-52l-2 64q37 0 51 10t14 31q0 13 -10 21.5t-25 8.5q-39 0 -44 -31h-60zM310 480q-69 0 -117.5 -44t-55.5 -122h346q1 77 -49 121.5t-124 44.5zM566 169q-22 -79 -88 -128.5 t-164 -49.5q-119 0 -195 77.5t-76 206.5t75 205.5t196 76.5q118 0 190.5 -74t72.5 -188q0 -27 -3 -55h-438q5 -81 55.5 -126.5t122.5 -45.5q59 0 98.5 27.5t55.5 73.5h98z" />
<glyph unicode="&#x1ebc;" horiz-adv-x="513" d="M194 763h-69q2 50 25 79.5t63 29.5q33 0 64 -19q4 -3 10.5 -7.5t10 -7t8.5 -4.5t10 -2q12 0 21 10t9 29h69q0 -51 -24 -80t-65 -29q-34 0 -65 22q-27 19 -38 19q-29 0 -29 -40zM452 698v-75h-284v-233h254v-75h-254v-240h284v-75h-375v698h375z" />
<glyph unicode="&#x1ebd;" horiz-adv-x="620" d="M249 634h-69q2 50 25 79.5t63 29.5q33 0 64 -19q4 -3 10.5 -7.5t10 -7t8.5 -4.5t10 -2q12 0 21 10t9 29h69q0 -51 -24 -80t-65 -29q-34 0 -65 22q-27 19 -38 19q-29 0 -29 -40zM310 480q-69 0 -117.5 -44t-55.5 -122h346q1 77 -49 121.5t-124 44.5zM566 169 q-22 -79 -88 -128.5t-164 -49.5q-119 0 -195 77.5t-76 206.5t75 205.5t196 76.5q118 0 190.5 -74t72.5 -188q0 -27 -3 -55h-438q5 -81 55.5 -126.5t122.5 -45.5q59 0 98.5 27.5t55.5 73.5h98z" />
<glyph unicode="&#x1ebe;" horiz-adv-x="513" d="M416 996l65 -44l-91 -98l-62 38zM452 698v-75h-284v-233h254v-75h-254v-240h284v-75h-375v698h375zM266 893l148 -95l-45 -56l-103 65l-103 -65l-45 56z" />
<glyph unicode="&#x1ebf;" horiz-adv-x="620" d="M467 867l65 -44l-91 -98l-62 38zM310 480q-69 0 -117.5 -44t-55.5 -122h346q1 77 -49 121.5t-124 44.5zM566 169q-22 -79 -88 -128.5t-164 -49.5q-119 0 -195 77.5t-76 206.5t75 205.5t196 76.5q118 0 190.5 -74t72.5 -188q0 -27 -3 -55h-438q5 -81 55.5 -126.5 t122.5 -45.5q59 0 98.5 27.5t55.5 73.5h98zM317 764l148 -95l-45 -56l-103 65l-103 -65l-45 56z" />
<glyph unicode="&#x1ec0;" horiz-adv-x="513" d="M288 952l65 44l88 -104l-62 -38zM452 698v-75h-284v-233h254v-75h-254v-240h284v-75h-375v698h375zM266 893l148 -95l-45 -56l-103 65l-103 -65l-45 56z" />
<glyph unicode="&#x1ec1;" horiz-adv-x="620" d="M339 823l65 44l88 -104l-62 -38zM310 480q-69 0 -117.5 -44t-55.5 -122h346q1 77 -49 121.5t-124 44.5zM566 169q-22 -79 -88 -128.5t-164 -49.5q-119 0 -195 77.5t-76 206.5t75 205.5t196 76.5q118 0 190.5 -74t72.5 -188q0 -27 -3 -55h-438q5 -81 55.5 -126.5 t122.5 -45.5q59 0 98.5 27.5t55.5 73.5h98zM317 764l148 -95l-45 -56l-103 65l-103 -65l-45 56z" />
<glyph unicode="&#x1ec2;" horiz-adv-x="513" d="M288 944q3 36 33 54t72 18q40 0 67.5 -20t27.5 -52q0 -33 -21.5 -51t-48.5 -20l-2 -19h-52l-2 55q62 0 62 36q0 11 -9.5 17.5t-22.5 6.5q-36 0 -41 -25h-63zM452 698v-75h-284v-233h254v-75h-254v-240h284v-75h-375v698h375zM266 893l148 -95l-45 -56l-103 65l-103 -65 l-45 56z" />
<glyph unicode="&#x1ec3;" horiz-adv-x="620" d="M339 815q3 36 33 54t72 18q40 0 67.5 -20t27.5 -52q0 -33 -21.5 -51t-48.5 -20l-2 -19h-52l-2 55q62 0 62 36q0 11 -9.5 17.5t-22.5 6.5q-36 0 -41 -25h-63zM310 480q-69 0 -117.5 -44t-55.5 -122h346q1 77 -49 121.5t-124 44.5zM566 169q-22 -79 -88 -128.5t-164 -49.5 q-119 0 -195 77.5t-76 206.5t75 205.5t196 76.5q118 0 190.5 -74t72.5 -188q0 -27 -3 -55h-438q5 -81 55.5 -126.5t122.5 -45.5q59 0 98.5 27.5t55.5 73.5h98zM317 764l148 -95l-45 -56l-103 65l-103 -65l-45 56z" />
<glyph unicode="&#x1ec4;" horiz-adv-x="513" d="M452 698v-75h-284v-233h254v-75h-254v-240h284v-75h-375v698h375zM266 876l148 -84l-45 -50l-103 58l-103 -58l-45 50zM187 892h-69q2 42 25 66.5t63 24.5q32 0 64 -16q4 -2 10.5 -6t10 -6t8.5 -3.5t10 -1.5q12 0 21 8t9 24h69q0 -43 -23.5 -67t-65.5 -24q-34 0 -65 18 q-25 16 -38 16q-12 0 -20.5 -8.5t-8.5 -24.5z" />
<glyph unicode="&#x1ec5;" horiz-adv-x="620" d="M317 747l148 -84l-45 -50l-103 58l-103 -58l-45 50zM238 763h-69q2 42 25 66.5t63 24.5q32 0 64 -16q4 -2 10.5 -6t10 -6t8.5 -3.5t10 -1.5q12 0 21 8.5t9 23.5h69q0 -43 -23.5 -67t-65.5 -24q-34 0 -65 18q-25 16 -38 16q-12 0 -20.5 -8.5t-8.5 -24.5zM310 480 q-69 0 -117.5 -44t-55.5 -122h346q1 77 -49 121.5t-124 44.5zM566 169q-22 -79 -88 -128.5t-164 -49.5q-119 0 -195 77.5t-76 206.5t75 205.5t196 76.5q118 0 190.5 -74t72.5 -188q0 -27 -3 -55h-438q5 -81 55.5 -126.5t122.5 -45.5q59 0 98.5 27.5t55.5 73.5h98z" />
<glyph unicode="&#x1ec6;" horiz-adv-x="513" d="M257 -224q-28 0 -46.5 18.5t-18.5 46.5t18.5 46.5t46.5 18.5q26 0 44.5 -18.5t18.5 -46.5t-18.5 -46.5t-44.5 -18.5zM452 698v-75h-284v-233h254v-75h-254v-240h284v-75h-375v698h375zM266 893l148 -95l-45 -56l-103 65l-103 -65l-45 56z" />
<glyph unicode="&#x1ec7;" horiz-adv-x="620" d="M304 -224q-28 0 -46.5 18.5t-18.5 46.5t18.5 46.5t46.5 18.5q26 0 44.5 -18.5t18.5 -46.5t-18.5 -46.5t-44.5 -18.5zM310 480q-69 0 -117.5 -44t-55.5 -122h346q1 77 -49 121.5t-124 44.5zM566 169q-22 -79 -88 -128.5t-164 -49.5q-119 0 -195 77.5t-76 206.5t75 205.5 t196 76.5q118 0 190.5 -74t72.5 -188q0 -27 -3 -55h-438q5 -81 55.5 -126.5t122.5 -45.5q59 0 98.5 27.5t55.5 73.5h98zM317 764l148 -95l-45 -56l-103 65l-103 -65l-45 56z" />
<glyph unicode="&#x1ec8;" horiz-adv-x="246" d="M21 856q3 41 33 62t72 21q41 0 68 -23t27 -60q0 -39 -21.5 -59.5t-48.5 -22.5l-2 -22h-52l-2 64q37 0 51 10t14 31q0 13 -10 21.5t-25 8.5q-39 0 -44 -31h-60zM77 0v697h91v-697h-91z" />
<glyph unicode="&#x1ec9;" horiz-adv-x="246" d="M22 728q3 41 33 62t72 21q41 0 68 -23t27 -60q0 -39 -21.5 -59.5t-48.5 -22.5l-2 -22h-52l-2 64q37 0 51 10t14 31q0 13 -10 21.5t-25 8.5q-39 0 -44 -31h-60zM77 0v548h91v-548h-91z" />
<glyph unicode="&#x1eca;" horiz-adv-x="246" d="M77 0v697h91v-697h-91zM124 -224q-28 0 -46.5 18.5t-18.5 46.5t18.5 46.5t46.5 18.5q26 0 44.5 -18.5t18.5 -46.5t-18.5 -46.5t-44.5 -18.5z" />
<glyph unicode="&#x1ecb;" horiz-adv-x="246" d="M124 -224q-28 0 -46.5 18.5t-18.5 46.5t18.5 46.5t46.5 18.5q26 0 44.5 -18.5t18.5 -46.5t-18.5 -46.5t-44.5 -18.5zM77 0v548h91v-548h-91zM124 637q-28 0 -46.5 18.5t-18.5 46.5t18.5 46.5t46.5 18.5q26 0 44.5 -18.5t18.5 -46.5t-18.5 -46.5t-44.5 -18.5z" />
<glyph unicode="&#x1ecc;" horiz-adv-x="786" d="M396 -224q-28 0 -46.5 18.5t-18.5 46.5t18.5 46.5t46.5 18.5q26 0 44.5 -18.5t18.5 -46.5t-18.5 -46.5t-44.5 -18.5zM743 349q0 -155 -100.5 -255.5t-249.5 -100.5t-249.5 100.5t-100.5 255.5t100.5 255.5t249.5 100.5t249.5 -100.5t100.5 -255.5zM136 349 q0 -125 72.5 -201t184.5 -76t184.5 76t72.5 201q0 126 -72.5 201.5t-184.5 75.5t-184.5 -75.5t-72.5 -201.5z" />
<glyph unicode="&#x1ecd;" d="M321 -224q-28 0 -46.5 18.5t-18.5 46.5t18.5 46.5t46.5 18.5q26 0 44.5 -18.5t18.5 -46.5t-18.5 -46.5t-44.5 -18.5zM597 275q0 -128 -80.5 -206t-200.5 -78q-118 0 -195.5 78t-77.5 206q0 127 79 204.5t198 77.5q120 0 198.5 -77.5t78.5 -204.5zM136 275 q0 -99 52 -151.5t128 -52.5q78 0 133 53t55 151t-54 150.5t-131 52.5t-130 -52.5t-53 -150.5z" />
<glyph unicode="&#x1ece;" horiz-adv-x="786" d="M304 856q3 41 33 62t72 21q41 0 68 -23t27 -60q0 -39 -21.5 -59.5t-48.5 -22.5l-2 -22h-52l-2 64q37 0 51 10t14 31q0 13 -10 21.5t-25 8.5q-39 0 -44 -31h-60zM743 349q0 -155 -100.5 -255.5t-249.5 -100.5t-249.5 100.5t-100.5 255.5t100.5 255.5t249.5 100.5 t249.5 -100.5t100.5 -255.5zM136 349q0 -125 72.5 -201t184.5 -76t184.5 76t72.5 201q0 126 -72.5 201.5t-184.5 75.5t-184.5 -75.5t-72.5 -201.5z" />
<glyph unicode="&#x1ecf;" d="M228 728q3 41 33 62t72 21q41 0 68 -23t27 -60q0 -39 -21.5 -59.5t-48.5 -22.5l-2 -22h-52l-2 64q37 0 51 10t14 31q0 13 -10 21.5t-25 8.5q-39 0 -44 -31h-60zM597 275q0 -128 -80.5 -206t-200.5 -78q-118 0 -195.5 78t-77.5 206q0 127 79 204.5t198 77.5 q120 0 198.5 -77.5t78.5 -204.5zM136 275q0 -99 52 -151.5t128 -52.5q78 0 133 53t55 151t-54 150.5t-131 52.5t-130 -52.5t-53 -150.5z" />
<glyph unicode="&#x1ed0;" horiz-adv-x="786" d="M546 996l65 -44l-91 -98l-62 38zM743 349q0 -155 -100.5 -255.5t-249.5 -100.5t-249.5 100.5t-100.5 255.5t100.5 255.5t249.5 100.5t249.5 -100.5t100.5 -255.5zM136 349q0 -125 72.5 -201t184.5 -76t184.5 76t72.5 201q0 126 -72.5 201.5t-184.5 75.5t-184.5 -75.5 t-72.5 -201.5zM396 893l148 -95l-45 -56l-103 65l-103 -65l-45 56z" />
<glyph unicode="&#x1ed1;" d="M471 867l65 -44l-91 -98l-62 38zM597 275q0 -128 -80.5 -206t-200.5 -78q-118 0 -195.5 78t-77.5 206q0 127 79 204.5t198 77.5q120 0 198.5 -77.5t78.5 -204.5zM136 275q0 -99 52 -151.5t128 -52.5q78 0 133 53t55 151t-54 150.5t-131 52.5t-130 -52.5t-53 -150.5z M321 764l148 -95l-45 -56l-103 65l-103 -65l-45 56z" />
<glyph unicode="&#x1ed2;" horiz-adv-x="786" d="M418 952l65 44l88 -104l-62 -38zM743 349q0 -155 -100.5 -255.5t-249.5 -100.5t-249.5 100.5t-100.5 255.5t100.5 255.5t249.5 100.5t249.5 -100.5t100.5 -255.5zM136 349q0 -125 72.5 -201t184.5 -76t184.5 76t72.5 201q0 126 -72.5 201.5t-184.5 75.5t-184.5 -75.5 t-72.5 -201.5zM396 893l148 -95l-45 -56l-103 65l-103 -65l-45 56z" />
<glyph unicode="&#x1ed3;" d="M343 823l65 44l88 -104l-62 -38zM597 275q0 -128 -80.5 -206t-200.5 -78q-118 0 -195.5 78t-77.5 206q0 127 79 204.5t198 77.5q120 0 198.5 -77.5t78.5 -204.5zM136 275q0 -99 52 -151.5t128 -52.5q78 0 133 53t55 151t-54 150.5t-131 52.5t-130 -52.5t-53 -150.5z M321 764l148 -95l-45 -56l-103 65l-103 -65l-45 56z" />
<glyph unicode="&#x1ed4;" horiz-adv-x="786" d="M418 944q3 36 33 54t72 18q40 0 67.5 -20t27.5 -52q0 -33 -21.5 -51t-48.5 -20l-2 -19h-52l-2 55q62 0 62 36q0 11 -9.5 17.5t-22.5 6.5q-36 0 -41 -25h-63zM743 349q0 -155 -100.5 -255.5t-249.5 -100.5t-249.5 100.5t-100.5 255.5t100.5 255.5t249.5 100.5 t249.5 -100.5t100.5 -255.5zM136 349q0 -125 72.5 -201t184.5 -76t184.5 76t72.5 201q0 126 -72.5 201.5t-184.5 75.5t-184.5 -75.5t-72.5 -201.5zM396 893l148 -95l-45 -56l-103 65l-103 -65l-45 56z" />
<glyph unicode="&#x1ed5;" d="M343 815q3 36 33 54t72 18q40 0 67.5 -20t27.5 -52q0 -33 -21.5 -51t-48.5 -20l-2 -19h-52l-2 55q62 0 62 36q0 11 -9.5 17.5t-22.5 6.5q-36 0 -41 -25h-63zM597 275q0 -128 -80.5 -206t-200.5 -78q-118 0 -195.5 78t-77.5 206q0 127 79 204.5t198 77.5 q120 0 198.5 -77.5t78.5 -204.5zM136 275q0 -99 52 -151.5t128 -52.5q78 0 133 53t55 151t-54 150.5t-131 52.5t-130 -52.5t-53 -150.5zM321 764l148 -95l-45 -56l-103 65l-103 -65l-45 56z" />
<glyph unicode="&#x1ed6;" horiz-adv-x="786" d="M396 876l148 -84l-45 -50l-103 58l-103 -58l-45 50zM317 892h-69q2 42 25 66.5t63 24.5q32 0 64 -16q4 -2 10.5 -6t10 -6t8.5 -3.5t10 -1.5q12 0 21 8t9 24h69q0 -43 -23.5 -67t-65.5 -24q-34 0 -65 18q-25 16 -38 16q-12 0 -20.5 -8.5t-8.5 -24.5zM743 349 q0 -155 -100.5 -255.5t-249.5 -100.5t-249.5 100.5t-100.5 255.5t100.5 255.5t249.5 100.5t249.5 -100.5t100.5 -255.5zM136 349q0 -125 72.5 -201t184.5 -76t184.5 76t72.5 201q0 126 -72.5 201.5t-184.5 75.5t-184.5 -75.5t-72.5 -201.5z" />
<glyph unicode="&#x1ed7;" d="M321 747l148 -84l-45 -50l-103 58l-103 -58l-45 50zM242 763h-69q2 42 25 66.5t63 24.5q32 0 64 -16q4 -2 10.5 -6t10 -6t8.5 -3.5t10 -1.5q12 0 21 8.5t9 23.5h69q0 -43 -23.5 -67t-65.5 -24q-34 0 -65 18q-25 16 -38 16q-12 0 -20.5 -8.5t-8.5 -24.5zM597 275 q0 -128 -80.5 -206t-200.5 -78q-118 0 -195.5 78t-77.5 206q0 127 79 204.5t198 77.5q120 0 198.5 -77.5t78.5 -204.5zM136 275q0 -99 52 -151.5t128 -52.5q78 0 133 53t55 151t-54 150.5t-131 52.5t-130 -52.5t-53 -150.5z" />
<glyph unicode="&#x1ed8;" horiz-adv-x="786" d="M396 -224q-28 0 -46.5 18.5t-18.5 46.5t18.5 46.5t46.5 18.5q26 0 44.5 -18.5t18.5 -46.5t-18.5 -46.5t-44.5 -18.5zM743 349q0 -155 -100.5 -255.5t-249.5 -100.5t-249.5 100.5t-100.5 255.5t100.5 255.5t249.5 100.5t249.5 -100.5t100.5 -255.5zM136 349 q0 -125 72.5 -201t184.5 -76t184.5 76t72.5 201q0 126 -72.5 201.5t-184.5 75.5t-184.5 -75.5t-72.5 -201.5zM396 893l148 -95l-45 -56l-103 65l-103 -65l-45 56z" />
<glyph unicode="&#x1ed9;" d="M321 -224q-28 0 -46.5 18.5t-18.5 46.5t18.5 46.5t46.5 18.5q26 0 44.5 -18.5t18.5 -46.5t-18.5 -46.5t-44.5 -18.5zM597 275q0 -128 -80.5 -206t-200.5 -78q-118 0 -195.5 78t-77.5 206q0 127 79 204.5t198 77.5q120 0 198.5 -77.5t78.5 -204.5zM136 275 q0 -99 52 -151.5t128 -52.5q78 0 133 53t55 151t-54 150.5t-131 52.5t-130 -52.5t-53 -150.5zM321 764l148 -95l-45 -56l-103 65l-103 -65l-45 56z" />
<glyph unicode="&#x1eda;" horiz-adv-x="786" d="M507 917l45 -66l-163 -99l-45 63zM743 349q0 -155 -100.5 -255.5t-249.5 -100.5t-249.5 100.5t-100.5 255.5t100.5 255.5t249.5 100.5q38 0 78 -8h63q71 0 71 83h82q0 -107 -86 -140q66 -47 104 -123t38 -168zM136 349q0 -125 72.5 -201t184.5 -76t184.5 76t72.5 201 q0 126 -72.5 201.5t-184.5 75.5t-184.5 -75.5t-72.5 -201.5z" />
<glyph unicode="&#x1edb;" d="M434 788l45 -66l-163 -99l-45 63zM597 275q0 -128 -80.5 -206t-200.5 -78q-118 0 -195.5 78t-77.5 206q0 127 79 204.5t198 77.5q37 0 79 -10h29q71 0 71 83h82q0 -102 -78 -137q94 -79 94 -218zM136 275q0 -99 52 -151.5t128 -52.5q78 0 133 53t55 151t-54 150.5 t-131 52.5t-130 -52.5t-53 -150.5z" />
<glyph unicode="&#x1edc;" horiz-adv-x="786" d="M284 851l45 66l163 -102l-45 -63zM743 349q0 -155 -100.5 -255.5t-249.5 -100.5t-249.5 100.5t-100.5 255.5t100.5 255.5t249.5 100.5q38 0 78 -8h63q71 0 71 83h82q0 -107 -86 -140q66 -47 104 -123t38 -168zM136 349q0 -125 72.5 -201t184.5 -76t184.5 76t72.5 201 q0 126 -72.5 201.5t-184.5 75.5t-184.5 -75.5t-72.5 -201.5z" />
<glyph unicode="&#x1edd;" d="M201 722l45 66l163 -102l-45 -63zM597 275q0 -128 -80.5 -206t-200.5 -78q-118 0 -195.5 78t-77.5 206q0 127 79 204.5t198 77.5q37 0 79 -10h29q71 0 71 83h82q0 -102 -78 -137q94 -79 94 -218zM136 275q0 -99 52 -151.5t128 -52.5q78 0 133 53t55 151t-54 150.5 t-131 52.5t-130 -52.5t-53 -150.5z" />
<glyph unicode="&#x1ede;" horiz-adv-x="786" d="M304 856q3 41 33 62t72 21q41 0 68 -23t27 -60q0 -39 -21.5 -59.5t-48.5 -22.5l-2 -22h-52l-2 64q37 0 51 10t14 31q0 13 -10 21.5t-25 8.5q-39 0 -44 -31h-60zM743 349q0 -155 -100.5 -255.5t-249.5 -100.5t-249.5 100.5t-100.5 255.5t100.5 255.5t249.5 100.5 q38 0 78 -8h63q71 0 71 83h82q0 -107 -86 -140q66 -47 104 -123t38 -168zM136 349q0 -125 72.5 -201t184.5 -76t184.5 76t72.5 201q0 126 -72.5 201.5t-184.5 75.5t-184.5 -75.5t-72.5 -201.5z" />
<glyph unicode="&#x1edf;" d="M228 728q3 41 33 62t72 21q41 0 68 -23t27 -60q0 -39 -21.5 -59.5t-48.5 -22.5l-2 -22h-52l-2 64q37 0 51 10t14 31q0 13 -10 21.5t-25 8.5q-39 0 -44 -31h-60zM597 275q0 -128 -80.5 -206t-200.5 -78q-118 0 -195.5 78t-77.5 206q0 127 79 204.5t198 77.5q37 0 79 -10 h29q71 0 71 83h82q0 -102 -78 -137q94 -79 94 -218zM136 275q0 -99 52 -151.5t128 -52.5q78 0 133 53t55 151t-54 150.5t-131 52.5t-130 -52.5t-53 -150.5z" />
<glyph unicode="&#x1ee0;" horiz-adv-x="786" d="M322 763h-69q2 50 25 79.5t63 29.5q33 0 64 -19q4 -3 10.5 -7.5t10 -7t8.5 -4.5t10 -2q12 0 21 10t9 29h69q0 -51 -24 -80t-65 -29q-34 0 -65 22q-27 19 -38 19q-29 0 -29 -40zM743 349q0 -155 -100.5 -255.5t-249.5 -100.5t-249.5 100.5t-100.5 255.5t100.5 255.5 t249.5 100.5q38 0 78 -8h63q71 0 71 83h82q0 -107 -86 -140q66 -47 104 -123t38 -168zM136 349q0 -125 72.5 -201t184.5 -76t184.5 76t72.5 201q0 126 -72.5 201.5t-184.5 75.5t-184.5 -75.5t-72.5 -201.5z" />
<glyph unicode="&#x1ee1;" d="M253 634h-69q2 50 25 79.5t63 29.5q33 0 64 -19q4 -3 10.5 -7.5t10 -7t8.5 -4.5t10 -2q12 0 21 10t9 29h69q0 -51 -24 -80t-65 -29q-34 0 -65 22q-27 19 -38 19q-29 0 -29 -40zM597 275q0 -128 -80.5 -206t-200.5 -78q-118 0 -195.5 78t-77.5 206q0 127 79 204.5 t198 77.5q37 0 79 -10h29q71 0 71 83h82q0 -102 -78 -137q94 -79 94 -218zM136 275q0 -99 52 -151.5t128 -52.5q78 0 133 53t55 151t-54 150.5t-131 52.5t-130 -52.5t-53 -150.5z" />
<glyph unicode="&#x1ee2;" horiz-adv-x="786" d="M396 -224q-28 0 -46.5 18.5t-18.5 46.5t18.5 46.5t46.5 18.5q26 0 44.5 -18.5t18.5 -46.5t-18.5 -46.5t-44.5 -18.5zM743 349q0 -155 -100.5 -255.5t-249.5 -100.5t-249.5 100.5t-100.5 255.5t100.5 255.5t249.5 100.5q38 0 78 -8h63q71 0 71 83h82q0 -107 -86 -140 q66 -47 104 -123t38 -168zM136 349q0 -125 72.5 -201t184.5 -76t184.5 76t72.5 201q0 126 -72.5 201.5t-184.5 75.5t-184.5 -75.5t-72.5 -201.5z" />
<glyph unicode="&#x1ee3;" d="M321 -224q-28 0 -46.5 18.5t-18.5 46.5t18.5 46.5t46.5 18.5q26 0 44.5 -18.5t18.5 -46.5t-18.5 -46.5t-44.5 -18.5zM597 275q0 -128 -80.5 -206t-200.5 -78q-118 0 -195.5 78t-77.5 206q0 127 79 204.5t198 77.5q37 0 79 -10h29q71 0 71 83h82q0 -102 -78 -137 q94 -79 94 -218zM136 275q0 -99 52 -151.5t128 -52.5q78 0 133 53t55 151t-54 150.5t-131 52.5t-130 -52.5t-53 -150.5z" />
<glyph unicode="&#x1ee4;" horiz-adv-x="675" d="M336 -224q-28 0 -46.5 18.5t-18.5 46.5t18.5 46.5t46.5 18.5q26 0 44.5 -18.5t18.5 -46.5t-18.5 -46.5t-44.5 -18.5zM75 257v440h91v-441q0 -93 45.5 -138t126.5 -45q80 0 125.5 45t45.5 138v441h91v-440q0 -129 -74 -196.5t-189 -67.5t-188.5 67t-73.5 197z" />
<glyph unicode="&#x1ee5;" d="M309 -224q-28 0 -46.5 18.5t-18.5 46.5t18.5 46.5t46.5 18.5q26 0 44.5 -18.5t18.5 -46.5t-18.5 -46.5t-44.5 -18.5zM563 548v-548h-91v81q-26 -42 -73 -65.5t-102 -23.5q-99 0 -162 61t-63 174v321h90v-309q0 -81 41 -124.5t112 -43.5q73 0 115 45t42 131v301h91z" />
<glyph unicode="&#x1ee6;" horiz-adv-x="675" d="M239 856q3 41 33 62t72 21q41 0 68 -23t27 -60q0 -39 -21.5 -59.5t-48.5 -22.5l-2 -22h-52l-2 64q37 0 51 10t14 31q0 13 -10 21.5t-25 8.5q-39 0 -44 -31h-60zM75 257v440h91v-441q0 -93 45.5 -138t126.5 -45q80 0 125.5 45t45.5 138v441h91v-440q0 -129 -74 -196.5 t-189 -67.5t-188.5 67t-73.5 197z" />
<glyph unicode="&#x1ee7;" d="M222 728q3 41 33 62t72 21q41 0 68 -23t27 -60q0 -39 -21.5 -59.5t-48.5 -22.5l-2 -22h-52l-2 64q37 0 51 10t14 31q0 13 -10 21.5t-25 8.5q-39 0 -44 -31h-60zM563 548v-548h-91v81q-26 -42 -73 -65.5t-102 -23.5q-99 0 -162 61t-63 174v321h90v-309q0 -81 41 -124.5 t112 -43.5q73 0 115 45t42 131v301h91z" />
<glyph unicode="&#x1ee8;" horiz-adv-x="675" d="M447 917l45 -66l-163 -99l-45 63zM75 257v440h91v-441q0 -93 45.5 -138t126.5 -45q80 0 125.5 45t45.5 138v441h51q71 0 71 83h82q0 -62 -30.5 -100t-82.5 -47v-376q0 -129 -74 -196.5t-189 -67.5t-188.5 67t-73.5 197z" />
<glyph unicode="&#x1ee9;" d="M434 788l45 -66l-163 -99l-45 63zM602 630h82q0 -65 -33 -102.5t-88 -45.5v-482h-91v81q-26 -42 -73 -65.5t-102 -23.5q-99 0 -162 61t-63 174v321h90v-309q0 -81 41 -124.5t112 -43.5q73 0 115 45t42 131v301h73q57 9 57 82z" />
<glyph unicode="&#x1eea;" horiz-adv-x="675" d="M214 851l45 66l163 -102l-45 -63zM75 257v440h91v-441q0 -93 45.5 -138t126.5 -45q80 0 125.5 45t45.5 138v441h51q71 0 71 83h82q0 -62 -30.5 -100t-82.5 -47v-376q0 -129 -74 -196.5t-189 -67.5t-188.5 67t-73.5 197z" />
<glyph unicode="&#x1eeb;" d="M191 722l45 66l163 -102l-45 -63zM602 630h82q0 -65 -33 -102.5t-88 -45.5v-482h-91v81q-26 -42 -73 -65.5t-102 -23.5q-99 0 -162 61t-63 174v321h90v-309q0 -81 41 -124.5t112 -43.5q73 0 115 45t42 131v301h73q57 9 57 82z" />
<glyph unicode="&#x1eec;" horiz-adv-x="675" d="M239 856q3 41 33 62t72 21q41 0 68 -23t27 -60q0 -39 -21.5 -59.5t-48.5 -22.5l-2 -22h-52l-2 64q37 0 51 10t14 31q0 13 -10 21.5t-25 8.5q-39 0 -44 -31h-60zM75 257v440h91v-441q0 -93 45.5 -138t126.5 -45q80 0 125.5 45t45.5 138v441h51q71 0 71 83h82 q0 -62 -30.5 -100t-82.5 -47v-376q0 -129 -74 -196.5t-189 -67.5t-188.5 67t-73.5 197z" />
<glyph unicode="&#x1eed;" d="M222 728q3 41 33 62t72 21q41 0 68 -23t27 -60q0 -39 -21.5 -59.5t-48.5 -22.5l-2 -22h-52l-2 64q37 0 51 10t14 31q0 13 -10 21.5t-25 8.5q-39 0 -44 -31h-60zM602 630h82q0 -65 -33 -102.5t-88 -45.5v-482h-91v81q-26 -42 -73 -65.5t-102 -23.5q-99 0 -162 61t-63 174 v321h90v-309q0 -81 41 -124.5t112 -43.5q73 0 115 45t42 131v301h73q57 9 57 82z" />
<glyph unicode="&#x1eee;" horiz-adv-x="675" d="M265 763h-69q2 50 25 79.5t63 29.5q33 0 64 -19q4 -3 10.5 -7.5t10 -7t8.5 -4.5t10 -2q12 0 21 10t9 29h69q0 -51 -24 -80t-65 -29q-34 0 -65 22q-27 19 -38 19q-29 0 -29 -40zM75 257v440h91v-441q0 -93 45.5 -138t126.5 -45q80 0 125.5 45t45.5 138v441h51q71 0 71 83 h82q0 -62 -30.5 -100t-82.5 -47v-376q0 -129 -74 -196.5t-189 -67.5t-188.5 67t-73.5 197z" />
<glyph unicode="&#x1eef;" d="M242 634h-69q2 50 25 79.5t63 29.5q33 0 64 -19q4 -3 10.5 -7.5t10 -7t8.5 -4.5t10 -2q12 0 21 10t9 29h69q0 -51 -24 -80t-65 -29q-34 0 -65 22q-27 19 -38 19q-29 0 -29 -40zM602 630h82q0 -65 -33 -102.5t-88 -45.5v-482h-91v81q-26 -42 -73 -65.5t-102 -23.5 q-99 0 -162 61t-63 174v321h90v-309q0 -81 41 -124.5t112 -43.5q73 0 115 45t42 131v301h73q57 9 57 82z" />
<glyph unicode="&#x1ef0;" horiz-adv-x="675" d="M336 -224q-28 0 -46.5 18.5t-18.5 46.5t18.5 46.5t46.5 18.5q26 0 44.5 -18.5t18.5 -46.5t-18.5 -46.5t-44.5 -18.5zM75 257v440h91v-441q0 -93 45.5 -138t126.5 -45q80 0 125.5 45t45.5 138v441h51q71 0 71 83h82q0 -62 -30.5 -100t-82.5 -47v-376q0 -129 -74 -196.5 t-189 -67.5t-188.5 67t-73.5 197z" />
<glyph unicode="&#x1ef1;" d="M309 -224q-28 0 -46.5 18.5t-18.5 46.5t18.5 46.5t46.5 18.5q26 0 44.5 -18.5t18.5 -46.5t-18.5 -46.5t-44.5 -18.5zM602 630h82q0 -65 -33 -102.5t-88 -45.5v-482h-91v81q-26 -42 -73 -65.5t-102 -23.5q-99 0 -162 61t-63 174v321h90v-309q0 -81 41 -124.5t112 -43.5 q73 0 115 45t42 131v301h73q57 9 57 82z" />
<glyph unicode="&#x1ef2;" horiz-adv-x="584" d="M247 263l-228 434h101l172 -353l172 353h101l-227 -434v-263h-91v263zM155 851l45 66l163 -102l-45 -63z" />
<glyph unicode="&#x1ef3;" horiz-adv-x="563" d="M285 104l170 444h94l-330 -806h-94l108 264l-221 542h101zM158 722l45 66l163 -102l-45 -63z" />
<glyph unicode="&#x1ef4;" horiz-adv-x="584" d="M247 263l-228 434h101l172 -353l172 353h101l-227 -434v-263h-91v263zM293 -224q-28 0 -46.5 18.5t-18.5 46.5t18.5 46.5t46.5 18.5q26 0 44.5 -18.5t18.5 -46.5t-18.5 -46.5t-44.5 -18.5z" />
<glyph unicode="&#x1ef5;" horiz-adv-x="563" d="M435 -224q-28 0 -46.5 18.5t-18.5 46.5t18.5 46.5t46.5 18.5q26 0 44.5 -18.5t18.5 -46.5t-18.5 -46.5t-44.5 -18.5zM285 104l170 444h94l-330 -806h-94l108 264l-221 542h101z" />
<glyph unicode="&#x1ef6;" horiz-adv-x="584" d="M194 856q3 41 33 62t72 21q41 0 68 -23t27 -60q0 -39 -21.5 -59.5t-48.5 -22.5l-2 -22h-52l-2 64q37 0 51 10t14 31q0 13 -10 21.5t-25 8.5q-39 0 -44 -31h-60zM247 263l-228 434h101l172 -353l172 353h101l-227 -434v-263h-91v263z" />
<glyph unicode="&#x1ef7;" horiz-adv-x="563" d="M183 728q3 41 33 62t72 21q41 0 68 -23t27 -60q0 -39 -21.5 -59.5t-48.5 -22.5l-2 -22h-52l-2 64q37 0 51 10t14 31q0 13 -10 21.5t-25 8.5q-39 0 -44 -31h-60zM285 104l170 444h94l-330 -806h-94l108 264l-221 542h101z" />
<glyph unicode="&#x1ef8;" horiz-adv-x="584" d="M247 263l-228 434h101l172 -353l172 353h101l-227 -434v-263h-91v263zM215 763h-69q2 50 25 79.5t63 29.5q33 0 64 -19q4 -3 10.5 -7.5t10 -7t8.5 -4.5t10 -2q12 0 21 10t9 29h69q0 -51 -24 -80t-65 -29q-34 0 -65 22q-27 19 -38 19q-29 0 -29 -40z" />
<glyph unicode="&#x1ef9;" horiz-adv-x="563" d="M285 104l170 444h94l-330 -806h-94l108 264l-221 542h101zM211 634h-69q2 50 25 79.5t63 29.5q33 0 64 -19q4 -3 10.5 -7.5t10 -7t8.5 -4.5t10 -2q12 0 21 10t9 29h69q0 -51 -24 -80t-65 -29q-34 0 -65 22q-27 19 -38 19q-29 0 -29 -40z" />
<glyph unicode="&#x1efa;" horiz-adv-x="0" d="M602 630h82q0 -72 -40.5 -111t-107.5 -39h-43v67h38q71 0 71 83z" />
<glyph unicode="&#x2000;" horiz-adv-x="532" />
<glyph unicode="&#x2001;" horiz-adv-x="1065" />
<glyph unicode="&#x2002;" horiz-adv-x="532" />
<glyph unicode="&#x2003;" horiz-adv-x="1065" />
<glyph unicode="&#x2004;" horiz-adv-x="355" />
<glyph unicode="&#x2005;" horiz-adv-x="266" />
<glyph unicode="&#x2006;" horiz-adv-x="177" />
<glyph unicode="&#x2007;" horiz-adv-x="177" />
<glyph unicode="&#x2008;" horiz-adv-x="133" />
<glyph unicode="&#x2009;" horiz-adv-x="213" />
<glyph unicode="&#x200a;" horiz-adv-x="59" />
<glyph unicode="&#x200c;" horiz-adv-x="0" d="M24 -230h-47v1041h47v-1041z" />
<glyph unicode="&#x200d;" horiz-adv-x="0" d="M128 593l-33 -33l-72 75v-865h-47v865l-69 -73l-33 33l93 93l-95 95l33 33l95 -95l96 95l32 -32l-96 -96z" />
<glyph unicode="&#x2010;" horiz-adv-x="551" d="M58 328v77h399v-77h-399z" />
<glyph unicode="&#x2011;" horiz-adv-x="551" d="M58 328v77h399v-77h-399z" />
<glyph unicode="&#x2012;" horiz-adv-x="551" d="M58 328v77h399v-77h-399z" />
<glyph unicode="&#x2013;" horiz-adv-x="677" d="M76 328v77h526v-77h-526z" />
<glyph unicode="&#x2014;" horiz-adv-x="885" d="M76 328v77h733v-77h-733z" />
<glyph unicode="&#x2018;" horiz-adv-x="219" d="M123 698h64l-59 -227h-101z" />
<glyph unicode="&#x2019;" horiz-adv-x="219" d="M96 470h-64l59 227h101z" />
<glyph unicode="&#x201a;" horiz-adv-x="186" d="M-2 -143l73 269h100l-112 -269h-61z" />
<glyph unicode="&#x201c;" horiz-adv-x="386" d="M123 698h64l-59 -227h-101zM286 698h64l-59 -227h-101z" />
<glyph unicode="&#x201d;" horiz-adv-x="391" d="M268 470h-64l59 227h101zM105 470h-64l59 227h101z" />
<glyph unicode="&#x201e;" horiz-adv-x="395" d="M-2 -143l73 269h100l-112 -269h-61zM196 -143l73 269h100l-112 -269h-61z" />
<glyph unicode="&#x2020;" horiz-adv-x="546" d="M309 540l193 8v-72l-193 8l9 -744h-90l9 744l-193 -8v72l193 -8l-9 241h90z" />
<glyph unicode="&#x2021;" horiz-adv-x="547" d="M502 548v-72l-193 8v-447l193 9v-73l-193 8l9 -241h-90l9 241l-192 -8v73l192 -9v447l-192 -8v72l192 -8l-9 241h90l-9 -241z" />
<glyph unicode="&#x2022;" horiz-adv-x="412" d="M205 211q-51 0 -86.5 35.5t-35.5 86.5q0 52 35.5 87.5t86.5 35.5q52 0 88 -35.5t36 -87.5q0 -51 -36 -86.5t-88 -35.5z" />
<glyph unicode="&#x2026;" horiz-adv-x="581" d="M353 56q0 -26 -17.5 -44t-42.5 -18q-26 0 -44 18t-18 44t18 44t44 18q25 0 42.5 -18t17.5 -44zM541 56q0 -26 -17.5 -44t-42.5 -18q-26 0 -44 18t-18 44t18 44t44 18q25 0 42.5 -18t17.5 -44zM166 56q0 -26 -17.5 -44t-42.5 -18q-26 0 -44 18t-18 44t18 44t44 18 q25 0 42.5 -18t17.5 -44z" />
<glyph unicode="&#x202f;" horiz-adv-x="213" />
<glyph unicode="&#x2030;" horiz-adv-x="1005" d="M41 560q0 67 41 107t105 40t105 -40t41 -107t-41.5 -107.5t-104.5 -40.5q-64 0 -105 40.5t-41 107.5zM187 651q-34 0 -54 -23.5t-20 -67.5t20 -67.5t54 -23.5t53.5 23.5t19.5 67.5t-19.5 67.5t-53.5 23.5zM90 0l404 698h90l-404 -698h-90zM343 138q0 68 41 108t105 40 t104.5 -40t40.5 -108q0 -67 -41 -107.5t-104 -40.5q-64 0 -105 40.5t-41 107.5zM488 229q-34 0 -54 -23t-20 -68q0 -44 20 -67t54 -23t54 23t20 67q0 45 -20 68t-54 23zM672 138q0 67 41.5 107.5t104.5 40.5q64 0 105 -40t41 -108q0 -67 -41 -107.5t-105 -40.5 q-63 0 -104.5 40.5t-41.5 107.5zM818 229q-34 0 -53.5 -23t-19.5 -68q0 -44 19.5 -67t53.5 -23t54 23t20 67q0 45 -20 68t-54 23z" />
<glyph unicode="&#x2039;" horiz-adv-x="280" d="M131 295l99 -175h-89l-96 175l96 175h89z" />
<glyph unicode="&#x203a;" horiz-adv-x="280" d="M139 120h-89l99 175l-99 175h89l96 -175z" />
<glyph unicode="&#x2044;" horiz-adv-x="494" d="M9 0l405 698h91l-405 -698h-91z" />
<glyph unicode="&#x205f;" horiz-adv-x="266" />
<glyph unicode="&#x20a8;" horiz-adv-x="1109" d="M450 492q0 133 -148 133h-134v-265h134q75 0 111.5 35.5t36.5 96.5zM77 697h225q118 0 179.5 -57.5t61.5 -147.5q0 -75 -44.5 -130t-136.5 -70l191 -292h-111l-184 288h-90v-288h-91v697zM612 396q0 69 55.5 115t148.5 46q89 0 144 -46.5t60 -127.5h-93q-4 46 -33.5 73.5 t-83.5 27.5q-51 0 -80 -23.5t-29 -61.5q0 -28 18 -47t46.5 -28.5t63.5 -16.5t70 -17t63.5 -25t46.5 -45t18 -72q0 -69 -56.5 -113t-144.5 -44q-94 0 -152 46t-65 129h94q4 -46 36.5 -74t86.5 -28q53 0 82 23.5t29 62.5t-33.5 60.5t-81.5 31t-95.5 22t-81 45t-33.5 87.5z" />
<glyph unicode="&#x20ac;" horiz-adv-x="811" d="M105 349q0 25 3 49h-83v63h96q33 111 123.5 178t209.5 67q113 0 198 -55t123 -156h-108q-60 128 -213 128q-84 0 -146.5 -43t-89.5 -119h236v-63h-252q-3 -24 -3 -49q0 -29 4 -52h251v-64h-235q29 -74 91.5 -115.5t143.5 -41.5q153 0 213 127h108q-38 -100 -123 -154.5 t-198 -54.5q-118 0 -208 65t-124 174h-97v64h83q-3 25 -3 52z" />
<glyph unicode="&#x20b9;" horiz-adv-x="635" d="M51 631v67h544v-67h-129v-91v-17h129v-66h-134q-13 -101 -76 -141t-204 -40v-79q0 -135 118 -135q116 0 116 130h84q-1 -100 -53 -151t-148 -51q-99 0 -150.5 55t-51.5 154v141q164 0 217.5 20.5t62.5 96.5h-325v66h329v18v90h-329z" />
<glyph unicode="&#x20ba;" horiz-adv-x="830" d="M281 702v-204l177 44v-66l-177 -43v-100l173 42v-66l-173 -42v-192q32 -7 77 -7q142 0 206.5 88t64.5 261h93q0 -220 -87 -327.5t-277 -107.5q-74 0 -171 22v240l-160 -39v66l160 39v100l-163 -39v63l163 41v227h94z" />
<glyph unicode="&#x20bd;" horiz-adv-x="624" d="M213 625v-262h134q75 0 111.5 34.5t36.5 95.5q0 132 -148 132h-134zM36 291v72h86v334h225q118 0 179.5 -57t61.5 -147q0 -87 -59.5 -144.5t-181.5 -57.5h-134v-96h218v-73h-218v-122h-91v122h-86v73h86v96h-86z" />
<glyph unicode="&#x2113;" horiz-adv-x="246" d="M77 0v740h91v-740h-91z" />
<glyph unicode="&#x2122;" horiz-adv-x="781" d="M25 648v56h242v-56h-85v-296h-72l1 296h-86zM323 352v352h93l109 -267l112 267h88v-352h-67l-1 255l-109 -255h-51l-108 259v-259h-66z" />
<glyph unicode="&#x2126;" horiz-adv-x="787" d="M41 350q0 155 101.5 255.5t250.5 100.5q150 0 251.5 -100.5t101.5 -255.5q0 -89 -37.5 -162.5t-108.5 -115.5h133v-72h-274v75q87 22 141 93.5t54 175.5q0 126 -73.5 202.5t-187.5 76.5t-187 -77t-73 -202q0 -104 54 -175.5t141 -93.5v-75h-275v72h133 q-70 42 -107.5 115.5t-37.5 162.5z" />
<glyph unicode="&#x212e;" horiz-adv-x="761" d="M685 137q-133 -144 -296 -144q-151 0 -246.5 89.5t-95.5 248.5q0 160 88.5 264.5t244.5 104.5q154 0 244 -95.5t90 -228.5v-61h-532v-168q78 -93 207 -93q73 0 132.5 31.5t123.5 95.5zM182 379h388v176q-66 85 -190 85q-131 0 -198 -96v-165z" />
<glyph unicode="&#x2202;" horiz-adv-x="572" d="M429 324q0 77 -31 117t-86 40q-78 0 -129 -74t-51 -184q0 -77 31 -116t82 -39q79 0 131.5 76t52.5 180zM39 223q0 135 77.5 235t192.5 100q97 0 129 -90q-7 217 -153 217q-37 0 -80 -12v53q46 14 93 14q111 0 172.5 -86.5t61.5 -241.5q0 -191 -85 -306.5t-212 -115.5 q-86 0 -141 59.5t-55 173.5z" />
<glyph unicode="&#x2206;" horiz-adv-x="680" d="M20 71l282 622h76l282 -622v-71h-640v71zM567 71l-227 518l-227 -518h454z" />
<glyph unicode="&#x220f;" horiz-adv-x="739" d="M39 626v72h660v-72h-79v-626h-90v626h-321v-626h-91v626h-79z" />
<glyph unicode="&#x2211;" horiz-adv-x="457" d="M40 588v105h389v-71h-312l266 -269v-71l-267 -274h313v-71h-389v106l260 272z" />
<glyph unicode="&#x2212;" horiz-adv-x="551" d="M76 328v77h399v-77h-399z" />
<glyph unicode="&#x2215;" horiz-adv-x="476" d="M53 -170l273 1112h91l-274 -1112h-90z" />
<glyph unicode="&#x2219;" horiz-adv-x="212" d="M169 341q0 -26 -17.5 -44t-42.5 -18q-26 0 -44 18t-18 44t18 44t44 18q25 0 42.5 -18t17.5 -44z" />
<glyph unicode="&#x221a;" horiz-adv-x="788" d="M282 -44h-45l-125 220l-65 -38l-28 47l143 84l114 -202l431 802h67z" />
<glyph unicode="&#x221e;" horiz-adv-x="696" d="M505 265q37 0 59.5 22t22.5 61q0 38 -22 59.5t-59 21.5q-35 0 -66.5 -22t-52.5 -59q32 -41 58.5 -62t59.5 -21zM190 266q34 0 65 21t52 57q-22 28 -36.5 44t-36 29t-43.5 13q-37 0 -59.5 -22t-22.5 -61q0 -38 22 -59.5t59 -21.5zM33 347q0 68 44 108.5t110 40.5 q50 0 88 -26.5t75 -73.5q26 45 68 73t95 27q65 -1 108 -40.5t43 -107.5t-44.5 -108.5t-110.5 -40.5q-50 0 -88 25.5t-76 71.5q-59 -98 -162 -97q-66 1 -108 40t-42 108z" />
<glyph unicode="&#x222b;" horiz-adv-x="261" d="M43 -57l92 836q8 73 45.5 106t105.5 33h22l-8 -76h-17q-26 0 -39.5 -14.5t-17.5 -48.5l-92 -836q-7 -74 -44 -107t-106 -33h-23l7 75h20q26 0 38.5 14.5t16.5 50.5z" />
<glyph unicode="&#x2248;" horiz-adv-x="519" d="M37 201q26 146 141 146q40 0 91.5 -33t77.5 -33t44.5 17.5t22.5 47.5h68q-25 -146 -142 -146q-40 0 -90 33t-78 33q-26 0 -45 -17.5t-23 -47.5h-67zM37 412q26 146 141 146q40 0 91.5 -33t77.5 -33t44.5 17.5t22.5 47.5h68q-25 -146 -142 -146q-40 0 -90 33t-78 33 q-26 0 -45 -17.5t-23 -47.5h-67z" />
<glyph unicode="&#x2260;" horiz-adv-x="706" d="M118 122l84 98h-101v77h167l117 138h-284v77h350l84 98h70l-84 -98h100v-77h-166l-118 -138h284v-77h-350l-84 -98h-69z" />
<glyph unicode="&#x2264;" horiz-adv-x="511" d="M79 86v69h355v-69h-355zM436 212h-120l-242 191l242 192h120l-240 -191z" />
<glyph unicode="&#x2265;" horiz-adv-x="511" d="M195 212h-120l239 192l-239 191h120l242 -192zM77 155h355v-69h-355v69z" />
<glyph unicode="&#x25ca;" horiz-adv-x="554" d="M36 350l242 241l240 -241l-241 -242zM420 350l-142 143l-143 -143l142 -144z" />
<glyph unicode="&#x25cc;" horiz-adv-x="651" d="M557 409q0 -19 -12 -30.5t-31 -11.5t-31 11.5t-12 30.5t12 30.5t31 11.5t31 -11.5t12 -30.5zM181 123q0 -19 -12 -30.5t-31 -11.5t-31 11.5t-12 30.5t12 30.5t31 11.5t31 -11.5t12 -30.5zM279 47q0 -19 -12 -30.5t-31 -11.5t-31 11.5t-12 30.5t12 30.5t31 11.5t31 -11.5 t12 -30.5zM136 236q0 -19 -12 -30.5t-31 -11.5t-31 11.5t-12 30.5t12 30.5t31 11.5t31 -11.5t12 -30.5zM403 33q0 -19 -12 -30.5t-31 -11.5t-31 11.5t-12 30.5t12 30.5t31 11.5t31 -11.5t12 -30.5zM151 357q0 -19 -12 -30.5t-31 -11.5t-31 11.5t-12 30.5t12 30.5t31 11.5 t31 -11.5t12 -30.5zM518 79q0 -19 -12 -30.5t-31 -11.5t-31 11.5t-12 30.5t12 30.5t31 11.5t31 -11.5t12 -30.5zM227 456q0 -19 -12 -30.5t-31 -11.5t-31 11.5t-12 30.5t12 30.5t31 11.5t31 -11.5t12 -30.5zM591 175q0 -19 -12 -30.5t-31 -11.5t-31 11.5t-12 30.5t12 30.5 t31 11.5t31 -11.5t12 -30.5zM344 498q0 -19 -12 -30.5t-31 -11.5t-31 11.5t-12 30.5t12 30.5t31 11.5t31 -11.5t12 -30.5zM601 295q0 -19 -12 -30.5t-31 -11.5t-31 11.5t-12 30.5t12 30.5t31 11.5t31 -11.5t12 -30.5zM465 483q0 -19 -12 -30.5t-31 -11.5t-31 11.5t-12 30.5 t12 30.5t31 11.5t31 -11.5t12 -30.5z" />
<glyph unicode="&#x25fc;" horiz-adv-x="550" d="M0 550h550v-550h-550v550z" />
<glyph unicode="&#xfb01;" horiz-adv-x="571" d="M94 0v473h-70v75h70v39q0 92 47.5 134.5t152.5 42.5v-76q-60 0 -84.5 -23.5t-24.5 -77.5v-39h311v-548h-91v473h-220v-473h-91zM451 637q-28 0 -46.5 18.5t-18.5 46.5t18.5 46.5t46.5 18.5q26 0 44.5 -18.5t18.5 -46.5t-18.5 -46.5t-44.5 -18.5z" />
<glyph unicode="&#xfb02;" horiz-adv-x="574" d="M94 0v473h-71v75h71v39q0 92 47.5 134.5t152.5 42.5v-76q-60 0 -84.5 -23.5t-24.5 -77.5v-39h115v-75h-115v-473h-91zM406 0v740h91v-740h-91z" />
<glyph horiz-adv-x="801" d="M173 567q0 -57 42.5 -91t109.5 -36q85 52 85 126q0 49 -34 80t-85 31q-50 0 -84 -29t-34 -81zM385 -55v162q-13 -28 -48.5 -52t-90.5 -24q-78 0 -126 46t-48 118q0 33 11 61t25.5 46.5t41.5 38.5t46 30.5t53 27.5q-66 14 -109 58.5t-43 114.5q0 82 56 130t140 48 q79 0 133 -45t54 -124q0 -83 -71 -142h206v301h212v-70h-131v-670h-81v377h-291q-4 -2 -24.5 -12t-25.5 -13t-22.5 -12t-23 -13.5t-19 -14t-18 -16t-13 -17t-11.5 -20.5t-6 -22.5t-3 -25.5q0 -47 31 -79t83 -32q55 0 87 35.5t32 86.5h71v-277h-77z" />
<glyph horiz-adv-x="806" d="M618 0v457h-209q98 -49 98 -164q0 -83 -52 -134t-135 -51q-58 0 -102.5 24t-67.5 62v-159h-81v274h78q6 -63 49 -97.5t101 -34.5q62 0 97.5 37.5t35.5 96.5q0 69 -47 107.5t-120 38.5h-20v68h375v145h-645v70h859v-70h-132v-670h-82z" />
<glyph horiz-adv-x="738" d="M463 0v202q-51 -104 -180 -104q-95 0 -154 63.5t-59 168.5q0 104 60 166.5t156 62.5q126 0 177 -102v213h-490v70h952v-70h-382v-217q49 106 173 106q92 0 150.5 -63.5t58.5 -165.5h-85q0 71 -42 114t-105 43q-74 0 -112 -49t-38 -116v-322h-80zM309 168q74 0 114 49 t40 111q0 64 -39.5 111.5t-114.5 47.5q-66 0 -110.5 -43t-44.5 -114q0 -75 43.5 -118.5t111.5 -43.5z" />
<glyph horiz-adv-x="674" d="M-27 670v70h857v-70h-485v-131q0 -107 -49.5 -154.5t-129.5 -47.5v-103q0 -74 45 -119t124 -45q108 0 156 97q-93 55 -93 173q0 94 59.5 149t156.5 55t156.5 -55t59.5 -149q0 -95 -60.5 -149.5t-155.5 -54.5q-30 0 -56 6q-30 -65 -87.5 -105t-137.5 -40q-114 0 -182 65.5 t-68 180.5v156h36q66 0 104 33.5t38 116.5v121h-288zM473 340q0 -64 38.5 -102t102.5 -38q65 0 103.5 38t38.5 102t-38.5 102t-103.5 38q-64 0 -102.5 -38t-38.5 -102z" />
<glyph horiz-adv-x="480" d="M-27 670v70h533v-70h-127v-270q0 -78 -40.5 -127t-123.5 -49q-81 0 -124 46.5t-43 124.5v30h82v-31q0 -41 19.5 -69.5t62.5 -28.5q83 0 83 101v273h-322z" />
<glyph horiz-adv-x="422" d="M-27 670v70h620v-70h-410v-73q0 -60 32 -90t104 -30h47v-68h-53q-74 0 -110 -31.5t-36 -81.5q0 -59 43.5 -90.5t113.5 -31.5q87 0 142.5 52.5t55.5 133.5h71q0 -109 -74 -182t-195 -73q-112 0 -176.5 47t-64.5 136q0 63 38 103t94 50v2q-52 9 -84 45.5t-32 104.5v77h-126 z" />
<glyph horiz-adv-x="660" d="M588 342q-22 0 -37 15t-15 36q0 22 15 37t37 15t37 -15t15 -37q0 -21 -15 -36t-37 -15zM397 -293l-122 199h84l124 -199h-86zM-27 670v70h713v-70h-219v-181h-177q-120 0 -120 -83q0 -43 29.5 -63t76.5 -20h45q55 0 98.5 -14.5t75 -54t31.5 -100.5q0 -76 -55 -122 t-156 -46q-112 0 -177 52.5t-67 140.5h82q1 -58 42.5 -93.5t117.5 -35.5q65 0 99.5 29t34.5 76q0 58 -39.5 83t-100.5 25h-41q-75 0 -127.5 34t-52.5 111q0 73 52 107t129 34h119v121h-413z" />
<glyph horiz-adv-x="455" d="M50 461v66h363v-66h-35q-71 0 -114 -42t-43 -106q0 -67 44.5 -105t110.5 -38q75 0 122.5 52t47.5 128h71q3 -108 -66 -179.5t-182 -71.5q-99 0 -163 53t-64 148q0 110 90 161h-182zM-27 670v70h644v-70h-644z" />
<glyph horiz-adv-x="817" d="M-27 670v70h871v-70h-665v-102q0 -120 132 -120h22v-69h-20q-78 0 -116.5 -35t-38.5 -90q0 -75 63.5 -115t177.5 -40q133 0 215 65.5t82 179.5q0 68 -32.5 106t-77.5 38q-42 0 -74 -29t-32 -87q0 -37 17 -93h-69q-18 50 -18 101q0 86 51 128t125 42q80 0 132.5 -54 t52.5 -154q0 -146 -102 -230.5t-271 -84.5q-148 0 -236.5 57t-88.5 162q0 69 39 111.5t100 53.5v3q-51 8 -83 45t-32 106v105h-124z" />
<glyph horiz-adv-x="546" d="M267 131q-90 0 -141 55.5t-51 145.5v167h84v-165q0 -58 29.5 -94t79.5 -36q52 0 82.5 36t30.5 94v165h313v-72h-232v-95q0 -90 -52.5 -145.5t-142.5 -55.5zM-27 670v70h721v-70h-721z" />
<glyph horiz-adv-x="569" d="M180 77v-154h-79v248h75q6 -50 45 -82.5t106 -32.5q58 0 88 28t30 70q0 51 -36 80t-105 29h-53q-72 2 -120.5 37.5t-48.5 105.5q0 75 53 109.5t130 34.5h119v120h-411v70h711v-70h-219v-181h-177q-122 0 -122 -84q0 -42 30.5 -62t78.5 -20h409v-64l-211 1q49 -42 49 -116 q0 -66 -44.5 -108.5t-127.5 -42.5q-38 0 -69.5 9.5t-51.5 24.5t-31 26.5t-18 23.5z" />
<glyph horiz-adv-x="543" d="M290 89q-94 0 -152 50t-68 124h79q12 -43 48 -72.5t94 -29.5q72 0 111.5 47t39.5 117q0 69 -39.5 116t-111.5 47q-59 0 -95.5 -30t-46.5 -72h-79q10 74 67 124t153 50t154.5 -54.5t70.5 -140.5h150v-72h-149q-9 -90 -68.5 -147t-157.5 -57zM-27 670v70h692v-70h-692z" />
<glyph horiz-adv-x="650" d="M422 -236l-122 199h84l124 -199h-86zM-27 670v70h704v-70h-213v-187h-101q-92 0 -151 -48.5t-59 -139.5q0 -79 52 -129.5t133 -50.5q84 0 135.5 52.5t51.5 135.5h80q0 -116 -73 -188t-192 -72q-118 0 -194 70t-76 181q0 124 79 192t210 68h23v116h-409z" />
<glyph horiz-adv-x="675" d="M338 118q82 0 134 50.5t52 130.5q0 79 -52 129.5t-134 50.5q-81 0 -133 -50.5t-52 -129.5t52 -130t133 -51zM338 47q-116 0 -192 70t-76 182q0 103 63.5 169.5t162.5 78.5v123h-323v70h729v-70h-324v-122q99 -12 163.5 -79t64.5 -170q0 -113 -76 -182.5t-192 -69.5z M421 -232l-122 199h84l124 -199h-86z" />
<glyph horiz-adv-x="574" d="M394 -293l-122 199h84l124 -199h-86zM-27 670v70h627v-70h-139v-181h-171q-120 0 -120 -83q0 -43 29.5 -63t76.5 -20h45q55 0 98.5 -14.5t75 -54t31.5 -100.5q0 -76 -55 -122t-156 -46q-112 0 -177 52.5t-67 140.5h82q1 -58 42.5 -93.5t117.5 -35.5q65 0 99.5 29t34.5 76 q0 58 -39.5 83t-100.5 25h-41q-75 0 -127.5 34t-52.5 111q0 73 52 107t129 34h114v121h-408z" />
<glyph horiz-adv-x="641" d="M432 -271l-122 199h84l124 -199h-86zM-27 670v70h695v-70h-185v-172h-95q-106 0 -172 -55.5t-66 -161.5q0 -93 61 -152t161 -59q73 0 120.5 37t47.5 96q0 45 -28 74t-72 29q-38 0 -64.5 -24.5t-26.5 -63.5q0 -12 3 -19h-63q-2 18 -2 30q0 64 44 101t112 37 q77 0 123 -45.5t46 -118.5q0 -88 -65 -141.5t-176 -53.5q-131 0 -216 75t-85 200q0 133 82 204t212 71h40v112h-431z" />
<glyph horiz-adv-x="564" d="M-27 670v70h618v-70h-119v-287q0 -90 -50 -145t-141 -55q-90 0 -140 56t-50 144v287h-118zM282 254q50 0 79 33.5t29 87.5v295h-217v-295q0 -54 29.5 -87.5t79.5 -33.5z" />
<glyph horiz-adv-x="392" d="M544 426h-185q-96 0 -150.5 -45t-54.5 -133q0 -85 48 -132t139 -47h22v-67h-33q-119 0 -189.5 63.5t-70.5 183.5q0 125 77.5 187t207.5 62h189v-72zM-27 670v70h571v-70h-571z" />
<glyph horiz-adv-x="472" d="M650 351q0 -114 -81.5 -183t-205.5 -69q-133 0 -208.5 72.5t-75.5 199.5q0 26 3 53h99q206 0 206 142q0 48 -29 79.5t-79 31.5q-52 0 -82 -31.5t-30 -84.5q0 -15 4 -43h-76q-4 28 -4 46q0 86 52.5 135.5t136.5 49.5q83 0 134 -51.5t51 -133.5q0 -100 -69.5 -150.5 t-185.5 -50.5h-51q1 -89 52.5 -141.5t150.5 -52.5q95 0 155 49.5t60 132.5h73z" />
<glyph horiz-adv-x="609" d="M570 -295l-122 199h84l124 -199h-86zM-27 670v70h663l-1 -70h-144v-182h-148q-82 0 -135 -43t-53 -122q0 -71 42.5 -114t114.5 -43q56 0 99 35t43 101h77v-318h-82v192q-21 -35 -63.5 -56t-95.5 -21q-98 0 -159 60.5t-61 166.5q0 113 75 173.5t191 60.5h72v110h-435z" />
<glyph horiz-adv-x="428" d="M321 97q-104 0 -168.5 45t-64.5 130q0 62 36.5 99.5t85.5 45.5v3q-54 13 -91.5 54.5t-37.5 109.5q0 73 47.5 119t123.5 46q77 0 121.5 -44t44.5 -115q0 -22 -1 -33h-64q1 13 1 24q0 42 -26.5 70t-72.5 28q-47 0 -74 -29.5t-27 -73.5q0 -57 41.5 -89.5t110.5 -32.5h57v-68 h-54q-66 0 -101 -29t-35 -77q0 -56 44 -84t111 -28q92 0 146 45t54 118h73q0 -105 -76 -169.5t-204 -64.5z" />
<glyph horiz-adv-x="510" d="M266 117q-88 0 -145.5 53t-57.5 140q0 90 59 142t151 52h389v-70h-256q54 -52 54 -133q0 -84 -54.5 -134t-139.5 -50zM267 188q55 0 90.5 34.5t35.5 88.5q0 53 -35.5 88t-90.5 35q-56 0 -92 -34.5t-36 -89.5q0 -54 35.5 -88t92.5 -34zM-27 670v70h689v-70h-689z" />
<glyph horiz-adv-x="366" d="M-27 670v70h563v-70h-368v-225q0 -84 37.5 -130.5t114.5 -46.5q69 0 108 44.5t39 110.5h69q0 -99 -59.5 -162.5t-162.5 -63.5q-111 0 -170 67t-59 181v225h-112z" />
<glyph horiz-adv-x="737" d="M309 268q65 0 102 43.5t37 107.5v251h-280v-229q0 -82 35 -127.5t106 -45.5zM-27 670v70h943v-70h-385v-216q49 105 177 105q99 0 153.5 -62t54.5 -167h-84q0 73 -38 115t-110 42q-76 0 -114.5 -51.5t-38.5 -122.5v-313h-83v281q-50 -84 -158 -84q-100 0 -152.5 65.5 t-52.5 178.5v229h-112z" />
<glyph horiz-adv-x="414" d="M322 91q-111 0 -181.5 66t-70.5 173t69.5 173.5t181.5 66.5q62 0 111.5 -21t79 -56t44.5 -76t15 -85q0 -102 -66.5 -171.5t-182.5 -69.5zM323 511q-75 0 -124 -46l274 -240q31 47 31 104q0 73 -47.5 127.5t-133.5 54.5zM-27 670v70h600v-70h-600zM325 150q76 0 124 46 l-277 239q-31 -47 -31 -107q0 -81 53.5 -129.5t130.5 -48.5z" />
<glyph horiz-adv-x="510" d="M260 172q49 0 76.5 35t27.5 97v81h-92q-53 0 -85.5 -28.5t-32.5 -78.5q0 -48 30 -77t76 -29zM261 101q-83 0 -134 48.5t-51 128.5q0 83 54.5 129.5t139.5 46.5h94v94q0 129 -92 129q-41 0 -66.5 -28t-25.5 -77q0 -19 4 -38h-83q-4 26 -4 41q0 79 45.5 126.5t126.5 47.5 q173 0 173 -214v-81h198v-69h-198v-77q0 -100 -47 -153.5t-134 -53.5z" />
<glyph horiz-adv-x="505" d="M232 172q49 0 76.5 35t27.5 97v81h-93q-52 0 -84.5 -29t-32.5 -78q0 -48 30 -77t76 -29zM-27 670v70h663v-70h-222v-216h222v-69h-222v-77q0 -100 -47 -153.5t-135 -53.5q-83 0 -133.5 48.5t-50.5 128.5q0 83 54 129.5t139 46.5h95v216h-363z" />
<glyph horiz-adv-x="445" d="M-27 670v70h652v-70h-277v-83q0 -186 -197 -194v-7q0 -96 54.5 -150t146.5 -54q84 0 140.5 50t56.5 128h76q1 -108 -76 -178.5t-200 -70.5q-131 0 -205.5 75.5t-74.5 207.5q0 23 3 47h14q89 0 134 36.5t45 123.5v69h-292z" />
<glyph horiz-adv-x="535" d="M354 -290l-122 199h84l124 -199h-86zM-27 670v70h589v-70h-120v-96q0 -114 -56 -174.5t-170 -60.5h-51v-137q0 -63 29 -101t85 -38q53 0 83.5 35.5t30.5 93.5v19h80v-17q0 -93 -51.5 -148t-140.5 -55q-97 0 -147.5 59t-50.5 157v200h105q171 0 171 167v96h-386z" />
<glyph horiz-adv-x="665" d="M454 398q16 62 59 103.5t120 41.5q90 0 145.5 -62t55.5 -167l-84 -2q0 69 -33.5 113t-96.5 44q-65 0 -99 -49.5t-34 -133.5v-15h-71v15q0 83 -32.5 133t-94.5 50q-65 0 -100 -43.5t-35 -113.5q0 -76 42 -123t117 -47q9 0 29 2v-73q-26 -2 -34 -2q-114 0 -176 68t-62 177 q0 106 57.5 167.5t150.5 61.5q73 0 115 -42t58 -103h3zM-27 670v70h861v-70h-861z" />
<glyph horiz-adv-x="394" d="M319 96q-112 0 -180.5 64.5t-68.5 172.5q0 103 69.5 166.5t179.5 63.5q122 0 186 -70t64 -165q0 -93 -65 -162.5t-185 -69.5zM321 162q81 0 124.5 51t43.5 116q0 67 -43 117t-125 50q-73 0 -122 -45.5t-49 -120.5q0 -77 48 -122.5t123 -45.5zM-27 670v70h596v-70h-596z " />
<glyph horiz-adv-x="538" d="M303 -8q-102 0 -157.5 60.5t-55.5 163.5v175h146q85 0 138.5 38.5t53.5 113.5q0 62 -33 97.5t-90 35.5t-90.5 -35.5t-33.5 -96.5q0 -22 3 -44h-83q-4 32 -4 46q0 91 56.5 147t151.5 56q94 0 151 -56t57 -155q0 -106 -69 -162t-180 -56h-90v-110q0 -66 31.5 -106t95.5 -40 q56 0 87.5 36.5t31.5 97.5v13h81v-14q0 -95 -53 -150t-145 -55z" />
<glyph horiz-adv-x="387" d="M321 263q59 0 97.5 28.5t48.5 67.5l-302 245v-161q0 -86 39 -133t117 -47zM-27 670v70h569v-70h-376l376 -299q0 -68 -60.5 -123.5t-163.5 -55.5q-114 0 -173.5 68t-59.5 185v225h-112z" />
<glyph horiz-adv-x="524" d="M-27 670v70h659v-70h-203v-91q0 -105 -61 -161h264v-69h-467v-146q0 -64 29 -102t87 -38q53 0 84 35.5t31 93.5v12h80q1 -7 1 -16q0 -90 -52.5 -143.5t-142.5 -53.5q-96 0 -147.5 59.5t-51.5 156.5v204h92q84 0 128 45t44 123v91h-374z" />
<glyph horiz-adv-x="586" d="M528 62q-11 -70 -69.5 -118t-152.5 -48q-108 0 -169.5 62.5t-61.5 158.5q0 63 28.5 112t79.5 76q-84 36 -84 121q0 62 44.5 94.5t117.5 32.5h131v117h-419v70h639v-70h-141v-178h-183q-47 0 -77 -19.5t-30 -61.5q0 -61 71 -82q28 5 56 5q97 0 152.5 -47.5t67.5 -117.5 h-80q-10 39 -46.5 68.5t-95.5 29.5q-70 0 -109.5 -43t-39.5 -108q0 -66 39.5 -108t109.5 -42q58 0 94.5 28.5t47.5 67.5h80zM383 -382l-122 199h84l124 -199h-86z" />
<glyph horiz-adv-x="998" d="M294 95q-96 0 -160 63t-64 162q0 102 63.5 165.5t159.5 63.5q76 0 127.5 -38t76.5 -100h3q25 62 77 100t126 38q96 0 160.5 -63.5t64.5 -165.5q0 -99 -64.5 -162t-160.5 -63q-75 0 -129.5 39.5t-73.5 100.5h-3q-20 -62 -74 -101t-129 -39zM305 167q68 0 110 42.5 t42 110.5q0 70 -42 113.5t-110 43.5t-111 -43.5t-43 -114.5q0 -68 43.5 -110t110.5 -42zM692 167q67 0 110.5 42t43.5 110q0 71 -43 114.5t-110 43.5q-69 0 -111 -44t-42 -113q0 -68 42 -110.5t110 -42.5zM-27 670v70h1050v-70h-1050z" />
<glyph horiz-adv-x="529" d="M173 567q0 -57 42.5 -91t109.5 -36q85 52 85 126q0 49 -34 80t-85 31q-50 0 -84 -29t-34 -81zM385 -55v162q-13 -28 -48.5 -52t-90.5 -24q-78 0 -126 46t-48 118q0 33 11 61t25.5 46.5t41.5 38.5t46 30.5t53 27.5q-66 14 -109 58.5t-43 114.5q0 82 56 130t140 48 q79 0 133 -45t54 -124q0 -83 -71 -142h235v-62h-320q-4 -2 -24.5 -12t-25.5 -13t-22.5 -12t-23 -13.5t-19 -14t-18 -16t-13 -17t-11.5 -20.5t-6 -22.5t-3 -25.5q0 -47 31 -79t83 -32q55 0 87 35.5t32 86.5h71v-277h-77z" />
<glyph horiz-adv-x="535" d="M-27 670v70h731v-70h-731zM243 457v68h461v-68h-295q98 -49 98 -164q0 -83 -52 -134t-135 -51q-58 0 -102.5 24t-67.5 62v-159h-81v274h78q6 -63 49 -97.5t101 -34.5q62 0 97.5 37.5t35.5 96.5q0 69 -47 107.5t-120 38.5h-20z" />
<glyph horiz-adv-x="738" d="M463 0v202q-51 -104 -180 -104q-95 0 -154 63.5t-59 168.5q0 104 60 166.5t156 62.5q126 0 177 -102v213h-490v70h952v-70h-382v-217q49 106 173 106q92 0 150.5 -63.5t58.5 -165.5h-85q0 71 -42 114t-105 43q-74 0 -112 -49t-38 -116v-322h-80zM269 -95q-24 0 -40 16 t-16 39q0 24 16 40.5t40 16.5t40 -16.5t16 -40.5q0 -23 -16 -39t-40 -16zM309 168q74 0 114 49t40 111q0 64 -39.5 111.5t-114.5 47.5q-66 0 -110.5 -43t-44.5 -114q0 -75 43.5 -118.5t111.5 -43.5z" />
<glyph horiz-adv-x="674" d="M-27 670v70h857v-70h-485v-131q0 -107 -49.5 -154.5t-129.5 -47.5v-103q0 -74 45 -119t124 -45q108 0 156 97q-93 55 -93 173q0 94 59.5 149t156.5 55t156.5 -55t59.5 -149q0 -95 -60.5 -149.5t-155.5 -54.5q-30 0 -56 6q-30 -65 -87.5 -105t-137.5 -40q-114 0 -182 65.5 t-68 180.5v156h36q66 0 104 33.5t38 116.5v121h-288zM316 -193q-24 0 -40 16t-16 39q0 24 16 40.5t40 16.5t40 -16.5t16 -40.5q0 -23 -16 -39t-40 -16zM473 340q0 -64 38.5 -102t102.5 -38q65 0 103.5 38t38.5 102t-38.5 102t-103.5 38q-64 0 -102.5 -38t-38.5 -102z" />
<glyph horiz-adv-x="480" d="M-27 670v70h533v-70h-127v-270q0 -78 -40.5 -127t-123.5 -49q-81 0 -124 46.5t-43 124.5v30h82v-31q0 -41 19.5 -69.5t62.5 -28.5q83 0 83 101v273h-322zM219 28q-24 0 -40 16t-16 39q0 24 16 40.5t40 16.5t40 -16.5t16 -40.5q0 -23 -16 -39t-40 -16z" />
<glyph horiz-adv-x="546" d="M267 131q-90 0 -141 55.5t-51 145.5v167h84v-165q0 -58 29.5 -94t79.5 -36q52 0 82.5 36t30.5 94v165h313v-72h-232v-95q0 -90 -52.5 -145.5t-142.5 -55.5zM-27 670v70h721v-70h-721zM271 -60q-24 0 -40 16t-16 39q0 24 16 40.5t40 16.5t40 -16.5t16 -40.5q0 -23 -16 -39 t-40 -16z" />
<glyph horiz-adv-x="737" d="M309 268q65 0 102 43.5t37 107.5v251h-280v-229q0 -82 35 -127.5t106 -45.5zM-27 670v70h943v-70h-385v-216q49 105 177 105q99 0 153.5 -62t54.5 -167h-84q0 73 -38 115t-110 42q-76 0 -114.5 -51.5t-38.5 -122.5v-313h-83v281q-50 -84 -158 -84q-100 0 -152.5 65.5 t-52.5 178.5v229h-112zM260 9q-24 0 -40 16t-16 39q0 24 16 40.5t40 16.5t40 -16.5t16 -40.5q0 -23 -16 -39t-40 -16z" />
<glyph horiz-adv-x="0" d="M-183 725v89q0 88 41 140.5t125 52.5q78 0 120.5 -46.5t40.5 -122.5h-74q2 44 -21.5 71t-63.5 27q-90 0 -90 -122v-89h-78z" />
<glyph horiz-adv-x="294" d="M384 387q-46 -25 -119 -25q-61 0 -111 17.5t-86.5 63.5t-37.5 115h80q1 -70 50 -102t117 -32q34 0 77 12zM-27 670v70h393v-70h-393z" />
<glyph horiz-adv-x="0" d="M-462 -97l166 179h112l166 -179h-87l-135 147l-135 -147h-87z" />
<glyph horiz-adv-x="995" d="M463 0v206q-16 -33 -42 -54l-200 -198h-92l155 150h-1q-93 0 -153 62t-60 164q0 104 60 166.5t156 62.5q126 0 177 -102v213h-490v70h1048v-70h-478v-217q49 106 173 106q92 0 150.5 -63.5t58.5 -163.5q0 -107 -58.5 -168.5t-150.5 -61.5q-37 0 -62 7v66q16 -4 42 -4 q63 0 103.5 42.5t40.5 116.5q0 71 -42 114t-105 43q-74 0 -111.5 -49t-38.5 -116v-322h-80zM309 168q26 0 47 6l10 10l8 -3q43 19 66 60.5t23 86.5q0 64 -39.5 111.5t-114.5 47.5q-66 0 -110.5 -43t-44.5 -114q0 -75 43.5 -118.5t111.5 -43.5z" />
<glyph horiz-adv-x="933" d="M745 0v218q-45 -82 -150 -82q-21 0 -39 3q-21 -43 -55 -75l-202 -207h-90v5l139 138h-15q-114 0 -182 64.5t-68 178.5v156h36q66 0 104 33.5t38 116.5v121h-288v70h987v-70h-132v-670h-83zM611 201q65 0 99.5 42.5t34.5 97.5t-34 97t-100 42q-59 0 -98.5 -37t-39.5 -100 q0 -66 39 -104t99 -38zM335 70q107 0 154 94q-92 55 -92 179q0 90 56.5 146t141.5 56q104 0 150 -81v206h-400v-131q0 -107 -49.5 -154.5t-129.5 -47.5v-103q0 -74 45 -119t124 -45z" />
<glyph horiz-adv-x="745" d="M559 0v251l-270 -271h-96l364 357v333h-178v-217q0 -78 -40.5 -126.5t-123.5 -48.5q-81 0 -124 46.5t-43 123.5v31h82v-31q0 -42 19.5 -70.5t62.5 -28.5q83 0 83 100v221h-322v70h799v-70h-132v-670h-81z" />
<glyph horiz-adv-x="710" d="M324 174q84 0 141 52.5t57 133.5v310h-339v-71q0 -122 136 -122h47v-68h-53q-74 0 -110 -31.5t-36 -81.5q0 -59 43.5 -90.5t113.5 -31.5zM-27 670v70h764v-70h-131v-670h-84v222q-13 -23 -34 -44h1l-231 -231h-92l170 163q-10 -1 -30 -1q-100 0 -161.5 46.5t-61.5 132.5 q0 63 38 103t94 50v2q-52 9 -84 45.5t-32 104.5v77h-126z" />
<glyph horiz-adv-x="660" d="M588 342q-22 0 -37 15t-15 36q0 22 15 37t37 15t37 -15t15 -37q0 -21 -15 -36t-37 -15zM-27 670v70h713v-70h-219v-181h-177q-120 0 -120 -83q0 -43 29.5 -63t76.5 -20h45q55 0 98.5 -14.5t75 -54t31.5 -100.5q0 -60 -35.5 -102.5t-102.5 -57.5l145 -157h-87l-135 147 l-135 -147h-87l146 157q-76 17 -119 65.5t-45 119.5h82q1 -58 42.5 -93.5t117.5 -35.5q65 0 99.5 29t34.5 76q0 58 -39.5 83t-100.5 25h-41q-75 0 -127.5 34t-52.5 111q0 73 52 107t129 34h119v121h-413z" />
<glyph horiz-adv-x="735" d="M-27 670v70h788v-70h-131v-670h-84v206q-20 -34 -51 -57l-193 -195h-92l154 149h-10q-91 0 -151.5 52.5t-60.5 144.5q0 110 90 161h-182v66h363v-66h-35q-71 0 -114 -42t-43 -106q0 -67 44.5 -105t110.5 -38q75 0 122.5 52t47.5 128v320h-573z" />
<glyph horiz-adv-x="817" d="M-27 670v70h871v-70h-219v-124q65 -12 105.5 -64.5t40.5 -139.5q0 -122 -73 -202t-199 -104l147 -158h-87l-135 147l-135 -147h-87l140 151q-124 11 -196.5 66.5t-72.5 150.5q0 69 39 111.5t100 53.5v3q-51 8 -83 45t-32 106v105h-124zM399 99q133 0 215 65.5t82 179.5 q0 68 -32.5 106t-77.5 38q-42 0 -74 -29t-32 -87q0 -37 17 -93h-69q-18 50 -18 101q0 75 38.5 116t99.5 51v123h-369v-102q0 -120 132 -120h22v-69h-20q-78 0 -116.5 -35t-38.5 -90q0 -75 63.5 -115t177.5 -40z" />
<glyph horiz-adv-x="840" d="M-27 670v70h894v-70h-132v-670h-78v242l-261 -276h-93l353 361v106h-197v-31q0 -90 -51.5 -146t-140.5 -56q-90 0 -141 55.5t-51 146.5v99h84v-97q0 -59 29 -94.5t80 -35.5q52 0 82.5 35.5t30.5 94.5v97h275v169h-683z" />
<glyph horiz-adv-x="910" d="M275 323h447v347h-257v-181h-177q-122 0 -122 -84q0 -42 30.5 -62t78.5 -20zM725 0v122l-172 -229h-85l257 327v23l-3 11v5l-249 1q49 -42 49 -116q0 -66 -44.5 -108.5t-127.5 -42.5q-38 0 -69.5 9.5t-51.5 24.5t-31 26.5t-18 23.5v-154h-79v248h75q6 -50 45 -82.5 t106 -32.5q58 0 88 28t30 70q0 51 -36 80t-105 29h-53q-72 2 -120.5 37.5t-48.5 105.5q0 75 53 109.5t130 34.5h119v120h-411v70h962v-70h-131v-670h-79z" />
<glyph horiz-adv-x="810" d="M-27 670v70h910v-70h-131v-670h-82v166l-230 -245h-87l317 330v62h-153q-8 -88 -67.5 -144.5t-159.5 -56.5q-95 0 -154.5 50.5t-65.5 123.5h79q7 -41 45 -71.5t97 -30.5q72 0 111.5 44t39.5 110q0 63 -39.5 106.5t-111.5 43.5q-59 0 -95.5 -30t-46.5 -72h-79 q10 74 67 124t153 50q93 0 151.5 -48.5t72.5 -126.5h154v285h-695z" />
<glyph horiz-adv-x="650" d="M-27 670v70h704v-70h-213v-187h-101q-92 0 -151 -48.5t-59 -139.5q0 -79 52 -129.5t133 -50.5q84 0 135.5 52.5t51.5 135.5h80q0 -96 -51 -163t-139 -88l143 -154h-87l-133 145h-5l-132 -145h-87l144 155q-86 22 -137 86.5t-51 154.5q0 124 79 192t210 68h23v116h-409z " />
<glyph horiz-adv-x="677" d="M338 118q82 0 134 50.5t52 130.5q0 79 -52 129.5t-134 50.5q-81 0 -133 -50.5t-52 -129.5t52 -130t133 -51zM475 -103l-135 147l-135 -147h-87l147 158q-88 21 -141.5 86t-53.5 158q0 103 63.5 169.5t162.5 78.5v123h-323v70h729v-70h-324v-122q99 -12 163.5 -79 t64.5 -170q0 -92 -52.5 -157t-138.5 -86l147 -159h-87z" />
<glyph horiz-adv-x="574" d="M-27 670v70h627v-70h-139v-181h-171q-120 0 -120 -83q0 -43 29.5 -63t76.5 -20h45q55 0 98.5 -14.5t75 -54t31.5 -100.5q0 -62 -37 -104.5t-106 -57.5l144 -155h-87l-135 147l-135 -147h-87l147 158q-74 18 -115.5 66.5t-43.5 117.5h82q1 -58 42.5 -93.5t117.5 -35.5 q65 0 99.5 29t34.5 76q0 58 -39.5 83t-100.5 25h-41q-75 0 -127.5 34t-52.5 111q0 73 52 107t129 34h114v121h-408z" />
<glyph horiz-adv-x="641" d="M-27 670v70h695v-70h-185v-172h-95q-106 0 -172 -55.5t-66 -161.5q0 -93 61 -152t161 -59q73 0 120.5 37t47.5 96q0 45 -28 74t-72 29q-38 0 -64.5 -24.5t-26.5 -63.5q0 -12 3 -19h-63q-2 18 -2 30q0 64 44 101t112 37q77 0 123 -45.5t46 -118.5q0 -75 -48 -126t-133 -64 l142 -154h-87l-135 147l-135 -147h-87l149 160q-95 25 -151.5 94.5t-56.5 169.5q0 133 82 204t212 71h40v112h-431z" />
<glyph horiz-adv-x="854" d="M282 329q50 0 79 34t29 88v219h-217v-219q0 -54 29.5 -88t79.5 -34zM-27 670v70h908v-70h-132v-670h-79v253l-271 -285h-96l364 374v328h-195v-212q0 -89 -50 -144.5t-141 -55.5q-90 0 -140 55.5t-50 144.5v212h-118z" />
<glyph horiz-adv-x="695" d="M-27 670v70h748v-70h-131v-670h-81v269l-271 -269h-107v4l374 352q-21 48 -67.5 78t-107.5 30q-76 0 -126 -46.5t-50 -127.5h-83q-1 111 65 176t174 65q130 0 198 -100v239h-535z" />
<glyph horiz-adv-x="766" d="M577 0v229q-19 -43 -56 -73h2l-278 -229h-102v5l210 169h-3q-126 0 -198.5 73t-72.5 197q0 26 3 53h99q206 0 206 142q0 48 -29 79.5t-79 31.5q-52 0 -82 -31.5t-30 -84.5q0 -15 4 -43h-76q-4 28 -4 46q0 86 52.5 135.5t136.5 49.5q83 0 134 -51.5t51 -133.5 q0 -100 -69.5 -150.5t-185.5 -50.5h-51q1 -89 52.5 -141.5t150.5 -52.5q91 0 153 57t62 153v361h216v-70h-132v-670h-84z" />
<glyph horiz-adv-x="609" d="M-27 670v70h662v-70h-144v-182h-148q-82 0 -135 -43t-53 -122q0 -71 42.5 -114t114.5 -43q56 0 99 35t43 101h77v-318h-82v193q-12 -17 -24 -29l-208 -205h-92l164 159q-98 0 -158.5 59.5t-60.5 164.5q0 113 75 173.5t191 60.5h72v110h-435z" />
<glyph horiz-adv-x="712" d="M305 99q-95 0 -156 45.5t-61 127.5q0 62 36.5 99.5t85.5 45.5v3q-54 13 -91.5 54.5t-37.5 109.5q0 73 47.5 119t123.5 46q77 0 121.5 -44t44.5 -115q0 -22 -1 -33h-64q1 13 1 24q0 42 -26.5 70t-72.5 28q-47 0 -74 -29.5t-27 -73.5q0 -57 41.5 -89.5t110.5 -32.5h57v-68 h-54q-66 0 -101 -29t-35 -77q0 -55 42 -83.5t109 -28.5q89 0 146.5 56.5t57.5 147.5v368h214v-70h-130v-670h-84v220q-16 -30 -39 -52h1l-231 -232h-92l170 165q-20 -2 -32 -2z" />
<glyph horiz-adv-x="822" d="M267 188q55 0 90.5 34.5t35.5 88.5q0 53 -35.5 88t-90.5 35q-56 0 -92 -34.5t-36 -89.5q0 -54 35.5 -88t92.5 -34zM-27 670v70h874v-70h-131v-670h-75v198l-253 -272h-92l340 353v155h-230q54 -52 54 -133t-54.5 -132.5t-139.5 -51.5q-88 0 -145.5 53t-57.5 140 q0 90 59 142t151 52h363v166h-663z" />
<glyph horiz-adv-x="655" d="M319 268q69 0 108.5 44.5t39.5 110.5v247h-299v-225q0 -84 37.5 -130.5t113.5 -46.5zM-27 670v70h708v-70h-131v-670h-83v285q-9 -16 -30 -37l-248 -260h-93l212 213h-9q-105 0 -159.5 65.5t-54.5 178.5v225h-112z" />
<glyph horiz-adv-x="985" d="M309 268q65 0 102 43.5t37 107.5v251h-280v-229q0 -82 35 -127.5t106 -45.5zM-27 670v70h1039v-70h-481v-216q49 105 177 105q91 0 149.5 -63t58.5 -162q0 -108 -58.5 -170t-150.5 -62q-37 0 -64 8v65q22 -5 45 -5q63 0 103.5 43.5t40.5 116.5q0 71 -42 114t-106 43 q-76 0 -114.5 -51.5t-38.5 -122.5v-313h-83v283q-15 -23 -31 -38l-240 -257h-93l208 213h-2q-100 0 -152.5 64.5t-52.5 175.5v229h-112z" />
<glyph horiz-adv-x="688" d="M471 152l-208 -206h-91l158 150q-5 -1 -17 -1q-104 0 -173.5 64.5t-69.5 170.5q0 107 68.5 173t171.5 66q68 0 117.5 -29.5t76.5 -76.5v207h-531v70h742v-70h-131v-670h-80v194q-14 -21 -33 -42zM326 512q-73 0 -123 -44l273 -240q31 46 31 104q0 72 -47.5 126t-133.5 54 zM328 153q75 0 123 45l-275 240q-32 -46 -32 -108q0 -81 53 -129t131 -48z" />
<glyph horiz-adv-x="795" d="M260 191q50 0 77.5 35t27.5 97v66h-94q-52 0 -84.5 -27t-32.5 -73q0 -44 30 -71t76 -27zM261 121q-83 0 -134 46.5t-51 121.5q0 79 54.5 123.5t139.5 44.5h95v91q0 129 -95 129q-41 0 -66 -28t-25 -76q0 -16 3 -37h-81q-4 26 -4 41q0 78 45.5 125t126.5 47q88 0 130 -57 t42 -157v-78h189v283h212v-70h-133v-670h-76v197l-269 -271h-93l359 348v115h-189v-61q0 -97 -48 -152t-132 -55z" />
<glyph horiz-adv-x="786" d="M232 197q50 0 77.5 35t27.5 98v79h-95q-52 0 -84 -29t-32 -77t29.5 -77t76.5 -29zM601 477v193h-188v-193h188zM-27 670v70h839v-70h-131v-670h-76v199l-271 -273h-93l360 349v134h-188v-75q0 -97 -47.5 -151.5t-133.5 -54.5q-82 0 -133 48t-51 126q0 82 54 128.5 t139 46.5h96v193h-364z" />
<glyph horiz-adv-x="737" d="M350 182q85 0 142 52.5t57 135.5v300h-201v-83q0 -186 -197 -194v-7q0 -95 52.5 -149.5t146.5 -54.5zM-27 670v70h791v-70h-132v-670h-83v219q-24 -37 -56 -60l-264 -219h-103v5l210 168h-3q-126 0 -195 75.5t-69 205.5q0 23 3 47h14q89 0 134 36.5t45 123.5v69h-292z " />
<glyph horiz-adv-x="904" d="M596 69q-8 0 -34 2v73q22 -2 29 -2q75 0 117 47t42 123q0 69 -33.5 113t-96.5 44q-65 0 -99 -49.5t-34 -133.5v-15h-71v15q0 83 -32.5 133t-94.5 50q-65 0 -100 -43.5t-35 -113.5q0 -76 42 -123t117 -47q9 0 29 2v-73q-26 -2 -34 -2q-114 0 -176 68t-62 177 q0 106 57.5 167.5t150.5 61.5q73 0 115 -42t58 -103h3q14 55 50 95t98 48v129h-629v70h957v-70h-246v-133q69 -17 109.5 -75.5t40.5 -147.5q0 -109 -62 -177t-176 -68zM395 -163l166 179h112l166 -179h-87l-135 147l-135 -147h-87z" />
<glyph horiz-adv-x="674" d="M319 163q81 0 125 50.5t44 114.5v1q0 66 -43.5 116t-125.5 50q-72 0 -119.5 -45t-47.5 -120q0 -77 47 -122t120 -45zM701 670h-132v-670h-81v204q-18 -34 -50 -60l-192 -188h-92l152 144h-8q-102 0 -165 63.5t-63 169.5q0 102 64 166t164 64q68 0 116.5 -28.5t73.5 -76.5 v212h-515v70h728v-70z" />
<glyph horiz-adv-x="806" d="M286 419l25 -13l8 6q48 36 72.5 71t24.5 83q0 46 -32 79.5t-85 33.5q-49 0 -81.5 -31.5t-34.5 -75.5q-2 -51 23.5 -87t79.5 -66zM619 0v164l-78 42l-225 -211h-98v7l262 237l-163 88l-177 -137h-95v11l208 160q-149 85 -149 207q0 77 52.5 129t140.5 52q89 0 142.5 -51 t53.5 -125q0 -61 -28.5 -107.5t-90.5 -94.5l245 -132v501h214v-70h-132v-670h-82z" />
<glyph horiz-adv-x="661" d="M474 421v249h-309zM320 263q55 0 92 26.5t52 71.5l-299 242v-160q0 -85 39 -132.5t116 -47.5zM-27 670v70h715v-70h-132v-670h-82v280q-15 -26 -39 -45l-246 -247h-93l214 206h-6q-107 0 -163 67.5t-56 183.5v225h-112z" />
<glyph horiz-adv-x="877" d="M429 579q0 -105 -61 -161h323v252h-262v-91zM-27 670v70h930v-70h-132v-670h-73v219l-203 -276h-82l278 360v50h-529v-170q0 -54 25.5 -87t76.5 -33q44 0 70 33.5t26 88.5v12h73q1 -7 1 -16q0 -87 -45 -138.5t-124 -51.5q-88 0 -135 54t-47 142v224h92q84 0 128 45 t44 123v91h-374z" />
<glyph horiz-adv-x="586" d="M528 32q-11 -68 -70 -115t-152 -47q-108 0 -169.5 66t-61.5 168q0 66 29 118.5t81 81.5q-86 36 -86 122q0 62 44.5 94.5t117.5 32.5h131v117h-419v70h639v-70h-141v-178h-183q-47 0 -77 -19.5t-30 -61.5q0 -62 73 -83q27 5 51 5q79 0 133.5 -37t71.5 -92l-113 -115h-77 l114 116q-41 64 -126 64q-71 0 -112.5 -48t-41.5 -120t41.5 -118t114.5 -46q58 0 95 28.5t49 66.5h74z" />
<glyph horiz-adv-x="998" d="M305 167q68 0 110 42.5t42 110.5q0 70 -42 113.5t-110 43.5t-111 -43.5t-43 -114.5q0 -68 43.5 -110t110.5 -42zM692 167q67 0 110.5 42t43.5 110q0 71 -43 114.5t-110 43.5q-69 0 -111 -44t-42 -113q0 -68 42 -110.5t110 -42.5zM842 -54l-135 147l-135 -147h-87l148 159 q-49 15 -83.5 49.5t-49.5 80.5h-3q-20 -62 -74 -101t-129 -39q-96 0 -160 63t-64 162q0 102 63.5 165.5t159.5 63.5q76 0 127.5 -38t76.5 -100h3q22 56 66.5 92.5t107.5 43.5v123h-701v70h1050v-70h-267v-127q77 -16 124.5 -76t47.5 -147q0 -77 -40.5 -134t-107.5 -79 l149 -161h-87z" />
<glyph horiz-adv-x="1042" d="M510 0v205q-16 -33 -42 -54l-200 -197h-91l155 150h-2q-93 0 -153 62t-60 164q0 104 60 166.5t156 62.5q126 0 177 -101v212h-537v70h1095v-70h-477v-214q50 103 172 103q92 0 150.5 -63.5t58.5 -163.5q0 -107 -58.5 -168.5t-150.5 -61.5q-37 0 -62 7v66q16 -4 42 -4 q63 0 104 42.5t41 116.5q0 71 -42 114t-106 43q-74 0 -111.5 -49.5t-37.5 -115.5v-322h-81zM356 168q28 0 48 7l10 9l7 -3q44 19 66.5 60t22.5 87q0 64 -39.5 111.5t-114.5 47.5q-66 0 -110.5 -43t-44.5 -114q0 -75 43.5 -118.5t111.5 -43.5zM87 9q-22 0 -37.5 15t-15.5 37 q0 23 15 38t38 15q22 0 37 -15t15 -38q0 -22 -15 -37t-37 -15z" />
<glyph horiz-adv-x="933" d="M745 0v218q-45 -82 -150 -82q-21 0 -39 3q-21 -43 -55 -75l-202 -207h-90v5l139 138h-15q-114 0 -182 64.5t-68 178.5v156h36q66 0 104 33.5t38 116.5v121h-288v70h987v-70h-132v-670h-83zM102 -122q-22 0 -37.5 15t-15.5 37t15.5 37.5t37.5 15.5t37 -15t15 -38 q0 -22 -15 -37t-37 -15zM611 201q65 0 99.5 42.5t34.5 97.5t-34 97t-100 42q-59 0 -98.5 -37t-39.5 -100q0 -66 39 -104t99 -38zM335 70q107 0 154 94q-92 55 -92 179q0 90 56.5 146t141.5 56q104 0 150 -81v206h-400v-131q0 -107 -49.5 -154.5t-129.5 -47.5v-103 q0 -74 45 -119t124 -45z" />
<glyph horiz-adv-x="745" d="M559 0v251l-270 -271h-96l364 357v333h-178v-217q0 -78 -40.5 -126.5t-123.5 -48.5q-81 0 -124 46.5t-43 123.5v31h82v-31q0 -42 19.5 -70.5t62.5 -28.5q83 0 83 100v221h-322v70h799v-70h-132v-670h-81zM98 56q-22 0 -37.5 15t-15.5 37t15.5 37.5t37.5 15.5t37 -15 t15 -38q0 -22 -15 -37t-37 -15z" />
<glyph horiz-adv-x="840" d="M-27 670v70h894v-70h-132v-670h-78v242l-261 -276h-93l353 361v106h-197v-31q0 -90 -51.5 -146t-140.5 -56q-90 0 -141 55.5t-51 146.5v99h84v-97q0 -59 29 -94.5t80 -35.5q52 0 82.5 35.5t30.5 94.5v97h275v169h-683zM144 -9q-22 0 -37.5 15t-15.5 37q0 23 15.5 38 t37.5 15t37 -15t15 -38q0 -22 -15 -37t-37 -15z" />
<glyph horiz-adv-x="1046" d="M369 268q65 0 102 43.5t37 107.5v251h-279v-229q0 -82 35 -127.5t105 -45.5zM-27 670v70h1099v-70h-480v-214q50 103 177 103q91 0 149.5 -63t58.5 -162q0 -108 -58.5 -170t-150.5 -62q-34 0 -66 8v65q25 -5 46 -5q64 0 104 43t40 117q0 71 -42 114t-105 43 q-75 0 -114 -51.5t-39 -122.5v-313h-84v282q-14 -23 -35 -41l-236 -253h-92l207 213h-2q-100 0 -152.5 64.5t-52.5 175.5v229h-172zM82 88q-22 0 -37.5 15t-15.5 37t15.5 37.5t37.5 15.5t37 -15t15 -38q0 -22 -15 -37t-37 -15z" />
<glyph horiz-adv-x="738" d="M463 0v206q-16 -33 -42 -54l-200 -198h-92l155 150h-1q-93 0 -153 62t-60 164q0 104 60 166.5t156 62.5q126 0 177 -102v213h-490v70h952v-70h-382v-217q49 106 173 106q92 0 150.5 -63.5t58.5 -165.5h-85q0 71 -42 114t-105 43q-74 0 -111.5 -49t-38.5 -116v-322h-80z M309 168q26 0 47 6l10 10l8 -3q43 19 66 60.5t23 86.5q0 64 -39.5 111.5t-114.5 47.5q-66 0 -110.5 -43t-44.5 -114q0 -75 43.5 -118.5t111.5 -43.5z" />
<glyph horiz-adv-x="674" d="M-27 670v70h857v-70h-485v-131q0 -107 -49.5 -154.5t-129.5 -47.5v-103q0 -74 45 -119t124 -45q108 0 156 97q-93 55 -93 173q0 94 59.5 149t156.5 55t156.5 -55t59.5 -149q0 -95 -60.5 -149.5t-155.5 -54.5q-30 0 -57 6q-23 -48 -56 -78l-202 -207h-90v5l139 138h-15 q-114 0 -182 64.5t-68 178.5v156h36q66 0 104 33.5t38 116.5v121h-288zM614 200q65 0 103.5 38t38.5 102t-38.5 102t-103.5 38q-64 0 -102.5 -38t-38.5 -102t38.5 -102t102.5 -38z" />
<glyph horiz-adv-x="480" d="M573 265l-284 -285h-96l380 373v-88zM-27 670v70h600v-70h-194v-217q0 -78 -40.5 -126.5t-123.5 -48.5q-81 0 -124 46.5t-43 123.5v31h82v-31q0 -42 19.5 -70.5t62.5 -28.5q83 0 83 100v221h-322z" />
<glyph horiz-adv-x="422" d="M-27 670v70h620v-70h-410v-73q0 -60 32 -90t104 -30h47v-68h-53q-74 0 -110 -31.5t-36 -81.5q0 -59 43.5 -90.5t113.5 -31.5q87 0 142.5 52.5t55.5 133.5h71q0 -123 -90 -197l-215 -216h-92l166 160q-24 -2 -38 -2q-112 0 -176.5 47t-64.5 136q0 63 38 103t94 50v2 q-52 9 -84 45.5t-32 104.5v77h-126z" />
<glyph horiz-adv-x="660" d="M588 342q-22 0 -37 15t-15 36q0 22 15 37t37 15t37 -15t15 -37q0 -21 -15 -36t-37 -15zM394 -376l-122 199h84l124 -199h-86zM-27 670v70h713v-70h-219v-181h-177q-120 0 -120 -83q0 -43 29.5 -63t76.5 -20h45q55 0 98.5 -14.5t75 -54t31.5 -100.5q0 -60 -35.5 -102.5 t-102.5 -57.5l145 -157h-87l-135 147l-135 -147h-87l146 157q-76 17 -119 65.5t-45 119.5h82q1 -58 42.5 -93.5t117.5 -35.5q65 0 99.5 29t34.5 76q0 58 -39.5 83t-100.5 25h-41q-75 0 -127.5 34t-52.5 111q0 73 52 107t129 34h119v121h-413z" />
<glyph horiz-adv-x="455" d="M-27 670v70h644v-70h-644zM50 461v66h363v-66h-35q-71 0 -114 -42t-43 -106q0 -67 44.5 -105t110.5 -38q75 0 122.5 52t47.5 128h71q3 -128 -88 -199l-193 -197h-92l151 146q-9 -1 -26 -1q-99 0 -163 53t-64 148q0 110 90 161h-182z" />
<glyph horiz-adv-x="817" d="M-27 670v70h871v-70h-665v-102q0 -120 132 -120h22v-69h-20q-78 0 -116.5 -35t-38.5 -90q0 -75 63.5 -115t177.5 -40q133 0 215 65.5t82 179.5q0 68 -32.5 106t-77.5 38q-42 0 -74 -29t-32 -87q0 -37 17 -93h-69q-18 50 -18 101q0 86 51 128t125 42q80 0 132.5 -54 t52.5 -154q0 -122 -73 -202t-199 -104l147 -158h-87l-135 147l-135 -147h-87l140 151q-124 11 -196.5 66.5t-72.5 150.5q0 69 39 111.5t100 53.5v3q-51 8 -83 45t-32 106v105h-124z" />
<glyph horiz-adv-x="546" d="M303 -34l391 400v-85l-298 -315h-93zM-27 670v70h721v-70h-721zM267 200q-90 0 -141 55.5t-51 146.5v99h84v-97q0 -59 29 -94.5t80 -35.5q52 0 82.5 35.5t30.5 94.5v97h313v-71h-235v-28q0 -90 -51.5 -146t-140.5 -56z" />
<glyph horiz-adv-x="569" d="M180 77v-154h-79v248h75q6 -50 45 -82.5t106 -32.5q58 0 88 28t30 70q0 51 -36 80t-105 29h-53q-72 2 -120.5 37.5t-48.5 105.5q0 75 53 109.5t130 34.5h119v120h-411v70h738v-70h-246v-181h-177q-122 0 -122 -84q0 -42 30.5 -62t78.5 -20h436v-64l-238 1q49 -42 49 -116 q0 -66 -44.5 -108.5t-127.5 -42.5q-38 0 -69.5 9.5t-51.5 24.5t-31 26.5t-18 23.5zM711 108l-158 -215h-85l243 303v-88z" />
<glyph horiz-adv-x="543" d="M290 112q-95 0 -154.5 50.5t-65.5 123.5h79q7 -41 45 -71.5t97 -30.5q72 0 111.5 44t39.5 110q0 63 -39.5 106.5t-111.5 43.5q-59 0 -95.5 -30t-46.5 -72h-79q10 74 67 124t153 50q93 0 151.5 -48.5t72.5 -126.5h161v-72h-158q-8 -88 -67.5 -144.5t-159.5 -56.5zM353 -79 l322 339v-89l-235 -250h-87zM-27 670v70h702v-70h-702z" />
<glyph horiz-adv-x="650" d="M421 -315l-122 199h84l124 -199h-86zM-27 670v70h704v-70h-213v-187h-101q-92 0 -151 -48.5t-59 -139.5q0 -79 52 -129.5t133 -50.5q84 0 135.5 52.5t51.5 135.5h80q0 -96 -51 -163t-139 -88l143 -154h-87l-133 145h-5l-132 -145h-87l144 155q-86 22 -137 86.5t-51 154.5 q0 124 79 192t210 68h23v116h-409z" />
<glyph horiz-adv-x="677" d="M338 118q82 0 134 50.5t52 130.5q0 79 -52 129.5t-134 50.5q-81 0 -133 -50.5t-52 -129.5t52 -130t133 -51zM475 -103l-135 147l-135 -147h-87l147 158q-88 21 -141.5 86t-53.5 158q0 103 63.5 169.5t162.5 78.5v123h-323v70h729v-70h-324v-122q99 -12 163.5 -79 t64.5 -170q0 -92 -52.5 -157t-138.5 -86l147 -159h-87zM420 -317l-122 199h84l124 -199h-86z" />
<glyph horiz-adv-x="574" d="M386 -376l-122 199h84l124 -199h-86zM-27 670v70h627v-70h-139v-181h-171q-120 0 -120 -83q0 -43 29.5 -63t76.5 -20h45q55 0 98.5 -14.5t75 -54t31.5 -100.5q0 -62 -37 -104.5t-106 -57.5l144 -155h-87l-135 147l-135 -147h-87l147 158q-74 18 -115.5 66.5t-43.5 117.5 h82q1 -58 42.5 -93.5t117.5 -35.5q65 0 99.5 29t34.5 76q0 58 -39.5 83t-100.5 25h-41q-75 0 -127.5 34t-52.5 111q0 73 52 107t129 34h114v121h-408z" />
<glyph horiz-adv-x="641" d="M438 -354l-122 199h84l124 -199h-86zM-27 670v70h695v-70h-185v-172h-95q-106 0 -172 -55.5t-66 -161.5q0 -93 61 -152t161 -59q73 0 120.5 37t47.5 96q0 45 -28 74t-72 29q-38 0 -64.5 -24.5t-26.5 -63.5q0 -12 3 -19h-63q-2 18 -2 30q0 64 44 101t112 37 q77 0 123 -45.5t46 -118.5q0 -75 -48 -126t-133 -64l142 -154h-87l-135 147l-135 -147h-87l149 160q-95 25 -151.5 94.5t-56.5 169.5q0 133 82 204t212 71h40v112h-431z" />
<glyph horiz-adv-x="564" d="M303 -32l359 369v-95l-263 -274h-96zM-27 670v70h689v-70h-190v-212q0 -89 -50 -144.5t-141 -55.5q-90 0 -140 55.5t-50 144.5v212h-118zM282 329q50 0 79 34t29 88v219h-217v-219q0 -54 29.5 -88t79.5 -34z" />
<glyph horiz-adv-x="426" d="M71 290q0 109 71 175.5t186 66.5q97 0 166.5 -52t92.5 -136l-349 -344h-107v4l374 352q-20 48 -65.5 78t-106.5 30q-77 0 -128 -46.5t-51 -127.5h-83zM-27 670v70h614v-70h-614z" />
<glyph horiz-adv-x="472" d="M650 351q0 -121 -92 -192l-286 -239h-103v6l218 174q-8 -1 -24 -1q-133 0 -208.5 72.5t-75.5 199.5q0 26 3 53h99q206 0 206 142q0 48 -29 79.5t-79 31.5q-52 0 -82 -31.5t-30 -84.5q0 -15 4 -43h-76q-4 28 -4 46q0 86 52.5 135.5t136.5 49.5q83 0 134 -51.5t51 -133.5 q0 -100 -69.5 -150.5t-185.5 -50.5h-51q1 -89 52.5 -141.5t150.5 -52.5q95 0 155 49.5t60 132.5h73z" />
<glyph horiz-adv-x="609" d="M570 -295l-122 199h84l124 -199h-86zM-27 670v70h662v-70h-144v-182h-148q-82 0 -135 -43t-53 -122q0 -71 42.5 -114t114.5 -43q56 0 99 35t43 101h77v-318h-82v193q-12 -17 -24 -29l-208 -205h-92l164 159q-98 0 -158.5 59.5t-60.5 164.5q0 113 75 173.5t191 60.5h72 v110h-435z" />
<glyph horiz-adv-x="428" d="M321 97q-104 0 -168.5 45t-64.5 130q0 62 36.5 99.5t85.5 45.5v3q-54 13 -91.5 54.5t-37.5 109.5q0 73 47.5 119t123.5 46q77 0 121.5 -44t44.5 -115q0 -22 -1 -33h-64q1 13 1 24q0 42 -26.5 70t-72.5 28q-47 0 -74 -29.5t-27 -73.5q0 -57 41.5 -89.5t110.5 -32.5h57v-68 h-54q-66 0 -101 -29t-35 -77q0 -56 44 -84t111 -28q92 0 146 45t54 118h73q0 -104 -75 -168l-222 -227h-93l171 165q-25 -4 -61 -4z" />
<glyph horiz-adv-x="510" d="M266 117q-88 0 -145.5 53t-57.5 140q0 90 59 142t151 52h389v-70h-256q54 -52 54 -133q0 -84 -54.5 -134t-139.5 -50zM267 188q55 0 90.5 34.5t35.5 88.5q0 53 -35.5 88t-90.5 35q-56 0 -92 -34.5t-36 -89.5q0 -54 35.5 -88t92.5 -34zM296 -74l366 381v-89l-274 -292h-92 zM-27 670v70h689v-70h-689z" />
<glyph horiz-adv-x="366" d="M-27 670v70h563v-70h-368v-225q0 -84 37.5 -130.5t114.5 -46.5q69 0 108 44.5t39 110.5h69q0 -119 -80 -181l-238 -254h-91l208 210q-7 -1 -21 -1q-111 0 -170 67t-59 181v225h-112z" />
<glyph horiz-adv-x="737" d="M309 268q65 0 102 43.5t37 107.5v251h-280v-229q0 -82 35 -127.5t106 -45.5zM-27 670v70h943v-70h-385v-216q49 105 177 105q99 0 153.5 -62t54.5 -167h-84q0 73 -38 115t-110 42q-76 0 -114.5 -51.5t-38.5 -122.5v-313h-83v283q-15 -23 -31 -38l-240 -257h-93l208 213 h-2q-100 0 -152.5 64.5t-52.5 175.5v229h-112z" />
<glyph horiz-adv-x="414" d="M-27 670v70h600v-70h-600zM322 91q-111 0 -181.5 66t-70.5 173t69.5 173.5t181.5 66.5q62 0 111.5 -21t79 -56t44.5 -76t15 -85q0 -121 -85 -189l-195 -197h-87l154 147q-24 -2 -36 -2zM323 511q-75 0 -124 -46l274 -240q31 47 31 104q0 73 -47.5 127.5t-133.5 54.5z M325 150q76 0 124 46l-277 239q-31 -47 -31 -107q0 -81 53.5 -129.5t130.5 -48.5z" />
<glyph horiz-adv-x="510" d="M260 191q50 0 77.5 35t27.5 97v66h-94q-52 0 -84.5 -27t-32.5 -73q0 -44 30 -71t76 -27zM261 121q-83 0 -134 46.5t-51 121.5q0 79 54.5 123.5t139.5 44.5h95v91q0 129 -95 129q-41 0 -66 -28t-25 -76q0 -16 3 -37h-81q-4 26 -4 41q0 78 45.5 125t126.5 47q88 0 130 -57 t42 -157v-78h199v-68h-199v-61q0 -97 -48 -152t-132 -55zM271 -74l369 357v-79l-276 -278h-93z" />
<glyph horiz-adv-x="505" d="M232 197q50 0 77.5 35t27.5 98v79h-95q-52 0 -84 -29t-32 -77t29.5 -77t76.5 -29zM241 -74l393 380v-79l-300 -301h-93zM-27 670v70h663v-70h-223v-193h222v-68h-222v-75q0 -97 -47.5 -151.5t-133.5 -54.5q-82 0 -133 48t-51 126q0 82 54 128.5t139 46.5h96v193h-364z " />
<glyph horiz-adv-x="445" d="M-27 670v70h652v-70h-277v-83q0 -186 -197 -194v-7q0 -96 54.5 -150t146.5 -54q84 0 140.5 50t56.5 128h76q2 -115 -86 -187l-283 -233h-102v5l209 166h-14q-131 0 -205.5 75.5t-74.5 207.5q0 23 3 47h14q89 0 134 36.5t45 123.5v69h-292z" />
<glyph horiz-adv-x="904" d="M596 69q-8 0 -34 2v73q22 -2 29 -2q75 0 117 47t42 123q0 69 -33.5 113t-96.5 44q-65 0 -99 -49.5t-34 -133.5v-15h-71v15q0 83 -32.5 133t-94.5 50q-65 0 -100 -43.5t-35 -113.5q0 -76 42 -123t117 -47q9 0 29 2v-73q-26 -2 -34 -2q-114 0 -176 68t-62 177 q0 106 57.5 167.5t150.5 61.5q73 0 115 -42t58 -103h3q14 55 50 95t98 48v129h-629v70h957v-70h-246v-133q69 -17 109.5 -75.5t40.5 -147.5q0 -109 -62 -177t-176 -68zM395 -163l166 179h112l166 -179h-87l-135 147l-135 -147h-87zM697 -376l-122 199h84l124 -199h-86z" />
<glyph horiz-adv-x="394" d="M321 163q81 0 124 50.5t43 115.5q0 66 -43 116t-124 50q-72 0 -120.5 -45t-48.5 -120q0 -77 47.5 -122t121.5 -45zM319 96q-112 0 -180.5 64.5t-68.5 172.5q0 103 69.5 166.5t179.5 63.5q122 0 186 -70t64 -165q0 -108 -80 -176l-201 -204h-90l158 150q-24 -2 -37 -2z M-27 670v70h596v-70h-596z" />
<glyph horiz-adv-x="498" d="M286 419l25 -13l8 6q48 36 72.5 71t24.5 83q0 46 -32 79.5t-85 33.5q-49 0 -81.5 -31.5t-34.5 -75.5q-2 -51 23.5 -87t79.5 -66zM45 190v11l208 160q-149 87 -149 207q0 77 52.5 129t140.5 52q89 0 142.5 -51t53.5 -125q0 -61 -28 -107t-90 -95l168 -90v-74l-227 -212 h-101v5l266 240l-164 87l-177 -137h-95z" />
<glyph horiz-adv-x="387" d="M321 263q59 0 97.5 28.5t48.5 67.5l-302 245v-161q0 -86 39 -133t117 -47zM-27 670v70h569v-70h-376l376 -299q0 -71 -60 -123l-259 -260h-91l212 205q-8 -1 -26 -1q-114 0 -173.5 68t-59.5 185v225h-112z" />
<glyph horiz-adv-x="524" d="M413 -57l233 300v-95l-151 -205h-82zM-27 670v70h673v-70h-217v-91q0 -105 -61 -161h278v-65h-484v-170q0 -54 25.5 -87t76.5 -33q44 0 70 33.5t26 88.5v12h73q1 -7 1 -16q0 -87 -45 -138.5t-124 -51.5q-88 0 -135 54t-47 142v224h92q84 0 128 45t44 123v91h-374z" />
<glyph horiz-adv-x="586" d="M528 32q-11 -68 -70 -115t-152 -47q-108 0 -169.5 66t-61.5 168q0 66 29 118.5t81 81.5q-86 36 -86 122q0 62 44.5 94.5t117.5 32.5h131v117h-419v70h639v-70h-141v-178h-183q-47 0 -77 -19.5t-30 -61.5q0 -62 73 -83q27 5 51 5q79 0 133.5 -37t71.5 -92l-113 -115h-77 l114 116q-41 64 -126 64q-71 0 -112.5 -48t-41.5 -120t41.5 -118t114.5 -46q58 0 95 28.5t49 66.5h74zM384 -409l-122 199h84l124 -199h-86z" />
<glyph horiz-adv-x="998" d="M294 95q-96 0 -160 63t-64 162q0 102 63.5 165.5t159.5 63.5q76 0 127.5 -38t76.5 -100h3q25 62 77 100t126 38q96 0 160.5 -63.5t64.5 -165.5q0 -77 -40.5 -134t-107.5 -79l149 -161h-87l-135 147l-135 -147h-87l148 159q-49 15 -83.5 49.5t-49.5 80.5h-3 q-20 -62 -74 -101t-129 -39zM305 167q68 0 110 42.5t42 110.5q0 70 -42 113.5t-110 43.5t-111 -43.5t-43 -114.5q0 -68 43.5 -110t110.5 -42zM692 167q67 0 110.5 42t43.5 110q0 71 -43 114.5t-110 43.5q-69 0 -111 -44t-42 -113q0 -68 42 -110.5t110 -42.5zM-27 670v70 h1050v-70h-1050z" />
<glyph horiz-adv-x="785" d="M510 0v205q-16 -33 -42 -54l-200 -197h-91l155 150h-2q-93 0 -153 62t-60 164q0 104 60 166.5t156 62.5q126 0 177 -101v212h-537v70h999v-70h-381v-214q50 103 172 103q92 0 150.5 -63.5t58.5 -165.5h-84q0 71 -42 114t-106 43q-74 0 -111.5 -49.5t-37.5 -115.5v-322 h-81zM356 168q28 0 48 7l10 9l7 -3q44 19 66.5 60t22.5 87q0 64 -39.5 111.5t-114.5 47.5q-66 0 -110.5 -43t-44.5 -114q0 -75 43.5 -118.5t111.5 -43.5zM87 9q-22 0 -37.5 15t-15.5 37q0 23 15 38t38 15q22 0 37 -15t15 -38q0 -22 -15 -37t-37 -15z" />
<glyph horiz-adv-x="674" d="M-27 670v70h857v-70h-485v-131q0 -107 -49.5 -154.5t-129.5 -47.5v-103q0 -74 45 -119t124 -45q108 0 156 97q-93 55 -93 173q0 94 59.5 149t156.5 55t156.5 -55t59.5 -149q0 -95 -60.5 -149.5t-155.5 -54.5q-30 0 -57 6q-23 -48 -56 -78l-202 -207h-90v5l139 138h-15 q-114 0 -182 64.5t-68 178.5v156h36q66 0 104 33.5t38 116.5v121h-288zM102 -122q-22 0 -37.5 15t-15.5 37t15.5 37.5t37.5 15.5t37 -15t15 -38q0 -22 -15 -37t-37 -15zM614 200q65 0 103.5 38t38.5 102t-38.5 102t-103.5 38q-64 0 -102.5 -38t-38.5 -102t38.5 -102 t102.5 -38z" />
<glyph horiz-adv-x="480" d="M573 265l-284 -285h-96l380 373v-88zM-27 670v70h600v-70h-194v-217q0 -78 -40.5 -126.5t-123.5 -48.5q-81 0 -124 46.5t-43 123.5v31h82v-31q0 -42 19.5 -70.5t62.5 -28.5q83 0 83 100v221h-322zM98 56q-22 0 -37.5 15t-15.5 37t15.5 37.5t37.5 15.5t37 -15t15 -38 q0 -22 -15 -37t-37 -15z" />
<glyph horiz-adv-x="546" d="M303 -34l391 400v-85l-298 -315h-93zM-27 670v70h721v-70h-721zM267 200q-90 0 -141 55.5t-51 146.5v99h84v-97q0 -59 29 -94.5t80 -35.5q52 0 82.5 35.5t30.5 94.5v97h313v-71h-235v-28q0 -90 -51.5 -146t-140.5 -56zM144 -9q-22 0 -37.5 15t-15.5 37q0 23 15.5 38 t37.5 15t37 -15t15 -38q0 -22 -15 -37t-37 -15z" />
<glyph horiz-adv-x="798" d="M369 268q65 0 102 43.5t37 107.5v251h-279v-229q0 -82 35 -127.5t105 -45.5zM-27 670v70h1004v-70h-385v-214q50 103 177 103q98 0 153 -62.5t55 -166.5h-85q0 73 -38 115t-109 42q-75 0 -114 -51.5t-39 -122.5v-313h-84v282q-14 -23 -35 -41l-236 -253h-92l207 213h-2 q-100 0 -152.5 64.5t-52.5 175.5v229h-172zM82 88q-22 0 -37.5 15t-15.5 37t15.5 37.5t37.5 15.5t37 -15t15 -38q0 -22 -15 -37t-37 -15z" />
<glyph horiz-adv-x="1752" d="M309 168q74 0 114 49t40 111q0 64 -39.5 111.5t-114.5 47.5q-66 0 -110.5 -43t-44.5 -114q0 -75 43.5 -118.5t111.5 -43.5zM1220 670h-677v-212q46 101 167 101q105 0 161 -82q60 82 172 82q126 0 177 -102v213zM1220 0v202q-51 -104 -180 -104q-95 0 -154 63.5 t-59 168.5q0 71 -39 114t-102 43q-73 0 -108 -48.5t-35 -116.5v-322h-80v202q-51 -104 -180 -104q-95 0 -154 63.5t-59 168.5q0 104 60 166.5t156 62.5q126 0 177 -102v213h-490v70h1805v-70h-478v-217q49 106 173 106q92 0 150.5 -63.5t58.5 -163.5q0 -107 -58.5 -168.5 t-150.5 -61.5q-37 0 -62 7v66q16 -4 42 -4q63 0 103.5 42.5t40.5 116.5q0 71 -42 114t-105 43q-74 0 -112 -49t-38 -116v-322h-80zM1066 168q74 0 114 49t40 111q0 64 -39.5 111.5t-114.5 47.5q-66 0 -110.5 -43t-44.5 -114q0 -75 43.5 -118.5t111.5 -43.5z" />
<glyph horiz-adv-x="1752" d="M269 -95q-24 0 -40 16t-16 39q0 24 16 40.5t40 16.5t40 -16.5t16 -40.5q0 -23 -16 -39t-40 -16zM1027 -95q-24 0 -40 16t-16 39q0 24 16 40.5t40 16.5t40 -16.5t16 -40.5q0 -23 -16 -39t-40 -16zM309 168q74 0 114 49t40 111q0 64 -39.5 111.5t-114.5 47.5 q-66 0 -110.5 -43t-44.5 -114q0 -75 43.5 -118.5t111.5 -43.5zM1066 168q74 0 114 49t40 111q0 64 -39.5 111.5t-114.5 47.5q-66 0 -110.5 -43t-44.5 -114q0 -75 43.5 -118.5t111.5 -43.5zM1220 670h-677v-212q46 101 167 101q105 0 156 -89q59 89 177 89q126 0 177 -102 v213zM1220 0v202q-51 -104 -180 -104q-95 0 -154 63.5t-59 168.5q0 71 -39 114t-102 43q-73 0 -108 -48.5t-35 -116.5v-322h-80v202q-51 -104 -180 -104q-95 0 -154 63.5t-59 168.5q0 104 60 166.5t156 62.5q126 0 177 -102v213h-490v70h1805v-70h-478v-217q49 106 173 106 q92 0 150.5 -63.5t58.5 -163.5q0 -107 -58.5 -168.5t-150.5 -61.5q-37 0 -62 7v66q16 -4 42 -4q63 0 103.5 42.5t40.5 116.5q0 71 -42 114t-105 43q-74 0 -112 -49t-38 -116v-322h-80z" />
<glyph horiz-adv-x="1677" d="M710 555q73 0 121.5 -41t65.5 -113q107 17 107 148v121h-461v-215q46 100 167 100zM309 168q74 0 114 49t40 111q0 64 -39.5 111.5t-114.5 47.5q-66 0 -110.5 -43t-44.5 -114q0 -75 43.5 -118.5t111.5 -43.5zM1488 0v218q-45 -82 -150 -82q-20 0 -38 3 q-31 -63 -87.5 -102.5t-135.5 -39.5q-115 0 -182.5 64t-67.5 175v94q0 71 -39 114t-102 43q-73 0 -108 -48.5t-35 -116.5v-322h-80v202q-51 -104 -180 -104q-95 0 -154 63.5t-59 168.5q0 104 60 166.5t156 62.5q126 0 177 -102v213h-490v70h1730v-70h-132v-670h-83z M1355 201q65 0 99 42.5t34 97.5t-33.5 97t-99.5 42q-59 0 -99 -37t-40 -100q0 -66 39 -104t100 -38zM1078 70q108 0 155 94q-44 26 -68.5 72.5t-24.5 106.5q0 90 56.5 146t141.5 56q104 0 150 -81v206h-400v-131q0 -106 -49.5 -154t-128.5 -48v-103q0 -74 45 -119t123 -45z " />
<glyph horiz-adv-x="1373" d="M1014 170q75 0 123 52t48 128v320h-642v-231q48 98 185 98h323v-67h-35q-71 0 -114 -43t-43 -110q0 -69 44.5 -108t110.5 -39zM309 168q74 0 114 49t40 111q0 64 -39.5 111.5t-114.5 47.5q-66 0 -110.5 -43t-44.5 -114q0 -75 43.5 -118.5t111.5 -43.5zM543 312v-312h-80 v202q-51 -104 -180 -104q-95 0 -154 63.5t-59 168.5q0 104 60 166.5t156 62.5q126 0 177 -102v213h-490v70h1427v-70h-132v-670h-83v205q-27 -49 -78 -77t-114 -28q-92 0 -152.5 52t-60.5 146q0 58 26.5 103t74.5 69h-175q-84 0 -123.5 -45.5t-39.5 -112.5z" />
<glyph horiz-adv-x="1591" d="M309 168q74 0 114 49t40 111q0 64 -39.5 111.5t-114.5 47.5q-66 0 -110.5 -43t-44.5 -114q0 -75 43.5 -118.5t111.5 -43.5zM1019 204q52 0 82 35.5t30 94.5v165h272v171h-860v-212q46 101 167 101q90 0 145 -59t55 -151v-15q0 -58 29.5 -94t79.5 -36zM543 322v-322h-80 v202q-51 -104 -180 -104q-95 0 -154 63.5t-59 168.5q0 104 60 166.5t156 62.5q126 0 177 -102v213h-490v70h1645v-70h-132v-670h-83v427h-190v-95q0 -90 -52.5 -145.5t-142.5 -55.5q-89 0 -140 53.5t-51 135.5v13q0 70 -39 112t-102 42q-73 0 -108 -48.5t-35 -116.5z" />
<glyph horiz-adv-x="1405" d="M543 670v-212q46 101 167 101q116 0 169 -99q77 94 235 94h23v116h-594zM309 168q74 0 114 49t40 111q0 64 -39.5 111.5t-114.5 47.5q-66 0 -110.5 -43t-44.5 -114q0 -75 43.5 -118.5t111.5 -43.5zM543 322v-322h-80v202q-51 -104 -180 -104q-95 0 -154 63.5t-59 168.5 q0 104 60 166.5t156 62.5q126 0 177 -102v213h-490v70h1459v-70h-213v-187h-101q-92 0 -151 -48.5t-59 -139.5q0 -79 52 -129.5t133 -50.5q84 0 135.5 52.5t51.5 135.5h80q0 -116 -73 -188t-192 -72q-118 0 -194 70t-76 181q0 13 2 37q-1 71 -40 113.5t-101 42.5 q-73 0 -108 -48.5t-35 -116.5z" />
<glyph horiz-adv-x="1588" d="M543 670v-216q45 98 164 98q66 0 115 -38v156h-279zM309 168q74 0 114 49t40 111q0 64 -39.5 111.5t-114.5 47.5q-66 0 -110.5 -43t-44.5 -114q0 -75 43.5 -118.5t111.5 -43.5zM1013 254q50 0 79 33.5t29 87.5v295h-217v-295q0 -54 29.5 -87.5t79.5 -33.5zM543 322v-322 h-80v202q-51 -104 -180 -104q-95 0 -154 63.5t-59 168.5q0 104 60 166.5t156 62.5q126 0 177 -102v213h-490v70h1640v-70h-132v-670h-83v670h-195v-287q0 -90 -50 -145t-141 -55q-90 0 -140 55.5t-50 141.5q-12 49 -48.5 78t-87.5 29q-73 0 -108 -48.5t-35 -116.5z" />
<glyph horiz-adv-x="1094" d="M-27 670v70h1147v-70h-500v-286q53 106 188 106q94 0 155.5 -65t61.5 -168q0 -110 -62 -174t-161 -64q-34 0 -69 7v67q20 -5 49 -5q71 0 114.5 45t43.5 123q0 72 -44 117t-110 45q-82 0 -124 -49t-42 -113v-256h-81v413h-133q-96 0 -150.5 -43.5t-54.5 -128.5 q0 -82 48.5 -127t138.5 -45h21v-67h-33q-117 0 -187.5 61t-70.5 171q0 123 91 180h-171v71h501v185h-566z" />
</font>
</defs>
</svg>
